# This file was created with Minddesk Qubicle 2.0
# Get Qubicle at www.minddesk.com

mtllib grasstile.mtl

vn 0.0 0.0 1.0
vn 0.0 0.0 -1.0
vn -1.0 0.0 0.0
vn 1.0 0.0 0.0
vn 0.0 1.0 0.0
vn 0.0 -1.0 0.0

v 22.50000 0.50000 -45.00000
v 22.50000 -0.50000 -45.00000
v -22.50000 -0.50000 -45.00000
v -22.50000 0.50000 -45.00000
v -22.50000 0.50000 0.00000
v -22.50000 -0.50000 0.00000
v 22.50000 -0.50000 0.00000
v 22.50000 0.50000 0.00000

vt 0.00781 0.71875
vt 0.00781 0.01563
vt 0.35938 0.01563
vt 0.35938 0.71875
vt 0.37500 0.71875
vt 0.37500 0.01563
vt 0.72656 0.01563
vt 0.72656 0.71875
vt 0.00781 0.76563
vt 0.00781 0.75000
vt 0.35938 0.75000
vt 0.35938 0.76563
vt 0.37500 0.76563
vt 0.37500 0.75000
vt 0.72656 0.75000
vt 0.72656 0.76563
vt 0.00781 0.81250
vt 0.00781 0.79688
vt 0.35938 0.79688
vt 0.35938 0.81250
vt 0.37500 0.81250
vt 0.37500 0.79688
vt 0.72656 0.79688
vt 0.72656 0.81250

g Box_49
usemtl grasstile_Material
f  1/13/2 2/14/2 3/15/2 4/16/2
f  5/9/1 6/10/1 7/11/1 8/12/1
f  4/21/3 3/22/3 6/23/3 5/24/3
f  8/17/4 7/18/4 2/19/4 1/20/4
f  4/1/5 5/2/5 8/3/5 1/4/5
f  6/5/6 3/6/6 2/7/6 7/8/6
