# This file was created with Minddesk Qubicle 2.0
# Get Qubicle at www.minddesk.com

mtllib flower6.mtl

vn 0.0 0.0 1.0
vn 0.0 0.0 -1.0
vn -1.0 0.0 0.0
vn 1.0 0.0 0.0
vn 0.0 1.0 0.0
vn 0.0 -1.0 0.0

v -0.50000 0.50000 -2.00000
v -0.50000 -0.50000 -2.00000
v -1.50000 -0.50000 -2.00000
v -1.50000 0.50000 -2.00000
v 0.50000 0.50000 -3.00000
v 0.50000 -0.50000 -3.00000
v -0.50000 -0.50000 -3.00000
v -0.50000 0.50000 -3.00000
v 1.50000 0.50000 -2.00000
v 1.50000 -0.50000 -2.00000
v 0.50000 -0.50000 -2.00000
v 0.50000 0.50000 -2.00000
v -1.50000 0.50000 -1.00000
v -1.50000 -0.50000 -1.00000
v -0.50000 -0.50000 -1.00000
v -0.50000 0.50000 -1.00000
v -0.50000 0.50000 0.00000
v -0.50000 -0.50000 0.00000
v 0.50000 -0.50000 0.00000
v 0.50000 0.50000 0.00000
v 0.50000 0.50000 -1.00000
v 0.50000 -0.50000 -1.00000
v 1.50000 -0.50000 -1.00000
v 1.50000 0.50000 -1.00000

vt 0.06250 0.12500
vt 0.06250 0.06250
vt 0.25000 0.06250
vt 0.25000 0.12500
vt 0.37500 0.12500
vt 0.37500 0.06250
vt 0.56250 0.06250
vt 0.56250 0.12500
vt 0.68750 0.12500
vt 0.68750 0.06250
vt 0.75000 0.06250
vt 0.75000 0.12500
vt 0.87500 0.12500
vt 0.87500 0.06250
vt 0.93750 0.06250
vt 0.93750 0.12500
vt 0.06250 0.31250
vt 0.06250 0.25000
vt 0.12500 0.25000
vt 0.12500 0.31250
vt 0.25000 0.31250
vt 0.25000 0.25000
vt 0.31250 0.25000
vt 0.31250 0.31250
vt 0.43750 0.31250
vt 0.43750 0.25000
vt 0.50000 0.25000
vt 0.50000 0.31250
vt 0.62500 0.31250
vt 0.62500 0.25000
vt 0.68750 0.25000
vt 0.68750 0.31250
vt 0.81250 0.31250
vt 0.81250 0.25000
vt 0.87500 0.25000
vt 0.87500 0.31250
vt 0.06250 0.50000
vt 0.06250 0.43750
vt 0.12500 0.43750
vt 0.12500 0.50000
vt 0.25000 0.50000
vt 0.25000 0.43750
vt 0.31250 0.43750
vt 0.31250 0.50000
vt 0.43750 0.50000
vt 0.43750 0.43750
vt 0.50000 0.43750
vt 0.50000 0.50000
vt 0.62500 0.50000
vt 0.62500 0.43750
vt 0.68750 0.43750
vt 0.68750 0.50000
vt 0.81250 0.50000
vt 0.81250 0.43750
vt 0.87500 0.43750
vt 0.87500 0.50000
vt 0.06250 0.68750
vt 0.06250 0.62500
vt 0.12500 0.62500
vt 0.12500 0.68750
vt 0.25000 0.68750
vt 0.25000 0.62500
vt 0.31250 0.62500
vt 0.31250 0.68750
vt 0.43750 0.68750
vt 0.43750 0.62500
vt 0.50000 0.62500
vt 0.50000 0.68750
vt 0.62500 0.68750
vt 0.62500 0.62500
vt 0.68750 0.62500
vt 0.68750 0.68750

g PlumpStandardMushroom_15
usemtl flower6_Material
f  1/33/2 2/34/2 3/35/2 4/36/2
f  5/29/2 6/30/2 7/31/2 8/32/2
f  9/25/2 10/26/2 11/27/2 12/28/2
f  13/37/1 14/38/1 15/39/1 16/40/1
f  17/13/1 18/14/1 19/15/1 20/16/1
f  21/9/1 22/10/1 23/11/1 24/12/1
f  4/21/3 3/22/3 14/23/3 13/24/3
f  8/17/3 7/18/3 2/19/3 1/20/3
f  16/61/3 15/62/3 18/63/3 17/64/3
f  12/57/4 11/58/4 6/59/4 5/60/4
f  20/69/4 19/70/4 22/71/4 21/72/4
f  24/65/4 23/66/4 10/67/4 9/68/4
f  4/5/5 13/6/5 24/7/5 9/8/5
f  8/45/5 1/46/5 12/47/5 5/48/5
f  16/41/5 17/42/5 20/43/5 21/44/5
f  14/1/6 3/2/6 10/3/6 23/4/6
f  2/53/6 7/54/6 6/55/6 11/56/6
f  18/49/6 15/50/6 22/51/6 19/52/6
