# This file was created with Minddesk Qubicle 2.0
# Get Qubicle at www.minddesk.com

mtllib hotdogstand.mtl

vn 0.0 0.0 1.0
vn 0.0 0.0 -1.0
vn -1.0 0.0 0.0
vn 1.0 0.0 0.0
vn 0.0 1.0 0.0
vn 0.0 -1.0 0.0

v 11.50000 -2.00000 -15.00000
v 11.50000 -14.00000 -15.00000
v -10.50000 -14.00000 -15.00000
v -10.50000 -2.00000 -15.00000
v 10.50000 13.00000 -15.00000
v 10.50000 11.00000 -15.00000
v -10.50000 11.00000 -15.00000
v -10.50000 13.00000 -15.00000
v 10.50000 13.00000 -2.00000
v 10.50000 11.00000 -2.00000
v -10.50000 11.00000 -2.00000
v -10.50000 13.00000 -2.00000
v -10.50000 14.00000 -15.00000
v -11.50000 -14.00000 -15.00000
v -11.50000 14.00000 -15.00000
v 11.50000 14.00000 -15.00000
v 11.50000 13.00000 -15.00000
v -10.50000 -2.00000 -2.00000
v -11.50000 -2.00000 -2.00000
v -11.50000 11.00000 -2.00000
v 10.50000 -2.00000 -15.00000
v 11.50000 11.00000 -2.00000
v 11.50000 -2.00000 -2.00000
v 10.50000 -2.00000 -2.00000
v -6.50000 -3.00000 -8.00000
v -6.50000 -4.00000 -8.00000
v -9.50000 -4.00000 -8.00000
v -9.50000 -3.00000 -8.00000
v -6.50000 -3.00000 -2.00000
v -6.50000 -4.00000 -2.00000
v -9.50000 -4.00000 -2.00000
v -9.50000 -3.00000 -2.00000
v -2.50000 -3.00000 -8.00000
v -2.50000 -4.00000 -8.00000
v -5.50000 -4.00000 -8.00000
v -5.50000 -3.00000 -8.00000
v -2.50000 -3.00000 -2.00000
v -2.50000 -4.00000 -2.00000
v -5.50000 -4.00000 -2.00000
v -5.50000 -3.00000 -2.00000
v 1.50000 -3.00000 -8.00000
v 1.50000 -4.00000 -8.00000
v -1.50000 -4.00000 -8.00000
v -1.50000 -3.00000 -8.00000
v 1.50000 -3.00000 -2.00000
v 1.50000 -4.00000 -2.00000
v -1.50000 -4.00000 -2.00000
v -1.50000 -3.00000 -2.00000
v 5.50000 -3.00000 -8.00000
v 5.50000 -4.00000 -8.00000
v 2.50000 -4.00000 -8.00000
v 2.50000 -3.00000 -8.00000
v 5.50000 -3.00000 -2.00000
v 5.50000 -4.00000 -2.00000
v 2.50000 -4.00000 -2.00000
v 2.50000 -3.00000 -2.00000
v 9.50000 -3.00000 -8.00000
v 9.50000 -4.00000 -8.00000
v 6.50000 -4.00000 -8.00000
v 6.50000 -3.00000 -8.00000
v 9.50000 -3.00000 -2.00000
v 9.50000 -4.00000 -2.00000
v 6.50000 -4.00000 -2.00000
v 6.50000 -3.00000 -2.00000
v -10.50000 14.00000 -1.00000
v -10.50000 11.00000 -1.00000
v 11.50000 11.00000 -1.00000
v 11.50000 14.00000 -1.00000
v -7.50000 -11.00000 -1.00000
v -7.50000 -14.00000 -1.00000
v 11.50000 -14.00000 -1.00000
v 11.50000 -11.00000 -1.00000
v -10.50000 13.00000 -14.00000
v -10.50000 11.00000 -14.00000
v 10.50000 11.00000 -14.00000
v 10.50000 13.00000 -14.00000
v -7.50000 -7.00000 0.00000
v -7.50000 -11.00000 0.00000
v 7.50000 -11.00000 0.00000
v 7.50000 -7.00000 0.00000
v -11.50000 14.00000 -1.00000
v -11.50000 -14.00000 -1.00000
v -10.50000 -14.00000 -1.00000
v -10.50000 -3.00000 -1.00000
v -10.50000 -4.00000 -1.00000
v 11.50000 -4.00000 -1.00000
v 11.50000 -3.00000 -1.00000
v -10.50000 -2.00000 -14.00000
v -10.50000 -3.00000 -14.00000
v 10.50000 -3.00000 -14.00000
v 10.50000 -2.00000 -14.00000
v -9.50000 -4.00000 -1.00000
v -9.50000 -5.00000 -1.00000
v 11.50000 -5.00000 -1.00000
v -5.50000 -5.00000 0.00000
v -5.50000 -7.00000 0.00000
v 5.50000 -7.00000 0.00000
v 5.50000 -5.00000 0.00000
v -11.50000 11.00000 -14.00000
v -11.50000 -2.00000 -14.00000
v -9.50000 -14.00000 -1.00000
v 10.50000 11.00000 -1.00000
v 10.50000 -3.00000 -1.00000
v 11.50000 -2.00000 -14.00000
v 11.50000 11.00000 -14.00000
v -9.50000 -10.00000 -1.00000
v -7.50000 -10.00000 -1.00000
v 5.50000 -5.00000 -1.00000
v 5.50000 -6.00000 -1.00000
v 11.50000 -6.00000 -1.00000
v -9.50000 -3.00000 -13.00000
v -9.50000 -4.00000 -13.00000
v -6.50000 -4.00000 -13.00000
v -6.50000 -3.00000 -13.00000
v -9.50000 -3.00000 -7.00000
v -9.50000 -4.00000 -7.00000
v -6.50000 -4.00000 -7.00000
v -6.50000 -3.00000 -7.00000
v -8.50000 -6.00000 0.00000
v -8.50000 -10.00000 0.00000
v -7.50000 -10.00000 0.00000
v -7.50000 -6.00000 0.00000
v -8.50000 -5.00000 -1.00000
v -8.50000 -6.00000 -1.00000
v -5.50000 -6.00000 -1.00000
v -5.50000 -5.00000 -1.00000
v -5.50000 -3.00000 -13.00000
v -5.50000 -4.00000 -13.00000
v -2.50000 -4.00000 -13.00000
v -2.50000 -3.00000 -13.00000
v -5.50000 -3.00000 -7.00000
v -5.50000 -4.00000 -7.00000
v -2.50000 -4.00000 -7.00000
v -2.50000 -3.00000 -7.00000
v -1.50000 -3.00000 -13.00000
v -1.50000 -4.00000 -13.00000
v 1.50000 -4.00000 -13.00000
v 1.50000 -3.00000 -13.00000
v -1.50000 -3.00000 -7.00000
v -1.50000 -4.00000 -7.00000
v 1.50000 -4.00000 -7.00000
v 1.50000 -3.00000 -7.00000
v 2.50000 -3.00000 -13.00000
v 2.50000 -4.00000 -13.00000
v 5.50000 -4.00000 -13.00000
v 5.50000 -3.00000 -13.00000
v 2.50000 -3.00000 -7.00000
v 2.50000 -4.00000 -7.00000
v 5.50000 -4.00000 -7.00000
v 5.50000 -3.00000 -7.00000
v 6.50000 -3.00000 -13.00000
v 6.50000 -4.00000 -13.00000
v 9.50000 -4.00000 -13.00000
v 9.50000 -3.00000 -13.00000
v 6.50000 -3.00000 -7.00000
v 6.50000 -4.00000 -7.00000
v 9.50000 -4.00000 -7.00000
v 9.50000 -3.00000 -7.00000
v 7.50000 -10.00000 -1.00000
v 7.50000 -11.00000 -1.00000
v 11.50000 -10.00000 -1.00000
v 7.50000 -6.00000 0.00000
v 7.50000 -10.00000 0.00000
v 8.50000 -10.00000 0.00000
v 8.50000 -6.00000 0.00000
v 10.50000 -6.00000 -1.00000
v 10.50000 -10.00000 -1.00000
v -9.50000 -7.00000 0.00000
v -9.50000 -9.00000 0.00000
v -8.50000 -9.00000 0.00000
v -8.50000 -7.00000 0.00000
v -9.50000 -7.00000 -1.00000
v -8.50000 -7.00000 -1.00000
v -5.50000 -6.00000 0.00000
v 5.50000 -6.00000 0.00000
v 8.50000 -9.00000 -1.00000
v 8.50000 -10.00000 -1.00000
v 10.50000 -9.00000 -1.00000
v 8.50000 -7.00000 0.00000
v 8.50000 -9.00000 0.00000
v 9.50000 -9.00000 0.00000
v 9.50000 -7.00000 0.00000
v 8.50000 -6.00000 -1.00000
v 8.50000 -7.00000 -1.00000
v 10.50000 -7.00000 -1.00000
v 9.50000 -7.00000 -1.00000
v 9.50000 -9.00000 -1.00000
v -9.50000 -9.00000 -1.00000
v -8.50000 -10.00000 -1.00000
v -8.50000 -9.00000 -1.00000
v -11.50000 -2.00000 -15.00000
v -11.50000 -2.00000 -1.00000
v -11.50000 12.00000 -15.00000
v -11.50000 12.00000 -1.00000
v -11.50000 12.00000 -14.00000
v -11.50000 12.00000 -2.00000
v 10.50000 -3.00000 -2.00000
v 11.50000 -2.00000 -1.00000
v 11.50000 12.00000 -1.00000
v 11.50000 12.00000 -15.00000
v -10.50000 -3.00000 -2.00000
v 11.50000 12.00000 -14.00000
v 11.50000 12.00000 -2.00000
v -9.50000 -3.00000 -14.00000
v 10.50000 -3.00000 -13.00000
v 10.50000 -3.00000 -7.00000
v 10.50000 -3.00000 -8.00000
v -5.50000 -3.00000 -1.00000
v -6.50000 -3.00000 -1.00000

vt 0.00781 0.45313
vt 0.00781 0.01563
vt 0.01563 0.01563
vt 0.01563 0.45313
vt 0.03125 0.45313
vt 0.03125 0.01563
vt 0.03906 0.01563
vt 0.03906 0.45313
vt 0.05469 0.25000
vt 0.05469 0.01563
vt 0.06250 0.01563
vt 0.06250 0.25000
vt 0.07813 0.23438
vt 0.07813 0.01563
vt 0.25781 0.01563
vt 0.25781 0.23438
vt 0.27344 0.23438
vt 0.27344 0.01563
vt 0.45313 0.01563
vt 0.45313 0.23438
vt 0.46875 0.23438
vt 0.46875 0.01563
vt 0.47656 0.01563
vt 0.47656 0.23438
vt 0.49219 0.23438
vt 0.49219 0.01563
vt 0.50000 0.01563
vt 0.50000 0.23438
vt 0.51563 0.23438
vt 0.51563 0.01563
vt 0.52344 0.01563
vt 0.52344 0.23438
vt 0.53906 0.23438
vt 0.53906 0.01563
vt 0.54688 0.01563
vt 0.54688 0.23438
vt 0.56250 0.23438
vt 0.56250 0.01563
vt 0.57031 0.01563
vt 0.57031 0.23438
vt 0.58594 0.23438
vt 0.58594 0.01563
vt 0.59375 0.01563
vt 0.59375 0.23438
vt 0.60938 0.23438
vt 0.60938 0.01563
vt 0.61719 0.01563
vt 0.61719 0.23438
vt 0.63281 0.21875
vt 0.63281 0.01563
vt 0.64063 0.01563
vt 0.64063 0.21875
vt 0.65625 0.21875
vt 0.65625 0.01563
vt 0.66406 0.01563
vt 0.66406 0.21875
vt 0.67969 0.21875
vt 0.67969 0.01563
vt 0.68750 0.01563
vt 0.68750 0.21875
vt 0.70313 0.21875
vt 0.70313 0.01563
vt 0.71094 0.01563
vt 0.71094 0.21875
vt 0.72656 0.21875
vt 0.72656 0.01563
vt 0.73438 0.01563
vt 0.73438 0.21875
vt 0.75000 0.21875
vt 0.75000 0.01563
vt 0.75781 0.01563
vt 0.75781 0.21875
vt 0.77344 0.20313
vt 0.77344 0.01563
vt 0.94531 0.01563
vt 0.94531 0.20313
vt 0.00781 0.67188
vt 0.00781 0.48438
vt 0.17188 0.48438
vt 0.17188 0.67188
vt 0.18750 0.67188
vt 0.18750 0.48438
vt 0.29688 0.48438
vt 0.29688 0.67188
vt 0.31250 0.67188
vt 0.31250 0.48438
vt 0.42188 0.48438
vt 0.42188 0.67188
vt 0.96094 0.20313
vt 0.96094 0.01563
vt 0.96875 0.01563
vt 0.96875 0.20313
vt 0.98438 0.20313
vt 0.98438 0.01563
vt 0.99219 0.01563
vt 0.99219 0.20313
vt 0.43750 0.67188
vt 0.43750 0.48438
vt 0.44531 0.48438
vt 0.44531 0.67188
vt 0.46094 0.67188
vt 0.46094 0.48438
vt 0.46875 0.48438
vt 0.46875 0.67188
vt 0.48438 0.67188
vt 0.48438 0.48438
vt 0.49219 0.48438
vt 0.49219 0.67188
vt 0.05469 0.43750
vt 0.05469 0.28125
vt 0.06250 0.28125
vt 0.06250 0.43750
vt 0.07813 0.37500
vt 0.07813 0.28125
vt 0.08594 0.28125
vt 0.08594 0.37500
vt 0.10156 0.35938
vt 0.10156 0.28125
vt 0.12500 0.28125
vt 0.12500 0.35938
vt 0.14063 0.35938
vt 0.14063 0.28125
vt 0.16406 0.28125
vt 0.16406 0.35938
vt 0.17969 0.35938
vt 0.17969 0.28125
vt 0.20313 0.28125
vt 0.20313 0.35938
vt 0.21875 0.35938
vt 0.21875 0.28125
vt 0.24219 0.28125
vt 0.24219 0.35938
vt 0.25781 0.35938
vt 0.25781 0.28125
vt 0.28125 0.28125
vt 0.28125 0.35938
vt 0.29688 0.35938
vt 0.29688 0.28125
vt 0.32031 0.28125
vt 0.32031 0.35938
vt 0.33594 0.35938
vt 0.33594 0.28125
vt 0.35938 0.28125
vt 0.35938 0.35938
vt 0.37500 0.35938
vt 0.37500 0.28125
vt 0.39844 0.28125
vt 0.39844 0.35938
vt 0.41406 0.35938
vt 0.41406 0.28125
vt 0.43750 0.28125
vt 0.43750 0.35938
vt 0.45313 0.35938
vt 0.45313 0.28125
vt 0.47656 0.28125
vt 0.47656 0.35938
vt 0.49219 0.35938
vt 0.49219 0.28125
vt 0.50000 0.28125
vt 0.50000 0.35938
vt 0.51563 0.35938
vt 0.51563 0.28125
vt 0.52344 0.28125
vt 0.52344 0.35938
vt 0.53906 0.35938
vt 0.53906 0.28125
vt 0.54688 0.28125
vt 0.54688 0.35938
vt 0.56250 0.35938
vt 0.56250 0.28125
vt 0.57031 0.28125
vt 0.57031 0.35938
vt 0.58594 0.35938
vt 0.58594 0.28125
vt 0.59375 0.28125
vt 0.59375 0.35938
vt 0.60938 0.35938
vt 0.60938 0.28125
vt 0.61719 0.28125
vt 0.61719 0.35938
vt 0.63281 0.35938
vt 0.63281 0.28125
vt 0.64063 0.28125
vt 0.64063 0.35938
vt 0.65625 0.35938
vt 0.65625 0.28125
vt 0.66406 0.28125
vt 0.66406 0.35938
vt 0.67969 0.35938
vt 0.67969 0.28125
vt 0.68750 0.28125
vt 0.68750 0.35938
vt 0.70313 0.34375
vt 0.70313 0.28125
vt 0.82031 0.28125
vt 0.82031 0.34375
vt 0.83594 0.34375
vt 0.83594 0.28125
vt 0.85156 0.28125
vt 0.85156 0.34375
vt 0.86719 0.34375
vt 0.86719 0.28125
vt 0.87500 0.28125
vt 0.87500 0.34375
vt 0.89063 0.34375
vt 0.89063 0.28125
vt 0.89844 0.28125
vt 0.89844 0.34375
vt 0.91406 0.34375
vt 0.91406 0.28125
vt 0.92188 0.28125
vt 0.92188 0.34375
vt 0.50781 0.53125
vt 0.50781 0.48438
vt 0.67969 0.48438
vt 0.67969 0.53125
vt 0.69531 0.53125
vt 0.69531 0.48438
vt 0.84375 0.48438
vt 0.84375 0.53125
vt 0.07813 0.43750
vt 0.07813 0.40625
vt 0.24219 0.40625
vt 0.24219 0.43750
vt 0.25781 0.43750
vt 0.25781 0.40625
vt 0.42188 0.40625
vt 0.42188 0.43750
vt 0.43750 0.43750
vt 0.43750 0.40625
vt 0.60156 0.40625
vt 0.60156 0.43750
vt 0.61719 0.43750
vt 0.61719 0.40625
vt 0.72656 0.40625
vt 0.72656 0.43750
vt 0.74219 0.43750
vt 0.74219 0.40625
vt 0.85156 0.40625
vt 0.85156 0.43750
vt 0.86719 0.43750
vt 0.86719 0.40625
vt 0.96094 0.40625
vt 0.96094 0.43750
vt 0.85938 0.51563
vt 0.85938 0.48438
vt 0.95313 0.48438
vt 0.95313 0.51563
vt 0.50781 0.59375
vt 0.50781 0.56250
vt 0.59375 0.56250
vt 0.59375 0.59375
vt 0.93750 0.31250
vt 0.93750 0.28125
vt 0.94531 0.28125
vt 0.94531 0.31250
vt 0.96094 0.31250
vt 0.96094 0.28125
vt 0.96875 0.28125
vt 0.96875 0.31250
vt 0.98438 0.31250
vt 0.98438 0.28125
vt 0.99219 0.28125
vt 0.99219 0.31250
vt 0.97656 0.43750
vt 0.97656 0.40625
vt 0.98438 0.40625
vt 0.98438 0.43750
vt 0.96875 0.51563
vt 0.96875 0.48438
vt 0.97656 0.48438
vt 0.97656 0.51563
vt 0.60938 0.59375
vt 0.60938 0.56250
vt 0.61719 0.56250
vt 0.61719 0.59375
vt 0.63281 0.57813
vt 0.63281 0.56250
vt 0.80469 0.56250
vt 0.80469 0.57813
vt 0.82031 0.57813
vt 0.82031 0.56250
vt 0.99219 0.56250
vt 0.99219 0.57813
vt 0.50781 0.64063
vt 0.50781 0.62500
vt 0.67188 0.62500
vt 0.67188 0.64063
vt 0.68750 0.64063
vt 0.68750 0.62500
vt 0.85156 0.62500
vt 0.85156 0.64063
vt 0.00781 0.71875
vt 0.00781 0.70313
vt 0.17188 0.70313
vt 0.17188 0.71875
vt 0.18750 0.71875
vt 0.18750 0.70313
vt 0.35156 0.70313
vt 0.35156 0.71875
vt 0.36719 0.71875
vt 0.36719 0.70313
vt 0.53125 0.70313
vt 0.53125 0.71875
vt 0.54688 0.71875
vt 0.54688 0.70313
vt 0.70313 0.70313
vt 0.70313 0.71875
vt 0.71875 0.71875
vt 0.71875 0.70313
vt 0.87500 0.70313
vt 0.87500 0.71875
vt 0.86719 0.64063
vt 0.86719 0.62500
vt 0.99219 0.62500
vt 0.99219 0.64063
vt 0.00781 0.76563
vt 0.00781 0.75000
vt 0.12500 0.75000
vt 0.12500 0.76563
vt 0.89063 0.71875
vt 0.89063 0.70313
vt 0.98438 0.70313
vt 0.98438 0.71875
vt 0.14063 0.76563
vt 0.14063 0.75000
vt 0.23438 0.75000
vt 0.23438 0.76563
vt 0.25000 0.76563
vt 0.25000 0.75000
vt 0.34375 0.75000
vt 0.34375 0.76563
vt 0.35938 0.76563
vt 0.35938 0.75000
vt 0.45313 0.75000
vt 0.45313 0.76563
vt 0.46875 0.76563
vt 0.46875 0.75000
vt 0.55469 0.75000
vt 0.55469 0.76563
vt 0.57031 0.76563
vt 0.57031 0.75000
vt 0.61719 0.75000
vt 0.61719 0.76563
vt 0.63281 0.76563
vt 0.63281 0.75000
vt 0.67188 0.75000
vt 0.67188 0.76563
vt 0.68750 0.76563
vt 0.68750 0.75000
vt 0.72656 0.75000
vt 0.72656 0.76563
vt 0.74219 0.76563
vt 0.74219 0.75000
vt 0.78125 0.75000
vt 0.78125 0.76563
vt 0.79688 0.76563
vt 0.79688 0.75000
vt 0.83594 0.75000
vt 0.83594 0.76563
vt 0.85156 0.76563
vt 0.85156 0.75000
vt 0.89063 0.75000
vt 0.89063 0.76563
vt 0.90625 0.76563
vt 0.90625 0.75000
vt 0.94531 0.75000
vt 0.94531 0.76563
vt 0.00781 0.81250
vt 0.00781 0.79688
vt 0.04688 0.79688
vt 0.04688 0.81250
vt 0.06250 0.81250
vt 0.06250 0.79688
vt 0.10156 0.79688
vt 0.10156 0.81250
vt 0.11719 0.81250
vt 0.11719 0.79688
vt 0.15625 0.79688
vt 0.15625 0.81250
vt 0.17188 0.81250
vt 0.17188 0.79688
vt 0.21094 0.79688
vt 0.21094 0.81250
vt 0.22656 0.81250
vt 0.22656 0.79688
vt 0.26563 0.79688
vt 0.26563 0.81250
vt 0.28125 0.81250
vt 0.28125 0.79688
vt 0.32031 0.79688
vt 0.32031 0.81250
vt 0.33594 0.81250
vt 0.33594 0.79688
vt 0.37500 0.79688
vt 0.37500 0.81250
vt 0.39063 0.81250
vt 0.39063 0.79688
vt 0.42969 0.79688
vt 0.42969 0.81250
vt 0.44531 0.81250
vt 0.44531 0.79688
vt 0.48438 0.79688
vt 0.48438 0.81250
vt 0.50000 0.81250
vt 0.50000 0.79688
vt 0.53906 0.79688
vt 0.53906 0.81250
vt 0.55469 0.81250
vt 0.55469 0.79688
vt 0.59375 0.79688
vt 0.59375 0.81250
vt 0.60938 0.81250
vt 0.60938 0.79688
vt 0.64844 0.79688
vt 0.64844 0.81250
vt 0.66406 0.81250
vt 0.66406 0.79688
vt 0.70313 0.79688
vt 0.70313 0.81250
vt 0.71875 0.81250
vt 0.71875 0.79688
vt 0.75781 0.79688
vt 0.75781 0.81250
vt 0.96094 0.76563
vt 0.96094 0.75000
vt 0.99219 0.75000
vt 0.99219 0.76563
vt 0.77344 0.81250
vt 0.77344 0.79688
vt 0.80469 0.79688
vt 0.80469 0.81250
vt 0.82031 0.81250
vt 0.82031 0.79688
vt 0.84375 0.79688
vt 0.84375 0.81250
vt 0.85938 0.81250
vt 0.85938 0.79688
vt 0.88281 0.79688
vt 0.88281 0.81250
vt 0.89844 0.81250
vt 0.89844 0.79688
vt 0.92188 0.79688
vt 0.92188 0.81250
vt 0.93750 0.81250
vt 0.93750 0.79688
vt 0.96094 0.79688
vt 0.96094 0.81250
vt 0.00781 0.85938
vt 0.00781 0.84375
vt 0.03125 0.84375
vt 0.03125 0.85938
vt 0.04688 0.85938
vt 0.04688 0.84375
vt 0.07031 0.84375
vt 0.07031 0.85938
vt 0.08594 0.85938
vt 0.08594 0.84375
vt 0.10938 0.84375
vt 0.10938 0.85938
vt 0.12500 0.85938
vt 0.12500 0.84375
vt 0.14844 0.84375
vt 0.14844 0.85938
vt 0.16406 0.85938
vt 0.16406 0.84375
vt 0.18750 0.84375
vt 0.18750 0.85938
vt 0.20313 0.85938
vt 0.20313 0.84375
vt 0.22656 0.84375
vt 0.22656 0.85938
vt 0.24219 0.85938
vt 0.24219 0.84375
vt 0.26563 0.84375
vt 0.26563 0.85938
vt 0.28125 0.85938
vt 0.28125 0.84375
vt 0.30469 0.84375
vt 0.30469 0.85938
vt 0.32031 0.85938
vt 0.32031 0.84375
vt 0.34375 0.84375
vt 0.34375 0.85938
vt 0.35938 0.85938
vt 0.35938 0.84375
vt 0.38281 0.84375
vt 0.38281 0.85938
vt 0.39844 0.85938
vt 0.39844 0.84375
vt 0.42188 0.84375
vt 0.42188 0.85938
vt 0.43750 0.85938
vt 0.43750 0.84375
vt 0.46094 0.84375
vt 0.46094 0.85938
vt 0.47656 0.85938
vt 0.47656 0.84375
vt 0.50000 0.84375
vt 0.50000 0.85938
vt 0.51563 0.85938
vt 0.51563 0.84375
vt 0.53906 0.84375
vt 0.53906 0.85938
vt 0.55469 0.85938
vt 0.55469 0.84375
vt 0.57813 0.84375
vt 0.57813 0.85938
vt 0.59375 0.85938
vt 0.59375 0.84375
vt 0.61719 0.84375
vt 0.61719 0.85938
vt 0.63281 0.85938
vt 0.63281 0.84375
vt 0.65625 0.84375
vt 0.65625 0.85938
vt 0.67188 0.85938
vt 0.67188 0.84375
vt 0.69531 0.84375
vt 0.69531 0.85938
vt 0.71094 0.85938
vt 0.71094 0.84375
vt 0.73438 0.84375
vt 0.73438 0.85938
vt 0.97656 0.81250
vt 0.97656 0.79688
vt 0.99219 0.79688
vt 0.99219 0.81250
vt 0.75000 0.85938
vt 0.75000 0.84375
vt 0.76563 0.84375
vt 0.76563 0.85938
vt 0.78125 0.85938
vt 0.78125 0.84375
vt 0.79688 0.84375
vt 0.79688 0.85938
vt 0.81250 0.85938
vt 0.81250 0.84375
vt 0.82813 0.84375
vt 0.82813 0.85938
vt 0.84375 0.85938
vt 0.84375 0.84375
vt 0.85156 0.84375
vt 0.85156 0.85938
vt 0.86719 0.85938
vt 0.86719 0.84375
vt 0.87500 0.84375
vt 0.87500 0.85938
vt 0.89063 0.85938
vt 0.89063 0.84375
vt 0.89844 0.84375
vt 0.89844 0.85938
vt 0.91406 0.85938
vt 0.91406 0.84375
vt 0.92188 0.84375
vt 0.92188 0.85938
vt 0.93750 0.85938
vt 0.93750 0.84375
vt 0.94531 0.84375
vt 0.94531 0.85938
vt 0.96094 0.85938
vt 0.96094 0.84375
vt 0.96875 0.84375
vt 0.96875 0.85938
vt 0.98438 0.85938
vt 0.98438 0.84375
vt 0.99219 0.84375
vt 0.99219 0.85938
vt 0.00781 0.90625
vt 0.00781 0.89063
vt 0.01563 0.89063
vt 0.01563 0.90625
vt 0.03125 0.90625
vt 0.03125 0.89063
vt 0.03906 0.89063
vt 0.03906 0.90625
vt 0.05469 0.90625
vt 0.05469 0.89063
vt 0.06250 0.89063
vt 0.06250 0.90625
vt 0.07813 0.90625
vt 0.07813 0.89063
vt 0.08594 0.89063
vt 0.08594 0.90625
vt 0.10156 0.90625
vt 0.10156 0.89063
vt 0.10938 0.89063
vt 0.10938 0.90625
vt 0.12500 0.90625
vt 0.12500 0.89063
vt 0.13281 0.89063
vt 0.13281 0.90625
vt 0.14844 0.90625
vt 0.14844 0.89063
vt 0.15625 0.89063
vt 0.15625 0.90625
vt 0.17188 0.90625
vt 0.17188 0.89063
vt 0.17969 0.89063
vt 0.17969 0.90625

g Box_69
usemtl hotdogstand_Material
f  1/73/2 2/74/2 3/75/2 4/76/2
f  5/229/2 6/230/2 7/231/2 8/232/2
f  9/221/2 10/222/2 11/223/2 12/224/2
f  13/1/2 3/2/2 14/3/2 15/4/2
f  16/277/2 17/278/2 8/279/2 13/280/2
f  11/69/2 18/70/2 19/71/2 20/72/2
f  17/9/2 1/10/2 21/11/2 5/12/2
f  22/57/2 23/58/2 24/59/2 10/60/2
f  25/433/2 26/434/2 27/435/2 28/436/2
f  29/465/2 30/466/2 31/467/2 32/468/2
f  33/461/2 34/462/2 35/463/2 36/464/2
f  37/457/2 38/458/2 39/459/2 40/460/2
f  41/469/2 42/470/2 43/471/2 44/472/2
f  45/481/2 46/482/2 47/483/2 48/484/2
f  49/477/2 50/478/2 51/479/2 52/480/2
f  53/473/2 54/474/2 55/475/2 56/476/2
f  57/453/2 58/454/2 59/455/2 60/456/2
f  61/437/2 62/438/2 63/439/2 64/440/2
f  65/213/1 66/214/1 67/215/1 68/216/1
f  69/217/1 70/218/1 71/219/1 72/220/1
f  73/225/1 74/226/1 75/227/1 76/228/1
f  77/193/1 78/194/1 79/195/1 80/196/1
f  81/5/1 82/6/1 83/7/1 65/8/1
f  84/281/1 85/282/1 86/283/1 87/284/1
f  88/289/1 89/290/1 90/291/1 91/292/1
f  92/285/1 93/286/1 94/287/1 86/288/1
f  95/249/1 96/250/1 97/251/1 98/252/1
f  99/53/1 100/54/1 88/55/1 74/56/1
f  85/109/1 83/110/1 101/111/1 92/112/1
f  102/45/1 103/46/1 87/47/1 67/48/1
f  75/49/1 91/50/1 104/51/1 105/52/1
f  106/197/1 101/198/1 70/199/1 107/200/1
f  108/341/1 109/342/1 110/343/1 94/344/1
f  111/521/1 112/522/1 113/523/1 114/524/1
f  115/493/1 116/494/1 117/495/1 118/496/1
f  119/209/1 120/210/1 121/211/1 122/212/1
f  123/497/1 124/498/1 125/499/1 126/500/1
f  127/485/1 128/486/1 129/487/1 130/488/1
f  131/489/1 132/490/1 133/491/1 134/492/1
f  135/501/1 136/502/1 137/503/1 138/504/1
f  139/513/1 140/514/1 141/515/1 142/516/1
f  143/517/1 144/518/1 145/519/1 146/520/1
f  147/505/1 148/506/1 149/507/1 150/508/1
f  151/509/1 152/510/1 153/511/1 154/512/1
f  155/441/1 156/442/1 157/443/1 158/444/1
f  159/425/1 160/426/1 72/427/1 161/428/1
f  162/205/1 163/206/1 164/207/1 165/208/1
f  166/201/1 167/202/1 161/203/1 110/204/1
f  168/269/1 169/270/1 170/271/1 171/272/1
f  93/265/1 172/266/1 173/267/1 123/268/1
f  122/533/1 77/534/1 96/535/1 174/536/1
f  175/529/1 97/530/1 80/531/1 162/532/1
f  176/525/1 177/526/1 167/527/1 178/528/1
f  179/253/1 180/254/1 181/255/1 182/256/1
f  183/537/1 184/538/1 185/539/1 166/540/1
f  186/257/1 187/258/1 178/259/1 185/260/1
f  188/577/1 106/578/1 189/579/1 190/580/1
f  191/85/3 14/86/3 82/87/3 192/88/3
f  15/237/3 193/238/3 194/239/3 81/240/3
f  76/245/3 75/246/3 10/247/3 9/248/3
f  193/41/3 191/42/3 100/43/3 195/44/3
f  196/21/3 19/22/3 192/23/3 194/24/3
f  195/329/3 99/330/3 20/331/3 196/332/3
f  91/321/3 90/322/3 197/323/3 24/324/3
f  10/33/3 197/34/3 103/35/3 102/36/3
f  6/61/3 21/62/3 91/63/3 75/64/3
f  114/409/3 113/410/3 26/411/3 25/412/3
f  118/405/3 117/406/3 30/407/3 29/408/3
f  130/417/3 129/418/3 34/419/3 33/420/3
f  134/413/3 133/414/3 38/415/3 37/416/3
f  138/393/3 137/394/3 42/395/3 41/396/3
f  142/389/3 141/390/3 46/391/3 45/392/3
f  146/401/3 145/402/3 50/403/3 49/404/3
f  150/397/3 149/398/3 54/399/3 53/400/3
f  154/421/3 153/422/3 58/423/3 57/424/3
f  158/357/3 157/358/3 62/359/3 61/360/3
f  172/273/3 188/274/3 169/275/3 168/276/3
f  190/581/3 189/582/3 120/583/3 170/584/3
f  124/569/3 173/570/3 171/571/3 119/572/3
f  107/565/3 69/566/3 78/567/3 121/568/3
f  126/573/3 125/574/3 174/575/3 95/576/3
f  198/81/4 71/82/4 2/83/4 1/84/4
f  12/241/4 11/242/4 74/243/4 73/244/4
f  68/233/4 199/234/4 200/235/4 16/236/4
f  18/325/4 201/326/4 89/327/4 88/328/4
f  66/37/4 84/38/4 201/39/4 11/40/4
f  74/65/4 88/66/4 4/67/4 7/68/4
f  202/25/4 104/26/4 1/27/4 200/28/4
f  199/29/4 198/30/4 23/31/4 203/32/4
f  203/333/4 22/334/4 105/335/4 202/336/4
f  28/361/4 27/362/4 112/363/4 111/364/4
f  32/353/4 31/354/4 116/355/4 115/356/4
f  36/345/4 35/346/4 128/347/4 127/348/4
f  40/349/4 39/350/4 132/351/4 131/352/4
f  44/365/4 43/366/4 136/367/4 135/368/4
f  48/381/4 47/382/4 140/383/4 139/384/4
f  52/385/4 51/386/4 144/387/4 143/388/4
f  56/377/4 55/378/4 148/379/4 147/380/4
f  60/369/4 59/370/4 152/371/4 151/372/4
f  64/373/4 63/374/4 156/375/4 155/376/4
f  182/261/4 181/262/4 187/263/4 186/264/4
f  98/593/4 175/594/4 109/595/4 108/596/4
f  163/597/4 79/598/4 160/599/4 159/600/4
f  180/585/4 164/586/4 177/587/4 176/588/4
f  165/589/4 179/590/4 184/591/4 183/592/4
f  15/17/5 81/18/5 68/19/5 16/20/5
f  4/293/5 88/294/5 91/295/5 21/296/5
f  112/129/5 27/130/5 26/131/5 113/132/5
f  116/133/5 31/134/5 30/135/5 117/136/5
f  204/309/5 111/310/5 205/311/5 90/312/5
f  28/305/5 115/306/5 206/307/5 207/308/5
f  128/137/5 35/138/5 34/139/5 129/140/5
f  132/117/5 39/118/5 38/119/5 133/120/5
f  136/125/5 43/126/5 42/127/5 137/128/5
f  140/121/5 47/122/5 46/123/5 141/124/5
f  144/149/5 51/150/5 50/151/5 145/152/5
f  148/153/5 55/154/5 54/155/5 149/156/5
f  152/141/5 59/142/5 58/143/5 153/144/5
f  156/145/5 63/146/5 62/147/5 157/148/5
f  100/101/5 19/102/5 18/103/5 88/104/5
f  89/97/5 201/98/5 32/99/5 204/100/5
f  126/337/5 95/338/5 98/339/5 108/340/5
f  40/313/5 208/314/5 103/315/5 197/316/5
f  91/89/5 24/90/5 23/91/5 104/92/5
f  114/189/5 25/190/5 36/191/5 127/192/5
f  118/113/5 209/114/5 208/115/5 131/116/5
f  130/185/5 33/186/5 44/187/5 135/188/5
f  134/181/5 37/182/5 48/183/5 139/184/5
f  138/165/5 41/166/5 52/167/5 143/168/5
f  142/161/5 45/162/5 56/163/5 147/164/5
f  146/157/5 49/158/5 60/159/5 151/160/5
f  150/177/5 53/178/5 64/179/5 155/180/5
f  154/173/5 57/174/5 207/175/5 205/176/5
f  158/169/5 61/170/5 197/171/5 206/172/5
f  201/429/5 84/430/5 209/431/5 29/432/5
f  124/449/5 119/450/5 174/451/5 125/452/5
f  109/445/5 175/446/5 165/447/5 183/448/5
f  172/561/5 168/562/5 171/563/5 173/564/5
f  184/545/5 179/546/5 182/547/5 186/548/5
f  82/13/6 14/14/6 2/15/6 71/16/6
f  12/77/6 73/78/6 76/79/6 9/80/6
f  74/301/6 7/302/6 6/303/6 75/304/6
f  66/297/6 11/298/6 10/299/6 102/300/6
f  20/93/6 99/94/6 74/95/6 11/96/6
f  78/317/6 69/318/6 160/319/6 79/320/6
f  10/105/6 75/106/6 105/107/6 22/108/6
f  169/549/6 188/550/6 190/551/6 170/552/6
f  120/541/6 189/542/6 107/543/6 121/544/6
f  163/553/6 159/554/6 177/555/6 164/556/6
f  180/557/6 176/558/6 187/559/6 181/560/6
