# This file was created with Minddesk Qubicle 2.0
# Get Qubicle at www.minddesk.com

mtllib monkeybars.mtl

vn 0.0 0.0 1.0
vn 0.0 0.0 -1.0
vn -1.0 0.0 0.0
vn 1.0 0.0 0.0
vn 0.0 1.0 0.0
vn 0.0 -1.0 0.0

v -15.50000 12.00000 -12.00000
v -15.50000 -12.00000 -12.00000
v -16.50000 -12.00000 -12.00000
v -16.50000 12.00000 -12.00000
v 15.50000 11.00000 -11.00000
v 15.50000 10.00000 -11.00000
v -15.50000 10.00000 -11.00000
v -15.50000 11.00000 -11.00000
v 16.50000 12.00000 -12.00000
v 16.50000 -12.00000 -12.00000
v 15.50000 -12.00000 -12.00000
v 15.50000 12.00000 -12.00000
v -15.50000 10.00000 -1.00000
v -15.50000 -6.00000 -1.00000
v -16.50000 -6.00000 -1.00000
v -16.50000 10.00000 -1.00000
v 16.50000 10.00000 -1.00000
v 16.50000 -6.00000 -1.00000
v 15.50000 -6.00000 -1.00000
v 15.50000 10.00000 -1.00000
v -12.50000 11.00000 -2.00000
v -12.50000 10.00000 -2.00000
v -15.50000 10.00000 -2.00000
v -15.50000 11.00000 -2.00000
v -8.50000 11.00000 -2.00000
v -8.50000 10.00000 -2.00000
v -11.50000 10.00000 -2.00000
v -11.50000 11.00000 -2.00000
v -4.50000 11.00000 -2.00000
v -4.50000 10.00000 -2.00000
v -7.50000 10.00000 -2.00000
v -7.50000 11.00000 -2.00000
v -0.50000 11.00000 -2.00000
v -0.50000 10.00000 -2.00000
v -3.50000 10.00000 -2.00000
v -3.50000 11.00000 -2.00000
v 3.50000 11.00000 -2.00000
v 3.50000 10.00000 -2.00000
v 0.50000 10.00000 -2.00000
v 0.50000 11.00000 -2.00000
v 7.50000 11.00000 -2.00000
v 7.50000 10.00000 -2.00000
v 4.50000 10.00000 -2.00000
v 4.50000 11.00000 -2.00000
v 11.50000 11.00000 -2.00000
v 11.50000 10.00000 -2.00000
v 8.50000 10.00000 -2.00000
v 8.50000 11.00000 -2.00000
v 15.50000 11.00000 -2.00000
v 15.50000 10.00000 -2.00000
v 12.50000 10.00000 -2.00000
v 12.50000 11.00000 -2.00000
v -15.50000 -10.00000 -1.00000
v -15.50000 -12.00000 -1.00000
v -16.50000 -12.00000 -1.00000
v -16.50000 -10.00000 -1.00000
v -15.50000 -7.00000 -1.00000
v -15.50000 -9.00000 -1.00000
v -16.50000 -9.00000 -1.00000
v -16.50000 -7.00000 -1.00000
v 16.50000 -10.00000 -1.00000
v 16.50000 -12.00000 -1.00000
v 15.50000 -12.00000 -1.00000
v 15.50000 -10.00000 -1.00000
v 16.50000 -7.00000 -1.00000
v 16.50000 -9.00000 -1.00000
v 15.50000 -9.00000 -1.00000
v 15.50000 -7.00000 -1.00000
v -15.50000 12.00000 -1.00000
v -15.50000 11.00000 -1.00000
v -16.50000 11.00000 -1.00000
v -16.50000 12.00000 -1.00000
v 16.50000 12.00000 -1.00000
v 16.50000 11.00000 -1.00000
v 15.50000 11.00000 -1.00000
v 15.50000 12.00000 -1.00000
v -16.50000 12.00000 0.00000
v -16.50000 -12.00000 0.00000
v -15.50000 -12.00000 0.00000
v -15.50000 12.00000 0.00000
v 15.50000 12.00000 0.00000
v 15.50000 -12.00000 0.00000
v 16.50000 -12.00000 0.00000
v 16.50000 12.00000 0.00000
v -16.50000 10.00000 -11.00000
v -16.50000 -6.00000 -11.00000
v -15.50000 -6.00000 -11.00000
v 15.50000 -6.00000 -11.00000
v 16.50000 -6.00000 -11.00000
v 16.50000 10.00000 -11.00000
v -15.50000 11.00000 -10.00000
v -15.50000 10.00000 -10.00000
v -12.50000 10.00000 -10.00000
v -12.50000 11.00000 -10.00000
v -11.50000 11.00000 -10.00000
v -11.50000 10.00000 -10.00000
v -8.50000 10.00000 -10.00000
v -8.50000 11.00000 -10.00000
v -7.50000 11.00000 -10.00000
v -7.50000 10.00000 -10.00000
v -4.50000 10.00000 -10.00000
v -4.50000 11.00000 -10.00000
v -3.50000 11.00000 -10.00000
v -3.50000 10.00000 -10.00000
v -0.50000 10.00000 -10.00000
v -0.50000 11.00000 -10.00000
v 0.50000 11.00000 -10.00000
v 0.50000 10.00000 -10.00000
v 3.50000 10.00000 -10.00000
v 3.50000 11.00000 -10.00000
v 4.50000 11.00000 -10.00000
v 4.50000 10.00000 -10.00000
v 7.50000 10.00000 -10.00000
v 7.50000 11.00000 -10.00000
v 8.50000 11.00000 -10.00000
v 8.50000 10.00000 -10.00000
v 11.50000 10.00000 -10.00000
v 11.50000 11.00000 -10.00000
v 12.50000 11.00000 -10.00000
v 12.50000 10.00000 -10.00000
v 15.50000 10.00000 -10.00000
v 15.50000 11.00000 -10.00000
v -16.50000 -10.00000 -11.00000
v -16.50000 -12.00000 -11.00000
v -15.50000 -12.00000 -11.00000
v -15.50000 -10.00000 -11.00000
v -16.50000 -7.00000 -11.00000
v -16.50000 -9.00000 -11.00000
v -15.50000 -9.00000 -11.00000
v -15.50000 -7.00000 -11.00000
v 15.50000 -10.00000 -11.00000
v 15.50000 -12.00000 -11.00000
v 16.50000 -12.00000 -11.00000
v 16.50000 -10.00000 -11.00000
v 15.50000 -7.00000 -11.00000
v 15.50000 -9.00000 -11.00000
v 16.50000 -9.00000 -11.00000
v 16.50000 -7.00000 -11.00000
v -16.50000 12.00000 -11.00000
v -16.50000 11.00000 -11.00000
v -15.50000 12.00000 -11.00000
v 15.50000 12.00000 -11.00000
v 16.50000 11.00000 -11.00000
v 16.50000 12.00000 -11.00000
v 15.50000 -6.00000 -12.00000
v 15.50000 -6.00000 0.00000
v -16.50000 -9.00000 -12.00000
v -16.50000 -10.00000 -12.00000
v -16.50000 -10.00000 0.00000
v -16.50000 -9.00000 0.00000
v -16.50000 -6.00000 -12.00000
v -16.50000 -7.00000 -12.00000
v -16.50000 -7.00000 0.00000
v -16.50000 -6.00000 0.00000
v -16.50000 10.00000 -12.00000
v -16.50000 10.00000 0.00000
v -16.50000 11.00000 -12.00000
v -16.50000 11.00000 0.00000
v 15.50000 -9.00000 -12.00000
v 15.50000 -10.00000 -12.00000
v 15.50000 -10.00000 0.00000
v 15.50000 -9.00000 0.00000
v 15.50000 -7.00000 -12.00000
v 15.50000 -7.00000 0.00000
v -15.50000 -6.00000 -12.00000
v -15.50000 -6.00000 0.00000
v -15.50000 -9.00000 0.00000
v -15.50000 -10.00000 0.00000
v -15.50000 -10.00000 -12.00000
v -15.50000 -9.00000 -12.00000
v -15.50000 -7.00000 0.00000
v -15.50000 -7.00000 -12.00000
v 16.50000 -9.00000 0.00000
v 16.50000 -10.00000 0.00000
v 16.50000 -10.00000 -12.00000
v 16.50000 -9.00000 -12.00000
v 16.50000 -6.00000 0.00000
v 16.50000 -7.00000 0.00000
v 16.50000 -7.00000 -12.00000
v 16.50000 -6.00000 -12.00000
v 16.50000 10.00000 -12.00000
v 16.50000 10.00000 0.00000
v 16.50000 11.00000 0.00000
v 16.50000 11.00000 -12.00000
v 16.50000 11.00000 -10.00000
v 16.50000 11.00000 -2.00000
v 16.50000 10.00000 -10.00000
v 16.50000 10.00000 -2.00000

vt 0.00781 0.39063
vt 0.00781 0.01563
vt 0.01563 0.01563
vt 0.01563 0.39063
vt 0.03125 0.39063
vt 0.03125 0.01563
vt 0.03906 0.01563
vt 0.03906 0.39063
vt 0.05469 0.39063
vt 0.05469 0.01563
vt 0.06250 0.01563
vt 0.06250 0.39063
vt 0.07813 0.39063
vt 0.07813 0.01563
vt 0.08594 0.01563
vt 0.08594 0.39063
vt 0.10156 0.29688
vt 0.10156 0.01563
vt 0.10938 0.01563
vt 0.10938 0.29688
vt 0.12500 0.29688
vt 0.12500 0.01563
vt 0.13281 0.01563
vt 0.13281 0.29688
vt 0.14844 0.29688
vt 0.14844 0.01563
vt 0.15625 0.01563
vt 0.15625 0.29688
vt 0.17188 0.29688
vt 0.17188 0.01563
vt 0.17969 0.01563
vt 0.17969 0.29688
vt 0.19531 0.26563
vt 0.19531 0.01563
vt 0.20313 0.01563
vt 0.20313 0.26563
vt 0.21875 0.26563
vt 0.21875 0.01563
vt 0.22656 0.01563
vt 0.22656 0.26563
vt 0.24219 0.26563
vt 0.24219 0.01563
vt 0.25000 0.01563
vt 0.25000 0.26563
vt 0.26563 0.26563
vt 0.26563 0.01563
vt 0.27344 0.01563
vt 0.27344 0.26563
vt 0.28906 0.26563
vt 0.28906 0.01563
vt 0.29688 0.01563
vt 0.29688 0.26563
vt 0.31250 0.26563
vt 0.31250 0.01563
vt 0.32031 0.01563
vt 0.32031 0.26563
vt 0.33594 0.26563
vt 0.33594 0.01563
vt 0.34375 0.01563
vt 0.34375 0.26563
vt 0.35938 0.26563
vt 0.35938 0.01563
vt 0.36719 0.01563
vt 0.36719 0.26563
vt 0.38281 0.17188
vt 0.38281 0.01563
vt 0.39063 0.01563
vt 0.39063 0.17188
vt 0.40625 0.17188
vt 0.40625 0.01563
vt 0.41406 0.01563
vt 0.41406 0.17188
vt 0.42969 0.17188
vt 0.42969 0.01563
vt 0.43750 0.01563
vt 0.43750 0.17188
vt 0.45313 0.17188
vt 0.45313 0.01563
vt 0.46094 0.01563
vt 0.46094 0.17188
vt 0.47656 0.17188
vt 0.47656 0.01563
vt 0.48438 0.01563
vt 0.48438 0.17188
vt 0.50000 0.17188
vt 0.50000 0.01563
vt 0.50781 0.01563
vt 0.50781 0.17188
vt 0.52344 0.17188
vt 0.52344 0.01563
vt 0.53125 0.01563
vt 0.53125 0.17188
vt 0.54688 0.17188
vt 0.54688 0.01563
vt 0.55469 0.01563
vt 0.55469 0.17188
vt 0.57031 0.17188
vt 0.57031 0.01563
vt 0.57813 0.01563
vt 0.57813 0.17188
vt 0.59375 0.17188
vt 0.59375 0.01563
vt 0.60156 0.01563
vt 0.60156 0.17188
vt 0.61719 0.14063
vt 0.61719 0.01563
vt 0.62500 0.01563
vt 0.62500 0.14063
vt 0.64063 0.14063
vt 0.64063 0.01563
vt 0.64844 0.01563
vt 0.64844 0.14063
vt 0.66406 0.14063
vt 0.66406 0.01563
vt 0.67188 0.01563
vt 0.67188 0.14063
vt 0.68750 0.14063
vt 0.68750 0.01563
vt 0.69531 0.01563
vt 0.69531 0.14063
vt 0.71094 0.14063
vt 0.71094 0.01563
vt 0.71875 0.01563
vt 0.71875 0.14063
vt 0.73438 0.14063
vt 0.73438 0.01563
vt 0.74219 0.01563
vt 0.74219 0.14063
vt 0.75781 0.14063
vt 0.75781 0.01563
vt 0.76563 0.01563
vt 0.76563 0.14063
vt 0.78125 0.14063
vt 0.78125 0.01563
vt 0.78906 0.01563
vt 0.78906 0.14063
vt 0.80469 0.14063
vt 0.80469 0.01563
vt 0.81250 0.01563
vt 0.81250 0.14063
vt 0.82813 0.14063
vt 0.82813 0.01563
vt 0.83594 0.01563
vt 0.83594 0.14063
vt 0.85156 0.14063
vt 0.85156 0.01563
vt 0.85938 0.01563
vt 0.85938 0.14063
vt 0.87500 0.14063
vt 0.87500 0.01563
vt 0.88281 0.01563
vt 0.88281 0.14063
vt 0.89844 0.14063
vt 0.89844 0.01563
vt 0.90625 0.01563
vt 0.90625 0.14063
vt 0.92188 0.14063
vt 0.92188 0.01563
vt 0.92969 0.01563
vt 0.92969 0.14063
vt 0.94531 0.14063
vt 0.94531 0.01563
vt 0.95313 0.01563
vt 0.95313 0.14063
vt 0.96875 0.14063
vt 0.96875 0.01563
vt 0.97656 0.01563
vt 0.97656 0.14063
vt 0.38281 0.23438
vt 0.38281 0.20313
vt 0.39063 0.20313
vt 0.39063 0.23438
vt 0.40625 0.23438
vt 0.40625 0.20313
vt 0.41406 0.20313
vt 0.41406 0.23438
vt 0.42969 0.23438
vt 0.42969 0.20313
vt 0.43750 0.20313
vt 0.43750 0.23438
vt 0.45313 0.23438
vt 0.45313 0.20313
vt 0.46094 0.20313
vt 0.46094 0.23438
vt 0.47656 0.23438
vt 0.47656 0.20313
vt 0.48438 0.20313
vt 0.48438 0.23438
vt 0.50000 0.23438
vt 0.50000 0.20313
vt 0.50781 0.20313
vt 0.50781 0.23438
vt 0.52344 0.23438
vt 0.52344 0.20313
vt 0.53125 0.20313
vt 0.53125 0.23438
vt 0.54688 0.23438
vt 0.54688 0.20313
vt 0.55469 0.20313
vt 0.55469 0.23438
vt 0.57031 0.23438
vt 0.57031 0.20313
vt 0.57813 0.20313
vt 0.57813 0.23438
vt 0.59375 0.23438
vt 0.59375 0.20313
vt 0.60156 0.20313
vt 0.60156 0.23438
vt 0.61719 0.23438
vt 0.61719 0.20313
vt 0.62500 0.20313
vt 0.62500 0.23438
vt 0.64063 0.23438
vt 0.64063 0.20313
vt 0.64844 0.20313
vt 0.64844 0.23438
vt 0.66406 0.23438
vt 0.66406 0.20313
vt 0.67188 0.20313
vt 0.67188 0.23438
vt 0.68750 0.23438
vt 0.68750 0.20313
vt 0.69531 0.20313
vt 0.69531 0.23438
vt 0.71094 0.23438
vt 0.71094 0.20313
vt 0.71875 0.20313
vt 0.71875 0.23438
vt 0.73438 0.23438
vt 0.73438 0.20313
vt 0.74219 0.20313
vt 0.74219 0.23438
vt 0.75781 0.23438
vt 0.75781 0.20313
vt 0.76563 0.20313
vt 0.76563 0.23438
vt 0.78125 0.23438
vt 0.78125 0.20313
vt 0.78906 0.20313
vt 0.78906 0.23438
vt 0.80469 0.23438
vt 0.80469 0.20313
vt 0.81250 0.20313
vt 0.81250 0.23438
vt 0.82813 0.23438
vt 0.82813 0.20313
vt 0.83594 0.20313
vt 0.83594 0.23438
vt 0.85156 0.23438
vt 0.85156 0.20313
vt 0.85938 0.20313
vt 0.85938 0.23438
vt 0.87500 0.23438
vt 0.87500 0.20313
vt 0.88281 0.20313
vt 0.88281 0.23438
vt 0.89844 0.23438
vt 0.89844 0.20313
vt 0.90625 0.20313
vt 0.90625 0.23438
vt 0.92188 0.23438
vt 0.92188 0.20313
vt 0.92969 0.20313
vt 0.92969 0.23438
vt 0.10156 0.34375
vt 0.10156 0.32813
vt 0.35156 0.32813
vt 0.35156 0.34375
vt 0.36719 0.34375
vt 0.36719 0.32813
vt 0.61719 0.32813
vt 0.61719 0.34375
vt 0.63281 0.34375
vt 0.63281 0.32813
vt 0.88281 0.32813
vt 0.88281 0.34375
vt 0.10156 0.39063
vt 0.10156 0.37500
vt 0.35156 0.37500
vt 0.35156 0.39063
vt 0.36719 0.39063
vt 0.36719 0.37500
vt 0.60938 0.37500
vt 0.60938 0.39063
vt 0.62500 0.39063
vt 0.62500 0.37500
vt 0.86719 0.37500
vt 0.86719 0.39063
vt 0.89844 0.34375
vt 0.89844 0.32813
vt 0.99219 0.32813
vt 0.99219 0.34375
vt 0.88281 0.39063
vt 0.88281 0.37500
vt 0.97656 0.37500
vt 0.97656 0.39063
vt 0.00781 0.43750
vt 0.00781 0.42188
vt 0.10156 0.42188
vt 0.10156 0.43750
vt 0.11719 0.43750
vt 0.11719 0.42188
vt 0.21094 0.42188
vt 0.21094 0.43750
vt 0.22656 0.43750
vt 0.22656 0.42188
vt 0.32031 0.42188
vt 0.32031 0.43750
vt 0.33594 0.43750
vt 0.33594 0.42188
vt 0.42969 0.42188
vt 0.42969 0.43750
vt 0.44531 0.43750
vt 0.44531 0.42188
vt 0.53906 0.42188
vt 0.53906 0.43750
vt 0.55469 0.43750
vt 0.55469 0.42188
vt 0.64844 0.42188
vt 0.64844 0.43750
vt 0.66406 0.43750
vt 0.66406 0.42188
vt 0.75781 0.42188
vt 0.75781 0.43750
vt 0.77344 0.43750
vt 0.77344 0.42188
vt 0.86719 0.42188
vt 0.86719 0.43750
vt 0.88281 0.43750
vt 0.88281 0.42188
vt 0.94531 0.42188
vt 0.94531 0.43750
vt 0.00781 0.48438
vt 0.00781 0.46875
vt 0.07031 0.46875
vt 0.07031 0.48438
vt 0.08594 0.48438
vt 0.08594 0.46875
vt 0.14844 0.46875
vt 0.14844 0.48438
vt 0.16406 0.48438
vt 0.16406 0.46875
vt 0.22656 0.46875
vt 0.22656 0.48438
vt 0.24219 0.48438
vt 0.24219 0.46875
vt 0.30469 0.46875
vt 0.30469 0.48438
vt 0.32031 0.48438
vt 0.32031 0.46875
vt 0.38281 0.46875
vt 0.38281 0.48438
vt 0.39844 0.48438
vt 0.39844 0.46875
vt 0.46094 0.46875
vt 0.46094 0.48438
vt 0.47656 0.48438
vt 0.47656 0.46875
vt 0.53906 0.46875
vt 0.53906 0.48438
vt 0.55469 0.48438
vt 0.55469 0.46875
vt 0.61719 0.46875
vt 0.61719 0.48438
vt 0.63281 0.48438
vt 0.63281 0.46875
vt 0.69531 0.46875
vt 0.69531 0.48438
vt 0.71094 0.48438
vt 0.71094 0.46875
vt 0.77344 0.46875
vt 0.77344 0.48438
vt 0.78906 0.48438
vt 0.78906 0.46875
vt 0.85156 0.46875
vt 0.85156 0.48438
vt 0.86719 0.48438
vt 0.86719 0.46875
vt 0.92969 0.46875
vt 0.92969 0.48438
vt 0.00781 0.53125
vt 0.00781 0.51563
vt 0.07031 0.51563
vt 0.07031 0.53125
vt 0.08594 0.53125
vt 0.08594 0.51563
vt 0.14844 0.51563
vt 0.14844 0.53125
vt 0.16406 0.53125
vt 0.16406 0.51563
vt 0.22656 0.51563
vt 0.22656 0.53125
vt 0.94531 0.21875
vt 0.94531 0.20313
vt 0.96875 0.20313
vt 0.96875 0.21875
vt 0.96094 0.43750
vt 0.96094 0.42188
vt 0.98438 0.42188
vt 0.98438 0.43750
vt 0.94531 0.48438
vt 0.94531 0.46875
vt 0.96875 0.46875
vt 0.96875 0.48438
vt 0.24219 0.53125
vt 0.24219 0.51563
vt 0.26563 0.51563
vt 0.26563 0.53125
vt 0.28125 0.53125
vt 0.28125 0.51563
vt 0.30469 0.51563
vt 0.30469 0.53125
vt 0.32031 0.53125
vt 0.32031 0.51563
vt 0.34375 0.51563
vt 0.34375 0.53125
vt 0.35938 0.53125
vt 0.35938 0.51563
vt 0.38281 0.51563
vt 0.38281 0.53125
vt 0.39844 0.53125
vt 0.39844 0.51563
vt 0.42188 0.51563
vt 0.42188 0.53125
vt 0.43750 0.53125
vt 0.43750 0.51563
vt 0.46094 0.51563
vt 0.46094 0.53125
vt 0.47656 0.53125
vt 0.47656 0.51563
vt 0.50000 0.51563
vt 0.50000 0.53125
vt 0.51563 0.53125
vt 0.51563 0.51563
vt 0.53906 0.51563
vt 0.53906 0.53125
vt 0.55469 0.53125
vt 0.55469 0.51563
vt 0.57813 0.51563
vt 0.57813 0.53125
vt 0.59375 0.53125
vt 0.59375 0.51563
vt 0.61719 0.51563
vt 0.61719 0.53125
vt 0.63281 0.53125
vt 0.63281 0.51563
vt 0.65625 0.51563
vt 0.65625 0.53125
vt 0.67188 0.53125
vt 0.67188 0.51563
vt 0.69531 0.51563
vt 0.69531 0.53125
vt 0.71094 0.53125
vt 0.71094 0.51563
vt 0.73438 0.51563
vt 0.73438 0.53125
vt 0.98438 0.21875
vt 0.98438 0.20313
vt 0.99219 0.20313
vt 0.99219 0.21875
vt 0.98438 0.48438
vt 0.98438 0.46875
vt 0.99219 0.46875
vt 0.99219 0.48438
vt 0.75000 0.53125
vt 0.75000 0.51563
vt 0.75781 0.51563
vt 0.75781 0.53125
vt 0.77344 0.53125
vt 0.77344 0.51563
vt 0.78125 0.51563
vt 0.78125 0.53125
vt 0.79688 0.53125
vt 0.79688 0.51563
vt 0.80469 0.51563
vt 0.80469 0.53125
vt 0.82031 0.53125
vt 0.82031 0.51563
vt 0.82813 0.51563
vt 0.82813 0.53125
vt 0.84375 0.53125
vt 0.84375 0.51563
vt 0.85156 0.51563
vt 0.85156 0.53125
vt 0.86719 0.53125
vt 0.86719 0.51563
vt 0.87500 0.51563
vt 0.87500 0.53125
vt 0.89063 0.53125
vt 0.89063 0.51563
vt 0.89844 0.51563
vt 0.89844 0.53125
vt 0.91406 0.53125
vt 0.91406 0.51563
vt 0.92188 0.51563
vt 0.92188 0.53125
vt 0.93750 0.53125
vt 0.93750 0.51563
vt 0.94531 0.51563
vt 0.94531 0.53125
vt 0.96094 0.53125
vt 0.96094 0.51563
vt 0.96875 0.51563
vt 0.96875 0.53125
vt 0.98438 0.53125
vt 0.98438 0.51563
vt 0.99219 0.51563
vt 0.99219 0.53125
vt 0.00781 0.57813
vt 0.00781 0.56250
vt 0.01563 0.56250
vt 0.01563 0.57813
vt 0.03125 0.57813
vt 0.03125 0.56250
vt 0.03906 0.56250
vt 0.03906 0.57813
vt 0.05469 0.57813
vt 0.05469 0.56250
vt 0.06250 0.56250
vt 0.06250 0.57813

g Box_42
usemtl monkeybars_Material
f  1/9/2 2/10/2 3/11/2 4/12/2
f  5/285/2 6/286/2 7/287/2 8/288/2
f  9/1/2 10/2/2 11/3/2 12/4/2
f  13/61/2 14/62/2 15/63/2 16/64/2
f  17/41/2 18/42/2 19/43/2 20/44/2
f  21/409/2 22/410/2 23/411/2 24/412/2
f  25/413/2 26/414/2 27/415/2 28/416/2
f  29/421/2 30/422/2 31/423/2 32/424/2
f  33/405/2 34/406/2 35/407/2 36/408/2
f  37/433/2 38/434/2 39/435/2 40/436/2
f  41/429/2 42/430/2 43/431/2 44/432/2
f  45/425/2 46/426/2 47/427/2 48/428/2
f  49/417/2 50/418/2 51/419/2 52/420/2
f  53/221/2 54/222/2 55/223/2 56/224/2
f  57/201/2 58/202/2 59/203/2 60/204/2
f  61/209/2 62/210/2 63/211/2 64/212/2
f  65/205/2 66/206/2 67/207/2 68/208/2
f  69/497/2 70/498/2 71/499/2 72/500/2
f  73/501/2 74/502/2 75/503/2 76/504/2
f  77/13/1 78/14/1 79/15/1 80/16/1
f  70/281/1 13/282/1 20/283/1 75/284/1
f  81/5/1 82/6/1 83/7/1 84/8/1
f  85/45/1 86/46/1 87/47/1 7/48/1
f  6/57/1 88/58/1 89/59/1 90/60/1
f  91/401/1 92/402/1 93/403/1 94/404/1
f  95/393/1 96/394/1 97/395/1 98/396/1
f  99/397/1 100/398/1 101/399/1 102/400/1
f  103/441/1 104/442/1 105/443/1 106/444/1
f  107/437/1 108/438/1 109/439/1 110/440/1
f  111/445/1 112/446/1 113/447/1 114/448/1
f  115/453/1 116/454/1 117/455/1 118/456/1
f  119/449/1 120/450/1 121/451/1 122/452/1
f  123/193/1 124/194/1 125/195/1 126/196/1
f  127/197/1 128/198/1 129/199/1 130/200/1
f  131/225/1 132/226/1 133/227/1 134/228/1
f  135/229/1 136/230/1 137/231/1 138/232/1
f  139/489/1 140/490/1 8/491/1 141/492/1
f  142/493/1 5/494/1 143/495/1 144/496/1
f  12/29/3 145/30/3 88/31/3 142/32/3
f  76/17/3 19/18/3 146/19/3 81/20/3
f  147/321/3 148/322/3 149/323/3 150/324/3
f  151/293/3 152/294/3 153/295/3 154/296/3
f  155/49/3 151/50/3 86/51/3 85/52/3
f  16/53/3 15/54/3 154/55/3 156/56/3
f  157/297/3 155/298/3 156/299/3 158/300/3
f  159/305/3 160/306/3 161/307/3 162/308/3
f  145/301/3 163/302/3 164/303/3 146/304/3
f  94/369/3 93/370/3 22/371/3 21/372/3
f  98/373/3 97/374/3 26/375/3 25/376/3
f  102/361/3 101/362/3 30/363/3 29/364/3
f  106/365/3 105/366/3 34/367/3 33/368/3
f  110/389/3 109/390/3 38/391/3 37/392/3
f  114/385/3 113/386/3 42/387/3 41/388/3
f  118/381/3 117/382/3 46/383/3 45/384/3
f  122/337/3 121/338/3 50/339/3 49/340/3
f  148/213/3 3/214/3 124/215/3 123/216/3
f  56/217/3 55/218/3 78/219/3 149/220/3
f  152/169/3 147/170/3 128/171/3 127/172/3
f  60/173/3 59/174/3 150/175/3 153/176/3
f  160/185/3 11/186/3 132/187/3 131/188/3
f  64/189/3 63/190/3 82/191/3 161/192/3
f  163/177/3 159/178/3 136/179/3 135/180/3
f  68/181/3 67/182/3 162/183/3 164/184/3
f  4/513/3 157/514/3 140/515/3 139/516/3
f  72/517/3 71/518/3 158/519/3 77/520/3
f  141/21/4 87/22/4 165/23/4 1/24/4
f  80/25/4 166/26/4 14/27/4 69/28/4
f  167/289/4 168/290/4 169/291/4 170/292/4
f  166/313/4 171/314/4 172/315/4 165/316/4
f  173/309/4 174/310/4 175/311/4 176/312/4
f  177/317/4 178/318/4 179/319/4 180/320/4
f  90/33/4 89/34/4 180/35/4 181/36/4
f  182/37/4 177/38/4 18/39/4 17/40/4
f  183/325/4 182/326/4 181/327/4 184/328/4
f  24/377/4 23/378/4 92/379/4 91/380/4
f  28/341/4 27/342/4 96/343/4 95/344/4
f  32/349/4 31/350/4 100/351/4 99/352/4
f  36/345/4 35/346/4 104/347/4 103/348/4
f  40/357/4 39/358/4 108/359/4 107/360/4
f  44/353/4 43/354/4 112/355/4 111/356/4
f  48/333/4 47/334/4 116/335/4 115/336/4
f  52/329/4 51/330/4 120/331/4 119/332/4
f  126/241/4 125/242/4 2/243/4 169/244/4
f  168/245/4 79/246/4 54/247/4 53/248/4
f  130/233/4 129/234/4 170/235/4 172/236/4
f  171/237/4 167/238/4 58/239/4 57/240/4
f  134/257/4 133/258/4 10/259/4 175/260/4
f  174/261/4 83/262/4 62/263/4 61/264/4
f  138/249/4 137/250/4 176/251/4 179/252/4
f  178/253/4 173/254/4 66/255/4 65/256/4
f  144/505/4 143/506/4 184/507/4 9/508/4
f  84/509/4 183/510/4 74/511/4 73/512/4
f  8/269/5 91/270/5 185/271/5 143/272/5
f  24/273/5 70/274/5 74/275/5 186/276/5
f  128/73/5 59/74/5 58/75/5 129/76/5
f  86/65/5 15/66/5 14/67/5 87/68/5
f  140/93/5 71/94/5 70/95/5 8/96/5
f  136/97/5 67/98/5 66/99/5 137/100/5
f  88/69/5 19/70/5 18/71/5 89/72/5
f  94/153/5 21/154/5 28/155/5 95/156/5
f  98/157/5 25/158/5 32/159/5 99/160/5
f  102/165/5 29/166/5 36/167/5 103/168/5
f  106/161/5 33/162/5 40/163/5 107/164/5
f  110/141/5 37/142/5 44/143/5 111/144/5
f  114/137/5 41/138/5 48/139/5 115/140/5
f  118/149/5 45/150/5 52/151/5 119/152/5
f  122/145/5 49/146/5 186/147/5 185/148/5
f  4/465/5 139/466/5 141/467/5 1/468/5
f  72/469/5 77/470/5 80/471/5 69/472/5
f  12/457/5 142/458/5 144/459/5 9/460/5
f  76/461/5 81/462/5 84/463/5 73/464/5
f  92/277/6 7/278/6 90/279/6 187/280/6
f  13/265/6 23/266/6 188/267/6 17/268/6
f  56/85/6 123/86/6 126/87/6 53/88/6
f  60/89/6 127/90/6 130/91/6 57/92/6
f  16/101/6 85/102/6 7/103/6 13/104/6
f  64/81/6 131/82/6 134/83/6 61/84/6
f  68/77/6 135/78/6 138/79/6 65/80/6
f  22/105/6 93/106/6 96/107/6 27/108/6
f  26/125/6 97/126/6 100/127/6 31/128/6
f  30/129/6 101/130/6 104/131/6 35/132/6
f  34/133/6 105/134/6 108/135/6 39/136/6
f  38/121/6 109/122/6 112/123/6 43/124/6
f  42/109/6 113/110/6 116/111/6 47/112/6
f  46/113/6 117/114/6 120/115/6 51/116/6
f  50/117/6 121/118/6 187/119/6 188/120/6
f  124/481/6 3/482/6 2/483/6 125/484/6
f  78/485/6 55/486/6 54/487/6 79/488/6
f  132/473/6 11/474/6 10/475/6 133/476/6
f  82/477/6 63/478/6 62/479/6 83/480/6
