# This file was created with Minddesk Qubicle 2.0
# Get Qubicle at www.minddesk.com

mtllib parksign1.mtl

vn 0.0 0.0 1.0
vn 0.0 0.0 -1.0
vn -1.0 0.0 0.0
vn 1.0 0.0 0.0
vn 0.0 1.0 0.0
vn 0.0 -1.0 0.0

v 7.00000 4.00000 -1.00000
v 7.00000 -1.00000 -1.00000
v -7.00000 -1.00000 -1.00000
v -7.00000 4.00000 -1.00000
v -7.00000 5.00000 -1.00000
v -7.00000 -5.00000 -1.00000
v -8.00000 -5.00000 -1.00000
v -8.00000 5.00000 -1.00000
v 8.00000 5.00000 -1.00000
v 8.00000 -5.00000 -1.00000
v 7.00000 -5.00000 -1.00000
v 7.00000 5.00000 -1.00000
v -7.00000 4.00000 0.00000
v -7.00000 -1.00000 0.00000
v 7.00000 -1.00000 0.00000
v 7.00000 4.00000 0.00000
v -8.00000 5.00000 0.00000
v -8.00000 -5.00000 0.00000
v -7.00000 -5.00000 0.00000
v -7.00000 5.00000 0.00000
v 7.00000 5.00000 0.00000
v 7.00000 -5.00000 0.00000
v 8.00000 -5.00000 0.00000
v 8.00000 5.00000 0.00000

vt 0.03125 0.34375
vt 0.03125 0.03125
vt 0.06250 0.03125
vt 0.06250 0.34375
vt 0.12500 0.34375
vt 0.12500 0.03125
vt 0.15625 0.03125
vt 0.15625 0.34375
vt 0.21875 0.34375
vt 0.21875 0.03125
vt 0.25000 0.03125
vt 0.25000 0.34375
vt 0.31250 0.34375
vt 0.31250 0.03125
vt 0.34375 0.03125
vt 0.34375 0.34375
vt 0.40625 0.34375
vt 0.40625 0.03125
vt 0.43750 0.03125
vt 0.43750 0.34375
vt 0.50000 0.34375
vt 0.50000 0.03125
vt 0.53125 0.03125
vt 0.53125 0.34375
vt 0.03125 0.56250
vt 0.03125 0.40625
vt 0.46875 0.40625
vt 0.46875 0.56250
vt 0.53125 0.56250
vt 0.53125 0.40625
vt 0.96875 0.40625
vt 0.96875 0.56250
vt 0.59375 0.15625
vt 0.59375 0.03125
vt 0.62500 0.03125
vt 0.62500 0.15625
vt 0.68750 0.15625
vt 0.68750 0.03125
vt 0.71875 0.03125
vt 0.71875 0.15625
vt 0.03125 0.65625
vt 0.03125 0.62500
vt 0.46875 0.62500
vt 0.46875 0.65625
vt 0.53125 0.65625
vt 0.53125 0.62500
vt 0.96875 0.62500
vt 0.96875 0.65625
vt 0.78125 0.06250
vt 0.78125 0.03125
vt 0.81250 0.03125
vt 0.81250 0.06250
vt 0.87500 0.06250
vt 0.87500 0.03125
vt 0.90625 0.03125
vt 0.90625 0.06250
vt 0.78125 0.15625
vt 0.78125 0.12500
vt 0.81250 0.12500
vt 0.81250 0.15625
vt 0.87500 0.15625
vt 0.87500 0.12500
vt 0.90625 0.12500
vt 0.90625 0.15625
vt 0.59375 0.25000
vt 0.59375 0.21875
vt 0.62500 0.21875
vt 0.62500 0.25000
vt 0.68750 0.25000
vt 0.68750 0.21875
vt 0.71875 0.21875
vt 0.71875 0.25000

g Box_72
usemtl parksign1_Material
f  1/29/2 2/30/2 3/31/2 4/32/2
f  5/21/2 6/22/2 7/23/2 8/24/2
f  9/17/2 10/18/2 11/19/2 12/20/2
f  13/25/1 14/26/1 15/27/1 16/28/1
f  17/5/1 18/6/1 19/7/1 20/8/1
f  21/13/1 22/14/1 23/15/1 24/16/1
f  8/9/3 7/10/3 18/11/3 17/12/3
f  2/33/3 11/34/3 22/35/3 15/36/3
f  12/61/3 1/62/3 16/63/3 21/64/3
f  24/1/4 23/2/4 10/3/4 9/4/4
f  14/37/4 19/38/4 6/39/4 3/40/4
f  20/65/4 13/66/4 4/67/4 5/68/4
f  4/41/5 13/42/5 16/43/5 1/44/5
f  8/69/5 17/70/5 20/71/5 5/72/5
f  12/49/5 21/50/5 24/51/5 9/52/5
f  14/45/6 3/46/6 2/47/6 15/48/6
f  18/53/6 7/54/6 6/55/6 19/56/6
f  22/57/6 11/58/6 10/59/6 23/60/6
