# This file was created with Minddesk Qubicle 2.0
# Get Qubicle at www.minddesk.com

mtllib parkbench1.mtl

vn 0.0 0.0 1.0
vn 0.0 0.0 -1.0
vn -1.0 0.0 0.0
vn 1.0 0.0 0.0
vn 0.0 1.0 0.0
vn 0.0 -1.0 0.0

v 11.50000 -1.00000 -5.00000
v 11.50000 -2.00000 -5.00000
v -11.50000 -2.00000 -5.00000
v -11.50000 -1.00000 -5.00000
v 11.50000 -1.00000 -3.00000
v 11.50000 -2.00000 -3.00000
v -11.50000 -2.00000 -3.00000
v -11.50000 -1.00000 -3.00000
v 11.50000 -1.00000 -1.00000
v 11.50000 -2.00000 -1.00000
v -11.50000 -2.00000 -1.00000
v -11.50000 -1.00000 -1.00000
v 12.50000 1.00000 -6.00000
v 12.50000 0.00000 -6.00000
v -11.50000 0.00000 -6.00000
v -11.50000 1.00000 -6.00000
v 12.50000 3.00000 -6.00000
v 12.50000 2.00000 -6.00000
v -11.50000 2.00000 -6.00000
v -11.50000 3.00000 -6.00000
v 12.50000 5.00000 -6.00000
v 12.50000 4.00000 -6.00000
v -11.50000 4.00000 -6.00000
v -11.50000 5.00000 -6.00000
v -11.50000 -5.00000 -6.00000
v -12.50000 -5.00000 -6.00000
v -12.50000 5.00000 -6.00000
v 12.50000 -5.00000 -6.00000
v 11.50000 -5.00000 -6.00000
v 11.50000 0.00000 -6.00000
v -11.50000 -5.00000 -1.00000
v -12.50000 -5.00000 -1.00000
v -12.50000 -2.00000 -1.00000
v 12.50000 -2.00000 -1.00000
v 12.50000 -5.00000 -1.00000
v 11.50000 -5.00000 -1.00000
v 11.50000 1.00000 -6.00000
v 11.50000 2.00000 -6.00000
v 11.50000 3.00000 -6.00000
v 11.50000 4.00000 -6.00000
v -11.50000 -1.00000 -4.00000
v -11.50000 -2.00000 -4.00000
v 11.50000 -2.00000 -4.00000
v 11.50000 -1.00000 -4.00000
v -11.50000 -1.00000 -2.00000
v -11.50000 -2.00000 -2.00000
v 11.50000 -2.00000 -2.00000
v 11.50000 -1.00000 -2.00000
v -11.50000 -1.00000 0.00000
v -11.50000 -2.00000 0.00000
v 12.50000 -2.00000 0.00000
v 12.50000 -1.00000 0.00000
v -11.50000 1.00000 -5.00000
v -11.50000 0.00000 -5.00000
v 12.50000 0.00000 -5.00000
v 12.50000 1.00000 -5.00000
v -11.50000 3.00000 -5.00000
v -11.50000 2.00000 -5.00000
v 12.50000 2.00000 -5.00000
v 12.50000 3.00000 -5.00000
v -11.50000 5.00000 -5.00000
v -11.50000 4.00000 -5.00000
v 12.50000 4.00000 -5.00000
v 12.50000 5.00000 -5.00000
v -12.50000 5.00000 -5.00000
v -12.50000 -1.00000 -5.00000
v -12.50000 -2.00000 -5.00000
v -12.50000 -5.00000 -5.00000
v -11.50000 -5.00000 -5.00000
v -12.50000 -1.00000 0.00000
v -12.50000 -5.00000 0.00000
v -11.50000 -5.00000 0.00000
v 11.50000 -5.00000 -5.00000
v 12.50000 -5.00000 -5.00000
v 12.50000 -2.00000 -5.00000
v 11.50000 -2.00000 0.00000
v 11.50000 -5.00000 0.00000
v 12.50000 -5.00000 0.00000
v 11.50000 0.00000 -5.00000
v 12.50000 -1.00000 -5.00000
v 11.50000 2.00000 -5.00000
v 11.50000 1.00000 -5.00000
v 11.50000 4.00000 -5.00000
v 11.50000 3.00000 -5.00000
v -12.50000 -1.00000 -1.00000
v 12.50000 -1.00000 -1.00000
v 11.50000 -1.00000 0.00000
v 12.50000 -1.00000 -4.00000
v 12.50000 -1.00000 -2.00000
v 12.50000 -1.00000 -3.00000
v 12.50000 -2.00000 -4.00000
v 12.50000 -2.00000 -3.00000
v 12.50000 -2.00000 -2.00000

vt 0.01563 0.17188
vt 0.01563 0.01563
vt 0.03125 0.01563
vt 0.03125 0.17188
vt 0.06250 0.17188
vt 0.06250 0.01563
vt 0.07813 0.01563
vt 0.07813 0.17188
vt 0.10938 0.17188
vt 0.10938 0.01563
vt 0.12500 0.01563
vt 0.12500 0.17188
vt 0.15625 0.10938
vt 0.15625 0.01563
vt 0.17188 0.01563
vt 0.17188 0.10938
vt 0.20313 0.09375
vt 0.20313 0.01563
vt 0.21875 0.01563
vt 0.21875 0.09375
vt 0.25000 0.09375
vt 0.25000 0.01563
vt 0.26563 0.01563
vt 0.26563 0.09375
vt 0.29688 0.09375
vt 0.29688 0.01563
vt 0.31250 0.01563
vt 0.31250 0.09375
vt 0.34375 0.07813
vt 0.34375 0.01563
vt 0.35938 0.01563
vt 0.35938 0.07813
vt 0.39063 0.07813
vt 0.39063 0.01563
vt 0.40625 0.01563
vt 0.40625 0.07813
vt 0.43750 0.07813
vt 0.43750 0.01563
vt 0.45313 0.01563
vt 0.45313 0.07813
vt 0.48438 0.07813
vt 0.48438 0.01563
vt 0.50000 0.01563
vt 0.50000 0.07813
vt 0.53125 0.07813
vt 0.53125 0.01563
vt 0.54688 0.01563
vt 0.54688 0.07813
vt 0.57813 0.06250
vt 0.57813 0.01563
vt 0.59375 0.01563
vt 0.59375 0.06250
vt 0.62500 0.06250
vt 0.62500 0.01563
vt 0.64063 0.01563
vt 0.64063 0.06250
vt 0.67188 0.06250
vt 0.67188 0.01563
vt 0.68750 0.01563
vt 0.68750 0.06250
vt 0.71875 0.06250
vt 0.71875 0.01563
vt 0.73438 0.01563
vt 0.73438 0.06250
vt 0.76563 0.06250
vt 0.76563 0.01563
vt 0.78125 0.01563
vt 0.78125 0.06250
vt 0.81250 0.06250
vt 0.81250 0.01563
vt 0.82813 0.01563
vt 0.82813 0.06250
vt 0.85938 0.06250
vt 0.85938 0.01563
vt 0.87500 0.01563
vt 0.87500 0.06250
vt 0.90625 0.04688
vt 0.90625 0.01563
vt 0.92188 0.01563
vt 0.92188 0.04688
vt 0.15625 0.15625
vt 0.15625 0.14063
vt 0.54688 0.14063
vt 0.54688 0.15625
vt 0.57813 0.15625
vt 0.57813 0.14063
vt 0.95313 0.14063
vt 0.95313 0.15625
vt 0.01563 0.21875
vt 0.01563 0.20313
vt 0.39063 0.20313
vt 0.39063 0.21875
vt 0.42188 0.21875
vt 0.42188 0.20313
vt 0.79688 0.20313
vt 0.79688 0.21875
vt 0.01563 0.26563
vt 0.01563 0.25000
vt 0.39063 0.25000
vt 0.39063 0.26563
vt 0.42188 0.26563
vt 0.42188 0.25000
vt 0.79688 0.25000
vt 0.79688 0.26563
vt 0.01563 0.31250
vt 0.01563 0.29688
vt 0.39063 0.29688
vt 0.39063 0.31250
vt 0.42188 0.31250
vt 0.42188 0.29688
vt 0.79688 0.29688
vt 0.79688 0.31250
vt 0.01563 0.35938
vt 0.01563 0.34375
vt 0.39063 0.34375
vt 0.39063 0.35938
vt 0.42188 0.35938
vt 0.42188 0.34375
vt 0.79688 0.34375
vt 0.79688 0.35938
vt 0.01563 0.40625
vt 0.01563 0.39063
vt 0.39063 0.39063
vt 0.39063 0.40625
vt 0.42188 0.40625
vt 0.42188 0.39063
vt 0.79688 0.39063
vt 0.79688 0.40625
vt 0.01563 0.45313
vt 0.01563 0.43750
vt 0.39063 0.43750
vt 0.39063 0.45313
vt 0.42188 0.45313
vt 0.42188 0.43750
vt 0.78125 0.43750
vt 0.78125 0.45313
vt 0.01563 0.50000
vt 0.01563 0.48438
vt 0.37500 0.48438
vt 0.37500 0.50000
vt 0.40625 0.50000
vt 0.40625 0.48438
vt 0.76563 0.48438
vt 0.76563 0.50000
vt 0.01563 0.54688
vt 0.01563 0.53125
vt 0.37500 0.53125
vt 0.37500 0.54688
vt 0.40625 0.54688
vt 0.40625 0.53125
vt 0.76563 0.53125
vt 0.76563 0.54688
vt 0.01563 0.59375
vt 0.01563 0.57813
vt 0.37500 0.57813
vt 0.37500 0.59375
vt 0.40625 0.59375
vt 0.40625 0.57813
vt 0.76563 0.57813
vt 0.76563 0.59375
vt 0.01563 0.64063
vt 0.01563 0.62500
vt 0.37500 0.62500
vt 0.37500 0.64063
vt 0.40625 0.64063
vt 0.40625 0.62500
vt 0.76563 0.62500
vt 0.76563 0.64063
vt 0.01563 0.68750
vt 0.01563 0.67188
vt 0.37500 0.67188
vt 0.37500 0.68750
vt 0.40625 0.68750
vt 0.40625 0.67188
vt 0.76563 0.67188
vt 0.76563 0.68750
vt 0.82813 0.21875
vt 0.82813 0.20313
vt 0.89063 0.20313
vt 0.89063 0.21875
vt 0.92188 0.21875
vt 0.92188 0.20313
vt 0.98438 0.20313
vt 0.98438 0.21875
vt 0.95313 0.03125
vt 0.95313 0.01563
vt 0.96875 0.01563
vt 0.96875 0.03125
vt 0.82813 0.26563
vt 0.82813 0.25000
vt 0.84375 0.25000
vt 0.84375 0.26563
vt 0.87500 0.26563
vt 0.87500 0.25000
vt 0.89063 0.25000
vt 0.89063 0.26563
vt 0.92188 0.26563
vt 0.92188 0.25000
vt 0.93750 0.25000
vt 0.93750 0.26563
vt 0.96875 0.26563
vt 0.96875 0.25000
vt 0.98438 0.25000
vt 0.98438 0.26563
vt 0.82813 0.31250
vt 0.82813 0.29688
vt 0.84375 0.29688
vt 0.84375 0.31250
vt 0.87500 0.31250
vt 0.87500 0.29688
vt 0.89063 0.29688
vt 0.89063 0.31250
vt 0.92188 0.31250
vt 0.92188 0.29688
vt 0.93750 0.29688
vt 0.93750 0.31250
vt 0.96875 0.31250
vt 0.96875 0.29688
vt 0.98438 0.29688
vt 0.98438 0.31250
vt 0.82813 0.35938
vt 0.82813 0.34375
vt 0.84375 0.34375
vt 0.84375 0.35938
vt 0.87500 0.35938
vt 0.87500 0.34375
vt 0.89063 0.34375
vt 0.89063 0.35938
vt 0.92188 0.35938
vt 0.92188 0.34375
vt 0.93750 0.34375
vt 0.93750 0.35938
vt 0.96875 0.35938
vt 0.96875 0.34375
vt 0.98438 0.34375
vt 0.98438 0.35938
vt 0.82813 0.40625
vt 0.82813 0.39063
vt 0.84375 0.39063
vt 0.84375 0.40625
vt 0.87500 0.40625
vt 0.87500 0.39063
vt 0.89063 0.39063
vt 0.89063 0.40625
vt 0.92188 0.40625
vt 0.92188 0.39063
vt 0.93750 0.39063
vt 0.93750 0.40625
vt 0.96875 0.40625
vt 0.96875 0.39063
vt 0.98438 0.39063
vt 0.98438 0.40625
vt 0.81250 0.45313
vt 0.81250 0.43750
vt 0.82813 0.43750
vt 0.82813 0.45313
vt 0.85938 0.45313
vt 0.85938 0.43750
vt 0.87500 0.43750
vt 0.87500 0.45313
vt 0.90625 0.45313
vt 0.90625 0.43750
vt 0.92188 0.43750
vt 0.92188 0.45313

g Box_37
usemtl parkbench1_Material
f  1/141/2 2/142/2 3/143/2 4/144/2
f  5/145/2 6/146/2 7/147/2 8/148/2
f  9/137/2 10/138/2 11/139/2 12/140/2
f  13/129/2 14/130/2 15/131/2 16/132/2
f  17/89/2 18/90/2 19/91/2 20/92/2
f  21/101/2 22/102/2 23/103/2 24/104/2
f  24/9/2 25/10/2 26/11/2 27/12/2
f  14/25/2 28/26/2 29/27/2 30/28/2
f  11/53/2 31/54/2 32/55/2 33/56/2
f  34/49/2 35/50/2 36/51/2 10/52/2
f  18/189/2 13/190/2 37/191/2 38/192/2
f  22/185/2 17/186/2 39/187/2 40/188/2
f  41/165/1 42/166/1 43/167/1 44/168/1
f  45/169/1 46/170/1 47/171/1 48/172/1
f  49/97/1 50/98/1 51/99/1 52/100/1
f  53/109/1 54/110/1 55/111/1 56/112/1
f  57/105/1 58/106/1 59/107/1 60/108/1
f  61/85/1 62/86/1 63/87/1 64/88/1
f  65/13/1 66/14/1 4/15/1 61/16/1
f  67/61/1 68/62/1 69/63/1 3/64/1
f  70/33/1 71/34/1 72/35/1 49/36/1
f  2/57/1 73/58/1 74/59/1 75/60/1
f  76/65/1 77/66/1 78/67/1 51/68/1
f  79/237/1 1/238/1 80/239/1 55/240/1
f  81/241/1 82/242/1 56/243/1 59/244/1
f  83/229/1 84/230/1 60/231/1 63/232/1
f  27/5/3 26/6/3 68/7/3 65/8/3
f  30/17/3 29/18/3 73/19/3 79/20/3
f  85/45/3 32/46/3 71/47/3 70/48/3
f  66/181/3 67/182/3 33/183/3 85/184/3
f  10/73/3 36/74/3 77/75/3 76/76/3
f  44/233/3 43/234/3 6/235/3 5/236/3
f  48/245/3 47/246/3 10/247/3 9/248/3
f  38/257/3 37/258/3 82/259/3 81/260/3
f  40/261/3 39/262/3 84/263/3 83/264/3
f  64/1/4 74/2/4 28/3/4 21/4/4
f  54/21/4 69/22/4 25/23/4 15/24/4
f  50/69/4 72/70/4 31/71/4 11/72/4
f  52/29/4 78/30/4 35/31/4 86/32/4
f  86/177/4 34/178/4 75/179/4 80/180/4
f  8/249/4 7/250/4 42/251/4 41/252/4
f  12/253/4 11/254/4 46/255/4 45/256/4
f  58/201/4 53/202/4 16/203/4 19/204/4
f  62/205/4 57/206/4 20/207/4 23/208/4
f  85/121/5 70/122/5 87/123/5 9/124/5
f  27/81/5 65/82/5 64/83/5 21/84/5
f  4/125/5 41/126/5 88/127/5 80/128/5
f  8/117/5 45/118/5 89/119/5 90/120/5
f  16/161/5 53/162/5 82/163/5 37/164/5
f  20/157/5 57/158/5 84/159/5 39/160/5
f  66/37/5 85/38/5 12/39/5 4/40/5
f  48/77/5 87/78/5 52/79/5 89/80/5
f  44/193/5 5/194/5 90/195/5 88/196/5
f  42/113/6 3/114/6 75/115/6 91/116/6
f  46/93/6 7/94/6 92/95/6 93/96/6
f  50/153/6 11/154/6 10/155/6 76/156/6
f  54/173/6 15/174/6 30/175/6 79/176/6
f  58/149/6 19/150/6 38/151/6 81/152/6
f  62/133/6 23/134/6 40/135/6 83/136/6
f  33/41/6 67/42/6 3/43/6 11/44/6
f  68/197/6 26/198/6 25/199/6 69/200/6
f  71/209/6 32/210/6 31/211/6 72/212/6
f  73/221/6 29/222/6 28/223/6 74/224/6
f  77/225/6 36/226/6 35/227/6 78/228/6
f  6/213/6 43/214/6 91/215/6 92/216/6
f  10/217/6 47/218/6 93/219/6 34/220/6
