# This file was created with Minddesk Qubicle 2.0
# Get Qubicle at www.minddesk.com

mtllib roadcone3.mtl

vn 0.0 0.0 1.0
vn 0.0 0.0 -1.0
vn -1.0 0.0 0.0
vn 1.0 0.0 0.0
vn 0.0 1.0 0.0
vn 0.0 -1.0 0.0

v 1.50000 0.00000 -4.00000
v 1.50000 -3.00000 -4.00000
v -1.50000 -3.00000 -4.00000
v -1.50000 0.00000 -4.00000
v 1.50000 -3.00000 -5.00000
v 1.50000 -4.00000 -5.00000
v -1.50000 -4.00000 -5.00000
v -1.50000 -3.00000 -5.00000
v 1.50000 -3.00000 -1.00000
v 1.50000 -4.00000 -1.00000
v -1.50000 -4.00000 -1.00000
v -1.50000 -3.00000 -1.00000
v -0.50000 2.00000 -3.00000
v -0.50000 0.00000 -3.00000
v -1.50000 0.00000 -3.00000
v -1.50000 2.00000 -3.00000
v 0.50000 2.00000 -4.00000
v 0.50000 0.00000 -4.00000
v -0.50000 0.00000 -4.00000
v -0.50000 2.00000 -4.00000
v 0.50000 4.00000 -3.00000
v 0.50000 2.00000 -3.00000
v -0.50000 4.00000 -3.00000
v 1.50000 2.00000 -3.00000
v 1.50000 0.00000 -3.00000
v 0.50000 0.00000 -3.00000
v -1.50000 -4.00000 -4.00000
v -2.50000 -4.00000 -4.00000
v -2.50000 -3.00000 -4.00000
v 0.50000 -2.00000 -2.00000
v 0.50000 -3.00000 -2.00000
v -0.50000 -3.00000 -2.00000
v -0.50000 -2.00000 -2.00000
v 2.50000 -3.00000 -4.00000
v 2.50000 -4.00000 -4.00000
v 1.50000 -4.00000 -4.00000
v -1.50000 0.00000 -1.00000
v 1.50000 0.00000 -1.00000
v -1.50000 -3.00000 0.00000
v -1.50000 -4.00000 0.00000
v 1.50000 -4.00000 0.00000
v 1.50000 -3.00000 0.00000
v -1.50000 2.00000 -2.00000
v -1.50000 0.00000 -2.00000
v -0.50000 0.00000 -2.00000
v -0.50000 2.00000 -2.00000
v -0.50000 2.00000 -1.00000
v -0.50000 0.00000 -1.00000
v 0.50000 0.00000 -1.00000
v 0.50000 2.00000 -1.00000
v -0.50000 4.00000 -2.00000
v 0.50000 2.00000 -2.00000
v 0.50000 4.00000 -2.00000
v 0.50000 0.00000 -2.00000
v 1.50000 0.00000 -2.00000
v 1.50000 2.00000 -2.00000
v -2.50000 -3.00000 -1.00000
v -2.50000 -4.00000 -1.00000
v -0.50000 -2.00000 -3.00000
v -0.50000 -3.00000 -3.00000
v 0.50000 -3.00000 -3.00000
v 0.50000 -2.00000 -3.00000
v 2.50000 -4.00000 -1.00000
v 2.50000 -3.00000 -1.00000
v -1.50000 -3.00000 -2.00000
v -0.50000 -3.00000 -4.00000
v 0.50000 -3.00000 -1.00000
v 1.50000 -3.00000 -3.00000

vt 0.03125 0.12500
vt 0.03125 0.03125
vt 0.12500 0.03125
vt 0.12500 0.12500
vt 0.18750 0.12500
vt 0.18750 0.03125
vt 0.28125 0.03125
vt 0.28125 0.12500
vt 0.34375 0.12500
vt 0.34375 0.03125
vt 0.43750 0.03125
vt 0.43750 0.12500
vt 0.50000 0.12500
vt 0.50000 0.03125
vt 0.59375 0.03125
vt 0.59375 0.12500
vt 0.65625 0.12500
vt 0.65625 0.03125
vt 0.68750 0.03125
vt 0.68750 0.12500
vt 0.75000 0.12500
vt 0.75000 0.03125
vt 0.78125 0.03125
vt 0.78125 0.12500
vt 0.84375 0.12500
vt 0.84375 0.03125
vt 0.87500 0.03125
vt 0.87500 0.12500
vt 0.93750 0.12500
vt 0.93750 0.03125
vt 0.96875 0.03125
vt 0.96875 0.12500
vt 0.03125 0.25000
vt 0.03125 0.18750
vt 0.06250 0.18750
vt 0.06250 0.25000
vt 0.12500 0.25000
vt 0.12500 0.18750
vt 0.15625 0.18750
vt 0.15625 0.25000
vt 0.21875 0.25000
vt 0.21875 0.18750
vt 0.25000 0.18750
vt 0.25000 0.25000
vt 0.31250 0.25000
vt 0.31250 0.18750
vt 0.34375 0.18750
vt 0.34375 0.25000
vt 0.40625 0.25000
vt 0.40625 0.18750
vt 0.43750 0.18750
vt 0.43750 0.25000
vt 0.50000 0.25000
vt 0.50000 0.18750
vt 0.53125 0.18750
vt 0.53125 0.25000
vt 0.59375 0.25000
vt 0.59375 0.18750
vt 0.62500 0.18750
vt 0.62500 0.25000
vt 0.68750 0.25000
vt 0.68750 0.18750
vt 0.71875 0.18750
vt 0.71875 0.25000
vt 0.78125 0.25000
vt 0.78125 0.18750
vt 0.81250 0.18750
vt 0.81250 0.25000
vt 0.87500 0.25000
vt 0.87500 0.18750
vt 0.90625 0.18750
vt 0.90625 0.25000
vt 0.03125 0.37500
vt 0.03125 0.31250
vt 0.06250 0.31250
vt 0.06250 0.37500
vt 0.12500 0.37500
vt 0.12500 0.31250
vt 0.15625 0.31250
vt 0.15625 0.37500
vt 0.21875 0.37500
vt 0.21875 0.31250
vt 0.25000 0.31250
vt 0.25000 0.37500
vt 0.31250 0.37500
vt 0.31250 0.31250
vt 0.34375 0.31250
vt 0.34375 0.37500
vt 0.40625 0.37500
vt 0.40625 0.31250
vt 0.43750 0.31250
vt 0.43750 0.37500
vt 0.50000 0.37500
vt 0.50000 0.31250
vt 0.53125 0.31250
vt 0.53125 0.37500
vt 0.59375 0.37500
vt 0.59375 0.31250
vt 0.62500 0.31250
vt 0.62500 0.37500
vt 0.68750 0.37500
vt 0.68750 0.31250
vt 0.71875 0.31250
vt 0.71875 0.37500
vt 0.78125 0.34375
vt 0.78125 0.31250
vt 0.87500 0.31250
vt 0.87500 0.34375
vt 0.03125 0.46875
vt 0.03125 0.43750
vt 0.12500 0.43750
vt 0.12500 0.46875
vt 0.18750 0.46875
vt 0.18750 0.43750
vt 0.28125 0.43750
vt 0.28125 0.46875
vt 0.34375 0.46875
vt 0.34375 0.43750
vt 0.43750 0.43750
vt 0.43750 0.46875
vt 0.50000 0.46875
vt 0.50000 0.43750
vt 0.59375 0.43750
vt 0.59375 0.46875
vt 0.65625 0.46875
vt 0.65625 0.43750
vt 0.75000 0.43750
vt 0.75000 0.46875
vt 0.81250 0.46875
vt 0.81250 0.43750
vt 0.90625 0.43750
vt 0.90625 0.46875
vt 0.03125 0.56250
vt 0.03125 0.53125
vt 0.12500 0.53125
vt 0.12500 0.56250
vt 0.18750 0.56250
vt 0.18750 0.53125
vt 0.28125 0.53125
vt 0.28125 0.56250
vt 0.34375 0.56250
vt 0.34375 0.53125
vt 0.43750 0.53125
vt 0.43750 0.56250
vt 0.50000 0.56250
vt 0.50000 0.53125
vt 0.59375 0.53125
vt 0.59375 0.56250
vt 0.65625 0.56250
vt 0.65625 0.53125
vt 0.75000 0.53125
vt 0.75000 0.56250
vt 0.81250 0.56250
vt 0.81250 0.53125
vt 0.87500 0.53125
vt 0.87500 0.56250
vt 0.03125 0.65625
vt 0.03125 0.62500
vt 0.09375 0.62500
vt 0.09375 0.65625
vt 0.93750 0.34375
vt 0.93750 0.31250
vt 0.96875 0.31250
vt 0.96875 0.34375
vt 0.93750 0.56250
vt 0.93750 0.53125
vt 0.96875 0.53125
vt 0.96875 0.56250
vt 0.15625 0.65625
vt 0.15625 0.62500
vt 0.18750 0.62500
vt 0.18750 0.65625
vt 0.25000 0.65625
vt 0.25000 0.62500
vt 0.28125 0.62500
vt 0.28125 0.65625
vt 0.34375 0.65625
vt 0.34375 0.62500
vt 0.37500 0.62500
vt 0.37500 0.65625
vt 0.43750 0.65625
vt 0.43750 0.62500
vt 0.46875 0.62500
vt 0.46875 0.65625
vt 0.53125 0.65625
vt 0.53125 0.62500
vt 0.56250 0.62500
vt 0.56250 0.65625
vt 0.62500 0.65625
vt 0.62500 0.62500
vt 0.65625 0.62500
vt 0.65625 0.65625
vt 0.71875 0.65625
vt 0.71875 0.62500
vt 0.75000 0.62500
vt 0.75000 0.65625
vt 0.81250 0.65625
vt 0.81250 0.62500
vt 0.84375 0.62500
vt 0.84375 0.65625
vt 0.90625 0.65625
vt 0.90625 0.62500
vt 0.93750 0.62500
vt 0.93750 0.65625
vt 0.03125 0.75000
vt 0.03125 0.71875
vt 0.06250 0.71875
vt 0.06250 0.75000
vt 0.12500 0.75000
vt 0.12500 0.71875
vt 0.15625 0.71875
vt 0.15625 0.75000
vt 0.21875 0.75000
vt 0.21875 0.71875
vt 0.25000 0.71875
vt 0.25000 0.75000
vt 0.31250 0.75000
vt 0.31250 0.71875
vt 0.34375 0.71875
vt 0.34375 0.75000
vt 0.40625 0.75000
vt 0.40625 0.71875
vt 0.43750 0.71875
vt 0.43750 0.75000
vt 0.50000 0.75000
vt 0.50000 0.71875
vt 0.53125 0.71875
vt 0.53125 0.75000
vt 0.59375 0.75000
vt 0.59375 0.71875
vt 0.62500 0.71875
vt 0.62500 0.75000
vt 0.68750 0.75000
vt 0.68750 0.71875
vt 0.71875 0.71875
vt 0.71875 0.75000
vt 0.78125 0.75000
vt 0.78125 0.71875
vt 0.81250 0.71875
vt 0.81250 0.75000
vt 0.87500 0.75000
vt 0.87500 0.71875
vt 0.90625 0.71875
vt 0.90625 0.75000
vt 0.03125 0.84375
vt 0.03125 0.81250
vt 0.06250 0.81250
vt 0.06250 0.84375

g YellowMushroom_5
usemtl roadcone3_Material
f  1/9/2 2/10/2 3/11/2 4/12/2
f  5/129/2 6/130/2 7/131/2 8/132/2
f  9/133/2 10/134/2 11/135/2 12/136/2
f  13/85/2 14/86/2 15/87/2 16/88/2
f  17/101/2 18/102/2 19/103/2 20/104/2
f  21/97/2 22/98/2 13/99/2 23/100/2
f  24/89/2 25/90/2 26/91/2 22/92/2
f  3/173/2 27/174/2 28/175/2 29/176/2
f  30/169/2 31/170/2 32/171/2 33/172/2
f  34/165/2 35/166/2 36/167/2 2/168/2
f  37/13/1 12/14/1 9/15/1 38/16/1
f  3/145/1 27/146/1 36/147/1 2/148/1
f  39/113/1 40/114/1 41/115/1 42/116/1
f  43/45/1 44/46/1 45/47/1 46/48/1
f  47/33/1 48/34/1 49/35/1 50/36/1
f  51/77/1 46/78/1 52/79/1 53/80/1
f  52/81/1 54/82/1 55/83/1 56/84/1
f  57/177/1 58/178/1 11/179/1 12/180/1
f  59/225/1 60/226/1 61/227/1 62/228/1
f  9/229/1 10/230/1 63/231/1 64/232/1
f  4/1/3 3/2/3 12/3/3 37/4/3
f  29/117/3 28/118/3 58/119/3 57/120/3
f  2/109/3 36/110/3 10/111/3 9/112/3
f  16/73/3 15/74/3 44/75/3 43/76/3
f  20/93/3 19/94/3 14/95/3 13/96/3
f  46/37/3 45/38/3 48/39/3 47/40/3
f  23/41/3 13/42/3 46/43/3 51/44/3
f  8/217/3 7/218/3 27/219/3 3/220/3
f  12/221/3 11/222/3 40/223/3 39/224/3
f  62/241/3 61/242/3 31/243/3 30/244/3
f  38/5/4 9/6/4 2/7/4 1/8/4
f  12/105/4 11/106/4 27/107/4 3/108/4
f  64/141/4 63/142/4 35/143/4 34/144/4
f  22/53/4 26/54/4 18/55/4 17/56/4
f  50/49/4 49/50/4 54/51/4 52/52/4
f  53/57/4 52/58/4 22/59/4 21/60/4
f  56/65/4 55/66/4 25/67/4 24/68/4
f  33/245/4 32/246/4 60/247/4 59/248/4
f  2/233/4 36/234/4 6/235/4 5/236/4
f  42/237/4 41/238/4 10/239/4 9/240/4
f  29/25/5 57/26/5 12/27/5 3/28/5
f  8/137/5 3/138/5 2/139/5 5/140/5
f  12/125/5 39/126/5 42/127/5 9/128/5
f  2/17/5 9/18/5 64/19/5 34/20/5
f  4/213/5 15/214/5 14/215/5 19/216/5
f  44/189/5 37/190/5 48/191/5 45/192/5
f  16/193/5 43/194/5 46/195/5 13/196/5
f  20/181/5 13/182/5 22/183/5 17/184/5
f  46/185/5 47/186/5 50/187/5 52/188/5
f  23/205/5 51/206/5 53/207/5 21/208/5
f  18/209/5 26/210/5 25/211/5 1/212/5
f  54/197/5 49/198/5 38/199/5 55/200/5
f  22/201/5 52/202/5 56/203/5 24/204/5
f  58/21/6 28/22/6 27/23/6 11/24/6
f  27/121/6 7/122/6 6/123/6 36/124/6
f  40/149/6 11/150/6 10/151/6 41/152/6
f  10/29/6 36/30/6 35/31/6 63/32/6
f  65/69/6 3/70/6 66/71/6 32/72/6
f  12/153/6 65/154/6 31/155/6 67/156/6
f  60/157/6 66/158/6 2/159/6 68/160/6
f  67/61/6 61/62/6 68/63/6 9/64/6
f  33/161/6 59/162/6 62/163/6 30/164/6
