# This file was created with Minddesk Qubicle 2.0
# Get Qubicle at www.minddesk.com

mtllib Roundabout.mtl

vn 0.0 0.0 1.0
vn 0.0 0.0 -1.0
vn -1.0 0.0 0.0
vn 1.0 0.0 0.0
vn 0.0 1.0 0.0
vn 0.0 -1.0 0.0

v 5.50000 -3.50000 -21.00000
v 5.50000 -4.50000 -21.00000
v -5.50000 -4.50000 -21.00000
v -5.50000 -3.50000 -21.00000
v -7.50000 4.50000 -11.00000
v -7.50000 -3.50000 -11.00000
v -8.50000 -3.50000 -11.00000
v -8.50000 4.50000 -11.00000
v -0.50000 4.50000 -11.00000
v -0.50000 3.50000 -11.00000
v -7.50000 3.50000 -11.00000
v 0.50000 4.50000 -19.00000
v 0.50000 -3.50000 -19.00000
v -0.50000 -3.50000 -19.00000
v -0.50000 4.50000 -19.00000
v 0.50000 3.50000 -11.00000
v 0.50000 -3.50000 -11.00000
v -0.50000 -3.50000 -11.00000
v 0.50000 3.50000 -3.00000
v 0.50000 -3.50000 -3.00000
v -0.50000 -3.50000 -3.00000
v -0.50000 3.50000 -3.00000
v 8.50000 4.50000 -11.00000
v 8.50000 3.50000 -11.00000
v 0.50000 4.50000 -11.00000
v 8.50000 -3.50000 -11.00000
v 7.50000 -3.50000 -11.00000
v 7.50000 3.50000 -11.00000
v -5.50000 -3.50000 -20.00000
v -5.50000 -4.50000 -20.00000
v -7.50000 -4.50000 -20.00000
v -7.50000 -3.50000 -20.00000
v 7.50000 -3.50000 -20.00000
v 7.50000 -4.50000 -20.00000
v 5.50000 -4.50000 -20.00000
v 5.50000 -3.50000 -20.00000
v -9.50000 -3.50000 -16.00000
v -9.50000 -4.50000 -16.00000
v -10.50000 -4.50000 -16.00000
v -10.50000 -3.50000 -16.00000
v -8.50000 -3.50000 -18.00000
v -8.50000 -4.50000 -18.00000
v -9.50000 -4.50000 -18.00000
v -9.50000 -3.50000 -18.00000
v -7.50000 -3.50000 -19.00000
v -7.50000 -4.50000 -19.00000
v -8.50000 -4.50000 -19.00000
v -8.50000 -3.50000 -19.00000
v 0.50000 -4.50000 -11.00000
v 0.50000 -5.50000 -11.00000
v -0.50000 -5.50000 -11.00000
v -0.50000 -4.50000 -11.00000
v 0.50000 5.50000 -11.00000
v -0.50000 5.50000 -11.00000
v 8.50000 -3.50000 -19.00000
v 8.50000 -4.50000 -19.00000
v 7.50000 -4.50000 -19.00000
v 7.50000 -3.50000 -19.00000
v 9.50000 -3.50000 -18.00000
v 9.50000 -4.50000 -18.00000
v 8.50000 -4.50000 -18.00000
v 8.50000 -3.50000 -18.00000
v 10.50000 -3.50000 -16.00000
v 10.50000 -4.50000 -16.00000
v 9.50000 -4.50000 -16.00000
v 9.50000 -3.50000 -16.00000
v -5.50000 -3.50000 0.00000
v -5.50000 -4.50000 0.00000
v 5.50000 -4.50000 0.00000
v 5.50000 -3.50000 0.00000
v -8.50000 4.50000 -10.00000
v -8.50000 -3.50000 -10.00000
v -7.50000 -3.50000 -10.00000
v -7.50000 4.50000 -10.00000
v -7.50000 3.50000 -10.00000
v -0.50000 3.50000 -10.00000
v -0.50000 4.50000 -10.00000
v -0.50000 3.50000 -18.00000
v -0.50000 -3.50000 -18.00000
v 0.50000 -3.50000 -18.00000
v 0.50000 3.50000 -18.00000
v -0.50000 -3.50000 -10.00000
v 0.50000 -3.50000 -10.00000
v 0.50000 3.50000 -10.00000
v -0.50000 4.50000 -2.00000
v -0.50000 -3.50000 -2.00000
v 0.50000 -3.50000 -2.00000
v 0.50000 4.50000 -2.00000
v 0.50000 4.50000 -10.00000
v 8.50000 3.50000 -10.00000
v 8.50000 4.50000 -10.00000
v 7.50000 3.50000 -10.00000
v 7.50000 -3.50000 -10.00000
v 8.50000 -3.50000 -10.00000
v -7.50000 -3.50000 -1.00000
v -7.50000 -4.50000 -1.00000
v -5.50000 -4.50000 -1.00000
v -5.50000 -3.50000 -1.00000
v 5.50000 -3.50000 -1.00000
v 5.50000 -4.50000 -1.00000
v 7.50000 -4.50000 -1.00000
v 7.50000 -3.50000 -1.00000
v -10.50000 -3.50000 -5.00000
v -10.50000 -4.50000 -5.00000
v -9.50000 -4.50000 -5.00000
v -9.50000 -3.50000 -5.00000
v -9.50000 -3.50000 -3.00000
v -9.50000 -4.50000 -3.00000
v -8.50000 -4.50000 -3.00000
v -8.50000 -3.50000 -3.00000
v -8.50000 -3.50000 -2.00000
v -8.50000 -4.50000 -2.00000
v -7.50000 -4.50000 -2.00000
v -7.50000 -3.50000 -2.00000
v -0.50000 -4.50000 -10.00000
v -0.50000 -5.50000 -10.00000
v 0.50000 -5.50000 -10.00000
v 0.50000 -4.50000 -10.00000
v -0.50000 5.50000 -10.00000
v 0.50000 5.50000 -10.00000
v 7.50000 -3.50000 -2.00000
v 7.50000 -4.50000 -2.00000
v 8.50000 -4.50000 -2.00000
v 8.50000 -3.50000 -2.00000
v 8.50000 -3.50000 -3.00000
v 8.50000 -4.50000 -3.00000
v 9.50000 -4.50000 -3.00000
v 9.50000 -3.50000 -3.00000
v 9.50000 -3.50000 -5.00000
v 9.50000 -4.50000 -5.00000
v 10.50000 -4.50000 -5.00000
v 10.50000 -3.50000 -5.00000
v -0.50000 4.50000 -18.00000
v -0.50000 4.50000 -3.00000
v 0.50000 4.50000 -18.00000
v 0.50000 4.50000 -3.00000
v -0.50000 -3.50000 -1.00000
v -0.50000 -3.50000 -21.00000
v -8.50000 -3.50000 -8.00000
v -5.50000 -3.50000 -2.00000
v -5.50000 -3.50000 -8.00000
v -7.50000 -3.50000 -8.00000
v 3.50000 -3.50000 -21.00000
v 3.50000 -3.50000 -7.00000
v 5.50000 -3.50000 -7.00000
v 5.50000 -3.50000 -8.00000
v 7.50000 -3.50000 -8.00000
v -0.50000 -3.50000 -4.00000
v 9.50000 -3.50000 -4.00000
v 0.50000 -3.50000 -5.00000
v 0.50000 -3.50000 -4.00000
v 1.50000 -3.50000 -21.00000
v 1.50000 -3.50000 -15.00000
v 3.50000 -3.50000 -15.00000
v 1.50000 -3.50000 -6.00000
v 1.50000 -3.50000 -5.00000
v 10.50000 -3.50000 -6.00000
v -10.50000 -3.50000 -8.00000
v -9.50000 -3.50000 -8.00000
v -8.50000 -3.50000 -5.00000
v -9.50000 -3.50000 -10.00000
v -0.50000 -3.50000 -12.00000
v 0.50000 -3.50000 -12.00000
v 0.50000 -3.50000 -15.00000
v 2.50000 -3.50000 -12.00000
v 2.50000 -3.50000 -15.00000
v 1.50000 -3.50000 -11.00000
v 1.50000 -3.50000 -12.00000
v 2.50000 -3.50000 -6.00000
v 2.50000 -3.50000 -7.00000
v 10.50000 -3.50000 -7.00000
v 10.50000 -3.50000 -8.00000
v 9.50000 -3.50000 -10.00000
v 9.50000 -3.50000 -8.00000
v 1.50000 -3.50000 -19.00000
v -5.50000 -4.50000 -3.00000
v -0.50000 -4.50000 -21.00000
v -0.50000 -4.50000 -3.00000
v 1.50000 -4.50000 -3.00000
v 1.50000 -4.50000 -21.00000
v 5.50000 -4.50000 -3.00000
v -7.50000 -4.50000 -3.00000
v 1.50000 -4.50000 -11.00000
v 0.50000 -4.50000 0.00000
v 0.50000 -4.50000 -3.00000
v -9.50000 -4.50000 -8.00000
v -8.50000 -4.50000 -8.00000
v -8.50000 -4.50000 -5.00000
v -7.50000 -4.50000 -5.00000
v -4.50000 -4.50000 0.00000
v -4.50000 -4.50000 -3.00000
v -0.50000 -4.50000 0.00000
v -10.50000 -4.50000 -8.00000
v -4.50000 -4.50000 -2.00000
v -5.50000 -4.50000 -2.00000

vt 0.01563 0.32813
vt 0.01563 0.01563
vt 0.09375 0.01563
vt 0.09375 0.32813
vt 0.12500 0.31250
vt 0.12500 0.01563
vt 0.15625 0.01563
vt 0.15625 0.31250
vt 0.18750 0.29688
vt 0.18750 0.01563
vt 0.26563 0.01563
vt 0.26563 0.29688
vt 0.29688 0.29688
vt 0.29688 0.01563
vt 0.35938 0.01563
vt 0.35938 0.29688
vt 0.39063 0.28125
vt 0.39063 0.01563
vt 0.42188 0.01563
vt 0.42188 0.28125
vt 0.45313 0.28125
vt 0.45313 0.01563
vt 0.46875 0.01563
vt 0.46875 0.28125
vt 0.50000 0.25000
vt 0.50000 0.01563
vt 0.51563 0.01563
vt 0.51563 0.25000
vt 0.54688 0.23438
vt 0.54688 0.01563
vt 0.57813 0.01563
vt 0.57813 0.23438
vt 0.60938 0.23438
vt 0.60938 0.01563
vt 0.62500 0.01563
vt 0.62500 0.23438
vt 0.65625 0.20313
vt 0.65625 0.01563
vt 0.68750 0.01563
vt 0.68750 0.20313
vt 0.71875 0.20313
vt 0.71875 0.01563
vt 0.75000 0.01563
vt 0.75000 0.20313
vt 0.78125 0.18750
vt 0.78125 0.01563
vt 0.79688 0.01563
vt 0.79688 0.18750
vt 0.82813 0.17188
vt 0.82813 0.01563
vt 0.85938 0.01563
vt 0.85938 0.17188
vt 0.89063 0.17188
vt 0.89063 0.01563
vt 0.90625 0.01563
vt 0.90625 0.17188
vt 0.93750 0.17188
vt 0.93750 0.01563
vt 0.95313 0.01563
vt 0.95313 0.17188
vt 0.01563 0.48438
vt 0.01563 0.35938
vt 0.03125 0.35938
vt 0.03125 0.48438
vt 0.06250 0.48438
vt 0.06250 0.35938
vt 0.07813 0.35938
vt 0.07813 0.48438
vt 0.10938 0.48438
vt 0.10938 0.35938
vt 0.12500 0.35938
vt 0.12500 0.48438
vt 0.15625 0.48438
vt 0.15625 0.35938
vt 0.17188 0.35938
vt 0.17188 0.48438
vt 0.20313 0.48438
vt 0.20313 0.35938
vt 0.21875 0.35938
vt 0.21875 0.48438
vt 0.25000 0.48438
vt 0.25000 0.35938
vt 0.26563 0.35938
vt 0.26563 0.48438
vt 0.29688 0.48438
vt 0.29688 0.35938
vt 0.31250 0.35938
vt 0.31250 0.48438
vt 0.34375 0.48438
vt 0.34375 0.35938
vt 0.35938 0.35938
vt 0.35938 0.48438
vt 0.39063 0.48438
vt 0.39063 0.35938
vt 0.40625 0.35938
vt 0.40625 0.48438
vt 0.43750 0.48438
vt 0.43750 0.35938
vt 0.45313 0.35938
vt 0.45313 0.48438
vt 0.48438 0.48438
vt 0.48438 0.35938
vt 0.50000 0.35938
vt 0.50000 0.48438
vt 0.53125 0.48438
vt 0.53125 0.35938
vt 0.54688 0.35938
vt 0.54688 0.48438
vt 0.57813 0.48438
vt 0.57813 0.35938
vt 0.59375 0.35938
vt 0.59375 0.48438
vt 0.62500 0.48438
vt 0.62500 0.35938
vt 0.64063 0.35938
vt 0.64063 0.48438
vt 0.67188 0.48438
vt 0.67188 0.35938
vt 0.68750 0.35938
vt 0.68750 0.48438
vt 0.71875 0.48438
vt 0.71875 0.35938
vt 0.73438 0.35938
vt 0.73438 0.48438
vt 0.76563 0.48438
vt 0.76563 0.35938
vt 0.78125 0.35938
vt 0.78125 0.48438
vt 0.81250 0.48438
vt 0.81250 0.35938
vt 0.82813 0.35938
vt 0.82813 0.48438
vt 0.85938 0.48438
vt 0.85938 0.35938
vt 0.87500 0.35938
vt 0.87500 0.48438
vt 0.90625 0.48438
vt 0.90625 0.35938
vt 0.92188 0.35938
vt 0.92188 0.48438
vt 0.95313 0.48438
vt 0.95313 0.35938
vt 0.96875 0.35938
vt 0.96875 0.48438
vt 0.01563 0.62500
vt 0.01563 0.51563
vt 0.03125 0.51563
vt 0.03125 0.62500
vt 0.06250 0.62500
vt 0.06250 0.51563
vt 0.07813 0.51563
vt 0.07813 0.62500
vt 0.10938 0.62500
vt 0.10938 0.51563
vt 0.12500 0.51563
vt 0.12500 0.62500
vt 0.15625 0.62500
vt 0.15625 0.51563
vt 0.17188 0.51563
vt 0.17188 0.62500
vt 0.20313 0.62500
vt 0.20313 0.51563
vt 0.21875 0.51563
vt 0.21875 0.62500
vt 0.25000 0.62500
vt 0.25000 0.51563
vt 0.26563 0.51563
vt 0.26563 0.62500
vt 0.29688 0.62500
vt 0.29688 0.51563
vt 0.31250 0.51563
vt 0.31250 0.62500
vt 0.34375 0.62500
vt 0.34375 0.51563
vt 0.35938 0.51563
vt 0.35938 0.62500
vt 0.39063 0.62500
vt 0.39063 0.51563
vt 0.40625 0.51563
vt 0.40625 0.62500
vt 0.43750 0.62500
vt 0.43750 0.51563
vt 0.45313 0.51563
vt 0.45313 0.62500
vt 0.48438 0.62500
vt 0.48438 0.51563
vt 0.50000 0.51563
vt 0.50000 0.62500
vt 0.53125 0.62500
vt 0.53125 0.51563
vt 0.54688 0.51563
vt 0.54688 0.62500
vt 0.57813 0.60938
vt 0.57813 0.51563
vt 0.62500 0.51563
vt 0.62500 0.60938
vt 0.65625 0.60938
vt 0.65625 0.51563
vt 0.68750 0.51563
vt 0.68750 0.60938
vt 0.71875 0.60938
vt 0.71875 0.51563
vt 0.73438 0.51563
vt 0.73438 0.60938
vt 0.76563 0.60938
vt 0.76563 0.51563
vt 0.78125 0.51563
vt 0.78125 0.60938
vt 0.81250 0.60938
vt 0.81250 0.51563
vt 0.82813 0.51563
vt 0.82813 0.60938
vt 0.85938 0.60938
vt 0.85938 0.51563
vt 0.87500 0.51563
vt 0.87500 0.60938
vt 0.90625 0.57813
vt 0.90625 0.51563
vt 0.92188 0.51563
vt 0.92188 0.57813
vt 0.01563 0.70313
vt 0.01563 0.65625
vt 0.09375 0.65625
vt 0.09375 0.70313
vt 0.12500 0.70313
vt 0.12500 0.65625
vt 0.18750 0.65625
vt 0.18750 0.70313
vt 0.95313 0.56250
vt 0.95313 0.51563
vt 0.98438 0.51563
vt 0.98438 0.56250
vt 0.21875 0.70313
vt 0.21875 0.65625
vt 0.25000 0.65625
vt 0.25000 0.70313
vt 0.28125 0.70313
vt 0.28125 0.65625
vt 0.31250 0.65625
vt 0.31250 0.70313
vt 0.34375 0.68750
vt 0.34375 0.65625
vt 0.37500 0.65625
vt 0.37500 0.68750
vt 0.40625 0.68750
vt 0.40625 0.65625
vt 0.43750 0.65625
vt 0.43750 0.68750
vt 0.46875 0.68750
vt 0.46875 0.65625
vt 0.50000 0.65625
vt 0.50000 0.68750
vt 0.53125 0.68750
vt 0.53125 0.65625
vt 0.56250 0.65625
vt 0.56250 0.68750
vt 0.59375 0.68750
vt 0.59375 0.65625
vt 0.60938 0.65625
vt 0.60938 0.68750
vt 0.64063 0.68750
vt 0.64063 0.65625
vt 0.65625 0.65625
vt 0.65625 0.68750
vt 0.68750 0.67188
vt 0.68750 0.65625
vt 0.85938 0.65625
vt 0.85938 0.67188
vt 0.01563 0.75000
vt 0.01563 0.73438
vt 0.18750 0.73438
vt 0.18750 0.75000
vt 0.21875 0.75000
vt 0.21875 0.73438
vt 0.39063 0.73438
vt 0.39063 0.75000
vt 0.42188 0.75000
vt 0.42188 0.73438
vt 0.59375 0.73438
vt 0.59375 0.75000
vt 0.62500 0.75000
vt 0.62500 0.73438
vt 0.79688 0.73438
vt 0.79688 0.75000
vt 0.82813 0.75000
vt 0.82813 0.73438
vt 0.98438 0.73438
vt 0.98438 0.75000
vt 0.01563 0.79688
vt 0.01563 0.78125
vt 0.15625 0.78125
vt 0.15625 0.79688
vt 0.18750 0.79688
vt 0.18750 0.78125
vt 0.32813 0.78125
vt 0.32813 0.79688
vt 0.35938 0.79688
vt 0.35938 0.78125
vt 0.48438 0.78125
vt 0.48438 0.79688
vt 0.51563 0.79688
vt 0.51563 0.78125
vt 0.64063 0.78125
vt 0.64063 0.79688
vt 0.67188 0.79688
vt 0.67188 0.78125
vt 0.79688 0.78125
vt 0.79688 0.79688
vt 0.82813 0.79688
vt 0.82813 0.78125
vt 0.95313 0.78125
vt 0.95313 0.79688
vt 0.01563 0.84375
vt 0.01563 0.82813
vt 0.14063 0.82813
vt 0.14063 0.84375
vt 0.17188 0.84375
vt 0.17188 0.82813
vt 0.29688 0.82813
vt 0.29688 0.84375
vt 0.32813 0.84375
vt 0.32813 0.82813
vt 0.45313 0.82813
vt 0.45313 0.84375
vt 0.48438 0.84375
vt 0.48438 0.82813
vt 0.59375 0.82813
vt 0.59375 0.84375
vt 0.62500 0.84375
vt 0.62500 0.82813
vt 0.73438 0.82813
vt 0.73438 0.84375
vt 0.76563 0.84375
vt 0.76563 0.82813
vt 0.87500 0.82813
vt 0.87500 0.84375
vt 0.01563 0.89063
vt 0.01563 0.87500
vt 0.12500 0.87500
vt 0.12500 0.89063
vt 0.15625 0.89063
vt 0.15625 0.87500
vt 0.26563 0.87500
vt 0.26563 0.89063
vt 0.29688 0.89063
vt 0.29688 0.87500
vt 0.40625 0.87500
vt 0.40625 0.89063
vt 0.43750 0.89063
vt 0.43750 0.87500
vt 0.54688 0.87500
vt 0.54688 0.89063
vt 0.57813 0.89063
vt 0.57813 0.87500
vt 0.68750 0.87500
vt 0.68750 0.89063
vt 0.89063 0.67188
vt 0.89063 0.65625
vt 0.96875 0.65625
vt 0.96875 0.67188
vt 0.90625 0.84375
vt 0.90625 0.82813
vt 0.96875 0.82813
vt 0.96875 0.84375
vt 0.71875 0.89063
vt 0.71875 0.87500
vt 0.75000 0.87500
vt 0.75000 0.89063
vt 0.78125 0.89063
vt 0.78125 0.87500
vt 0.81250 0.87500
vt 0.81250 0.89063
vt 0.84375 0.89063
vt 0.84375 0.87500
vt 0.87500 0.87500
vt 0.87500 0.89063
vt 0.90625 0.89063
vt 0.90625 0.87500
vt 0.93750 0.87500
vt 0.93750 0.89063
vt 0.01563 0.93750
vt 0.01563 0.92188
vt 0.04688 0.92188
vt 0.04688 0.93750
vt 0.07813 0.93750
vt 0.07813 0.92188
vt 0.10938 0.92188
vt 0.10938 0.93750
vt 0.14063 0.93750
vt 0.14063 0.92188
vt 0.17188 0.92188
vt 0.17188 0.93750
vt 0.20313 0.93750
vt 0.20313 0.92188
vt 0.23438 0.92188
vt 0.23438 0.93750
vt 0.26563 0.93750
vt 0.26563 0.92188
vt 0.29688 0.92188
vt 0.29688 0.93750
vt 0.32813 0.93750
vt 0.32813 0.92188
vt 0.35938 0.92188
vt 0.35938 0.93750
vt 0.39063 0.93750
vt 0.39063 0.92188
vt 0.42188 0.92188
vt 0.42188 0.93750
vt 0.96875 0.89063
vt 0.96875 0.87500
vt 0.98438 0.87500
vt 0.98438 0.89063
vt 0.45313 0.93750
vt 0.45313 0.92188
vt 0.46875 0.92188
vt 0.46875 0.93750
vt 0.50000 0.93750
vt 0.50000 0.92188
vt 0.51563 0.92188
vt 0.51563 0.93750
vt 0.54688 0.93750
vt 0.54688 0.92188
vt 0.56250 0.92188
vt 0.56250 0.93750
vt 0.59375 0.93750
vt 0.59375 0.92188
vt 0.60938 0.92188
vt 0.60938 0.93750
vt 0.64063 0.93750
vt 0.64063 0.92188
vt 0.65625 0.92188
vt 0.65625 0.93750
vt 0.68750 0.93750
vt 0.68750 0.92188
vt 0.70313 0.92188
vt 0.70313 0.93750
vt 0.73438 0.93750
vt 0.73438 0.92188
vt 0.75000 0.92188
vt 0.75000 0.93750
vt 0.78125 0.93750
vt 0.78125 0.92188
vt 0.79688 0.92188
vt 0.79688 0.93750
vt 0.82813 0.93750
vt 0.82813 0.92188
vt 0.84375 0.92188
vt 0.84375 0.93750
vt 0.87500 0.93750
vt 0.87500 0.92188
vt 0.89063 0.92188
vt 0.89063 0.93750
vt 0.92188 0.93750
vt 0.92188 0.92188
vt 0.93750 0.92188
vt 0.93750 0.93750
vt 0.96875 0.93750
vt 0.96875 0.92188
vt 0.98438 0.92188
vt 0.98438 0.93750
vt 0.01563 0.98438
vt 0.01563 0.96875
vt 0.03125 0.96875
vt 0.03125 0.98438
vt 0.06250 0.98438
vt 0.06250 0.96875
vt 0.07813 0.96875
vt 0.07813 0.98438
vt 0.10938 0.98438
vt 0.10938 0.96875
vt 0.12500 0.96875
vt 0.12500 0.98438
vt 0.15625 0.98438
vt 0.15625 0.96875
vt 0.17188 0.96875
vt 0.17188 0.98438
vt 0.20313 0.98438
vt 0.20313 0.96875
vt 0.21875 0.96875
vt 0.21875 0.98438
vt 0.25000 0.98438
vt 0.25000 0.96875
vt 0.26563 0.96875
vt 0.26563 0.98438
vt 0.29688 0.98438
vt 0.29688 0.96875
vt 0.31250 0.96875
vt 0.31250 0.98438
vt 0.34375 0.98438
vt 0.34375 0.96875
vt 0.35938 0.96875
vt 0.35938 0.98438
vt 0.39063 0.98438
vt 0.39063 0.96875
vt 0.40625 0.96875
vt 0.40625 0.98438
vt 0.43750 0.98438
vt 0.43750 0.96875
vt 0.45313 0.96875
vt 0.45313 0.98438
vt 0.48438 0.98438
vt 0.48438 0.96875
vt 0.50000 0.96875
vt 0.50000 0.98438
vt 0.53125 0.98438
vt 0.53125 0.96875
vt 0.54688 0.96875
vt 0.54688 0.98438
vt 0.57813 0.98438
vt 0.57813 0.96875
vt 0.59375 0.96875
vt 0.59375 0.98438
vt 0.62500 0.98438
vt 0.62500 0.96875
vt 0.64063 0.96875
vt 0.64063 0.98438
vt 0.67188 0.98438
vt 0.67188 0.96875
vt 0.68750 0.96875
vt 0.68750 0.98438
vt 0.71875 0.98438
vt 0.71875 0.96875
vt 0.73438 0.96875
vt 0.73438 0.98438
vt 0.76563 0.98438
vt 0.76563 0.96875
vt 0.78125 0.96875
vt 0.78125 0.98438
vt 0.81250 0.98438
vt 0.81250 0.96875
vt 0.82813 0.96875
vt 0.82813 0.98438
vt 0.85938 0.98438
vt 0.85938 0.96875
vt 0.87500 0.96875
vt 0.87500 0.98438
vt 0.90625 0.98438
vt 0.90625 0.96875
vt 0.92188 0.96875
vt 0.92188 0.98438
vt 0.95313 0.98438
vt 0.95313 0.96875
vt 0.96875 0.96875
vt 0.96875 0.98438

g Cylinder
usemtl Roundabout_Material
f  1/265/2 2/266/2 3/267/2 4/268/2
f  5/137/2 6/138/2 7/139/2 8/140/2
f  9/353/2 10/354/2 11/355/2 5/356/2
f  12/85/2 13/86/2 14/87/2 15/88/2
f  16/189/2 17/190/2 18/191/2 10/192/2
f  19/165/2 20/166/2 21/167/2 22/168/2
f  23/313/2 24/314/2 16/315/2 25/316/2
f  24/161/2 26/162/2 27/163/2 28/164/2
f  29/405/2 30/406/2 31/407/2 32/408/2
f  33/401/2 34/402/2 35/403/2 36/404/2
f  37/409/2 38/410/2 39/411/2 40/412/2
f  41/429/2 42/430/2 43/431/2 44/432/2
f  45/433/2 46/434/2 47/435/2 48/436/2
f  49/437/2 50/438/2 51/439/2 52/440/2
f  53/425/2 25/426/2 9/427/2 54/428/2
f  55/413/2 56/414/2 57/415/2 58/416/2
f  59/417/2 60/418/2 61/419/2 62/420/2
f  63/421/2 64/422/2 65/423/2 66/424/2
f  67/273/1 68/274/1 69/275/1 70/276/1
f  71/133/1 72/134/1 73/135/1 74/136/1
f  74/333/1 75/334/1 76/335/1 77/336/1
f  78/157/1 79/158/1 80/159/1 81/160/1
f  76/153/1 82/154/1 83/155/1 84/156/1
f  85/141/1 86/142/1 87/143/1 88/144/1
f  89/317/1 84/318/1 90/319/1 91/320/1
f  92/145/1 93/146/1 94/147/1 90/148/1
f  95/365/1 96/366/1 97/367/1 98/368/1
f  99/369/1 100/370/1 101/371/1 102/372/1
f  103/505/1 104/506/1 105/507/1 106/508/1
f  107/509/1 108/510/1 109/511/1 110/512/1
f  111/513/1 112/514/1 113/515/1 114/516/1
f  115/493/1 116/494/1 117/495/1 118/496/1
f  119/497/1 77/498/1 89/499/1 120/500/1
f  121/501/1 122/502/1 123/503/1 124/504/1
f  125/517/1 126/518/1 127/519/1 128/520/1
f  129/533/1 130/534/1 131/535/1 132/536/1
f  40/269/3 39/270/3 104/271/3 103/272/3
f  8/121/3 7/122/3 72/123/3 71/124/3
f  15/125/3 14/126/3 79/127/3 133/128/3
f  10/181/3 18/182/3 82/183/3 76/184/3
f  134/117/3 21/118/3 86/119/3 85/120/3
f  133/349/3 78/350/3 10/351/3 9/352/3
f  77/341/3 76/342/3 22/343/3 134/344/3
f  28/177/3 27/178/3 93/179/3 92/180/3
f  44/397/3 43/398/3 38/399/3 37/400/3
f  106/393/3 105/394/3 108/395/3 107/396/3
f  48/537/3 47/538/3 42/539/3 41/540/3
f  110/541/3 109/542/3 112/543/3 111/544/3
f  32/521/3 31/522/3 46/523/3 45/524/3
f  114/525/3 113/526/3 96/527/3 95/528/3
f  4/529/3 3/530/3 30/531/3 29/532/3
f  98/453/3 97/454/3 68/455/3 67/456/3
f  52/457/3 51/458/3 116/459/3 115/460/3
f  54/461/3 9/462/3 77/463/3 119/464/3
f  132/277/4 131/278/4 64/279/4 63/280/4
f  75/173/4 73/174/4 6/175/4 11/176/4
f  135/109/4 80/110/4 13/111/4 12/112/4
f  84/169/4 83/170/4 17/171/4 16/172/4
f  88/73/4 87/74/4 20/75/4 136/76/4
f  25/345/4 16/346/4 81/347/4 135/348/4
f  136/337/4 19/338/4 84/339/4 89/340/4
f  91/77/4 94/78/4 26/79/4 23/80/4
f  66/377/4 65/378/4 60/379/4 59/380/4
f  128/381/4 127/382/4 130/383/4 129/384/4
f  118/441/4 117/442/4 50/443/4 49/444/4
f  120/445/4 89/446/4 25/447/4 53/448/4
f  36/449/4 35/450/4 2/451/4 1/452/4
f  70/465/4 69/466/4 100/467/4 99/468/4
f  58/481/4 57/482/4 34/483/4 33/484/4
f  102/485/4 101/486/4 122/487/4 121/488/4
f  62/489/4 61/490/4 56/491/4 55/492/4
f  124/469/4 123/470/4 126/471/4 125/472/4
f  4/1/5 98/2/5 137/3/5 138/4/5
f  139/193/5 111/194/5 140/195/5 141/196/5
f  32/41/5 142/42/5 141/43/5 29/44/5
f  143/29/5 144/30/5 145/31/5 1/32/5
f  36/37/5 146/38/5 147/39/5 33/40/5
f  98/281/5 67/282/5 70/283/5 99/284/5
f  148/285/5 21/286/5 128/287/5 149/288/5
f  150/289/5 151/290/5 149/291/5 129/292/5
f  152/197/5 153/198/5 154/199/5 143/200/5
f  155/293/5 156/294/5 132/295/5 157/296/5
f  40/65/5 158/66/5 159/67/5 37/68/5
f  158/233/5 103/234/5 160/235/5 139/236/5
f  44/61/5 161/62/5 72/63/5 41/64/5
f  48/81/5 7/82/5 6/83/5 45/84/5
f  8/297/5 71/298/5 77/299/5 9/300/5
f  79/213/5 162/214/5 163/215/5 80/216/5
f  82/201/5 148/202/5 151/203/5 83/204/5
f  86/305/5 137/306/5 102/307/5 121/308/5
f  15/69/5 9/70/5 25/71/5 12/72/5
f  77/105/5 85/106/5 88/107/5 89/108/5
f  164/229/5 163/230/5 165/231/5 166/232/5
f  17/205/5 150/206/5 156/207/5 167/208/5
f  20/309/5 87/310/5 124/311/5 125/312/5
f  25/301/5 89/302/5 91/303/5 23/304/5
f  168/209/5 155/210/5 169/211/5 165/212/5
f  166/97/5 170/98/5 144/99/5 154/100/5
f  170/321/5 169/322/5 157/323/5 171/324/5
f  146/357/5 145/358/5 171/359/5 172/360/5
f  58/89/5 27/90/5 26/91/5 55/92/5
f  62/93/5 94/94/5 173/95/5 59/96/5
f  66/101/5 174/102/5 172/103/5 63/104/5
f  161/249/5 159/250/5 142/251/5 73/252/5
f  138/241/5 14/242/5 175/243/5 152/244/5
f  13/217/5 164/218/5 153/219/5 175/220/5
f  93/245/5 147/246/5 174/247/5 173/248/5
f  106/257/5 107/258/5 110/259/5 160/260/5
f  114/389/5 95/390/5 98/391/5 140/392/5
f  162/385/5 18/386/5 167/387/5 168/388/5
f  54/473/5 119/474/5 120/475/5 53/476/5
f  176/9/6 3/10/6 177/11/6 178/12/6
f  179/13/6 180/14/6 2/15/6 181/16/6
f  182/17/6 31/18/6 30/19/6 176/20/6
f  100/5/6 35/6/6 34/7/6 101/8/6
f  52/49/6 177/50/6 180/51/6 183/52/6
f  184/221/6 185/222/6 181/223/6 69/224/6
f  122/21/6 57/22/6 56/23/6 123/24/6
f  186/53/6 43/54/6 42/55/6 187/56/6
f  188/33/6 47/34/6 46/35/6 189/36/6
f  190/225/6 191/226/6 178/227/6 192/228/6
f  192/57/6 115/58/6 118/59/6 184/60/6
f  126/25/6 61/26/6 60/27/6 127/28/6
f  130/45/6 65/46/6 64/47/6 131/48/6
f  193/113/6 39/114/6 38/115/6 186/116/6
f  104/237/6 193/238/6 187/239/6 188/240/6
f  75/325/6 11/326/6 10/327/6 76/328/6
f  10/185/6 78/186/6 81/187/6 16/188/6
f  22/149/6 76/150/6 84/151/6 19/152/6
f  185/129/6 49/130/6 183/131/6 179/132/6
f  84/329/6 16/330/6 28/331/6 92/332/6
f  108/253/6 105/254/6 189/255/6 182/256/6
f  112/361/6 109/362/6 191/363/6 194/364/6
f  96/373/6 113/374/6 195/375/6 97/376/6
f  68/261/6 195/262/6 194/263/6 190/264/6
f  116/477/6 51/478/6 50/479/6 117/480/6
