# This file was created with Minddesk Qubicle 2.0
# Get Qubicle at www.minddesk.com

mtllib skategrind.mtl

vn 0.0 0.0 1.0
vn 0.0 0.0 -1.0
vn -1.0 0.0 0.0
vn 1.0 0.0 0.0
vn 0.0 1.0 0.0
vn 0.0 -1.0 0.0

v 10.50000 2.00000 -1.00000
v 10.50000 1.00000 -1.00000
v -9.50000 1.00000 -1.00000
v -9.50000 2.00000 -1.00000
v -9.50000 -2.00000 -1.00000
v -10.50000 -2.00000 -1.00000
v -10.50000 2.00000 -1.00000
v 10.50000 -2.00000 -1.00000
v 9.50000 -2.00000 -1.00000
v 9.50000 1.00000 -1.00000
v -9.50000 2.00000 0.00000
v -9.50000 1.00000 0.00000
v 10.50000 1.00000 0.00000
v 10.50000 2.00000 0.00000
v -10.50000 2.00000 0.00000
v -10.50000 -2.00000 0.00000
v -9.50000 -2.00000 0.00000
v 9.50000 1.00000 0.00000
v 9.50000 -2.00000 0.00000
v 10.50000 -2.00000 0.00000

vt 0.03125 0.15625
vt 0.03125 0.03125
vt 0.06250 0.03125
vt 0.06250 0.15625
vt 0.12500 0.15625
vt 0.12500 0.03125
vt 0.15625 0.03125
vt 0.15625 0.15625
vt 0.21875 0.15625
vt 0.21875 0.03125
vt 0.25000 0.03125
vt 0.25000 0.15625
vt 0.31250 0.15625
vt 0.31250 0.03125
vt 0.34375 0.03125
vt 0.34375 0.15625
vt 0.40625 0.12500
vt 0.40625 0.03125
vt 0.43750 0.03125
vt 0.43750 0.12500
vt 0.50000 0.12500
vt 0.50000 0.03125
vt 0.53125 0.03125
vt 0.53125 0.12500
vt 0.59375 0.12500
vt 0.59375 0.03125
vt 0.62500 0.03125
vt 0.62500 0.12500
vt 0.68750 0.12500
vt 0.68750 0.03125
vt 0.71875 0.03125
vt 0.71875 0.12500
vt 0.03125 0.25000
vt 0.03125 0.21875
vt 0.68750 0.21875
vt 0.68750 0.25000
vt 0.03125 0.34375
vt 0.03125 0.31250
vt 0.65625 0.31250
vt 0.65625 0.34375
vt 0.03125 0.43750
vt 0.03125 0.40625
vt 0.65625 0.40625
vt 0.65625 0.43750
vt 0.03125 0.53125
vt 0.03125 0.50000
vt 0.62500 0.50000
vt 0.62500 0.53125
vt 0.78125 0.06250
vt 0.78125 0.03125
vt 0.81250 0.03125
vt 0.81250 0.06250
vt 0.87500 0.06250
vt 0.87500 0.03125
vt 0.90625 0.03125
vt 0.90625 0.06250

g Box_34
usemtl skategrind_Material
f  1/41/2 2/42/2 3/43/2 4/44/2
f  4/9/2 5/10/2 6/11/2 7/12/2
f  2/21/2 8/22/2 9/23/2 10/24/2
f  11/37/1 12/38/1 13/39/1 14/40/1
f  15/13/1 16/14/1 17/15/1 11/16/1
f  18/17/1 19/18/1 20/19/1 13/20/1
f  7/1/3 6/2/3 16/3/3 15/4/3
f  10/25/3 9/26/3 19/27/3 18/28/3
f  12/29/4 17/30/4 5/31/4 3/32/4
f  14/5/4 20/6/4 8/7/4 1/8/4
f  7/33/5 15/34/5 14/35/5 1/36/5
f  12/45/6 3/46/6 10/47/6 18/48/6
f  16/53/6 6/54/6 5/55/6 17/56/6
f  19/49/6 9/50/6 8/51/6 20/52/6
