# This file was created with Minddesk Qubicle 2.0
# Get Qubicle at www.minddesk.com

mtllib skateboard1.mtl

vn 0.0 0.0 1.0
vn 0.0 0.0 -1.0
vn -1.0 0.0 0.0
vn 1.0 0.0 0.0
vn 0.0 1.0 0.0
vn 0.0 -1.0 0.0

v 2.00000 1.00000 -4.00000
v 2.00000 0.00000 -4.00000
v -4.00000 0.00000 -4.00000
v -4.00000 1.00000 -4.00000
v 3.00000 1.00000 -4.00000
v 3.00000 -1.00000 -4.00000
v 2.00000 -1.00000 -4.00000
v -4.00000 1.00000 -3.00000
v -4.00000 0.00000 -3.00000
v -5.00000 0.00000 -3.00000
v -5.00000 1.00000 -3.00000
v -2.00000 0.00000 -4.00000
v -2.00000 -1.00000 -4.00000
v -3.00000 -1.00000 -4.00000
v -3.00000 0.00000 -4.00000
v 4.00000 1.00000 -4.00000
v 4.00000 0.00000 -4.00000
v 3.00000 0.00000 -4.00000
v 5.00000 1.00000 -3.00000
v 5.00000 0.00000 -3.00000
v 4.00000 0.00000 -3.00000
v 4.00000 1.00000 -3.00000
v -4.00000 1.00000 0.00000
v -4.00000 0.00000 0.00000
v 2.00000 0.00000 0.00000
v 2.00000 1.00000 0.00000
v 2.00000 -1.00000 0.00000
v 3.00000 -1.00000 0.00000
v 3.00000 1.00000 0.00000
v -5.00000 1.00000 -1.00000
v -5.00000 0.00000 -1.00000
v -4.00000 0.00000 -1.00000
v -4.00000 1.00000 -1.00000
v -3.00000 0.00000 0.00000
v -3.00000 -1.00000 0.00000
v -2.00000 -1.00000 0.00000
v -2.00000 0.00000 0.00000
v 3.00000 0.00000 0.00000
v 4.00000 0.00000 0.00000
v 4.00000 1.00000 0.00000
v 4.00000 1.00000 -1.00000
v 4.00000 0.00000 -1.00000
v 5.00000 0.00000 -1.00000
v 5.00000 1.00000 -1.00000

vt 0.03125 0.15625
vt 0.03125 0.03125
vt 0.28125 0.03125
vt 0.28125 0.15625
vt 0.34375 0.15625
vt 0.34375 0.03125
vt 0.46875 0.03125
vt 0.46875 0.15625
vt 0.53125 0.15625
vt 0.53125 0.03125
vt 0.56250 0.03125
vt 0.56250 0.15625
vt 0.62500 0.15625
vt 0.62500 0.03125
vt 0.65625 0.03125
vt 0.65625 0.15625
vt 0.71875 0.15625
vt 0.71875 0.03125
vt 0.75000 0.03125
vt 0.75000 0.15625
vt 0.81250 0.15625
vt 0.81250 0.03125
vt 0.84375 0.03125
vt 0.84375 0.15625
vt 0.90625 0.09375
vt 0.90625 0.03125
vt 0.93750 0.03125
vt 0.93750 0.09375
vt 0.03125 0.28125
vt 0.03125 0.21875
vt 0.06250 0.21875
vt 0.06250 0.28125
vt 0.12500 0.28125
vt 0.12500 0.21875
vt 0.15625 0.21875
vt 0.15625 0.28125
vt 0.21875 0.28125
vt 0.21875 0.21875
vt 0.25000 0.21875
vt 0.25000 0.28125
vt 0.31250 0.28125
vt 0.31250 0.21875
vt 0.34375 0.21875
vt 0.34375 0.28125
vt 0.40625 0.28125
vt 0.40625 0.21875
vt 0.43750 0.21875
vt 0.43750 0.28125
vt 0.50000 0.25000
vt 0.50000 0.21875
vt 0.68750 0.21875
vt 0.68750 0.25000
vt 0.75000 0.25000
vt 0.75000 0.21875
vt 0.93750 0.21875
vt 0.93750 0.25000
vt 0.03125 0.37500
vt 0.03125 0.34375
vt 0.15625 0.34375
vt 0.15625 0.37500
vt 0.21875 0.37500
vt 0.21875 0.34375
vt 0.34375 0.34375
vt 0.34375 0.37500
vt 0.40625 0.37500
vt 0.40625 0.34375
vt 0.53125 0.34375
vt 0.53125 0.37500
vt 0.59375 0.37500
vt 0.59375 0.34375
vt 0.71875 0.34375
vt 0.71875 0.37500
vt 0.78125 0.37500
vt 0.78125 0.34375
vt 0.84375 0.34375
vt 0.84375 0.37500
vt 0.90625 0.37500
vt 0.90625 0.34375
vt 0.96875 0.34375
vt 0.96875 0.37500
vt 0.03125 0.46875
vt 0.03125 0.43750
vt 0.06250 0.43750
vt 0.06250 0.46875
vt 0.12500 0.46875
vt 0.12500 0.43750
vt 0.15625 0.43750
vt 0.15625 0.46875
vt 0.21875 0.46875
vt 0.21875 0.43750
vt 0.25000 0.43750
vt 0.25000 0.46875
vt 0.31250 0.46875
vt 0.31250 0.43750
vt 0.34375 0.43750
vt 0.34375 0.46875
vt 0.40625 0.46875
vt 0.40625 0.43750
vt 0.43750 0.43750
vt 0.43750 0.46875
vt 0.50000 0.46875
vt 0.50000 0.43750
vt 0.53125 0.43750
vt 0.53125 0.46875
vt 0.59375 0.46875
vt 0.59375 0.43750
vt 0.62500 0.43750
vt 0.62500 0.46875
vt 0.68750 0.46875
vt 0.68750 0.43750
vt 0.71875 0.43750
vt 0.71875 0.46875
vt 0.78125 0.46875
vt 0.78125 0.43750
vt 0.81250 0.43750
vt 0.81250 0.46875
vt 0.87500 0.46875
vt 0.87500 0.43750
vt 0.90625 0.43750
vt 0.90625 0.46875
vt 0.03125 0.56250
vt 0.03125 0.53125
vt 0.06250 0.53125
vt 0.06250 0.56250
vt 0.12500 0.56250
vt 0.12500 0.53125
vt 0.15625 0.53125
vt 0.15625 0.56250

g Box_26
usemtl skateboard1_Material
f  1/53/2 2/54/2 3/55/2 4/56/2
f  5/29/2 6/30/2 7/31/2 1/32/2
f  8/81/2 9/82/2 10/83/2 11/84/2
f  12/89/2 13/90/2 14/91/2 15/92/2
f  16/93/2 17/94/2 18/95/2 5/96/2
f  19/85/2 20/86/2 21/87/2 22/88/2
f  23/49/1 24/50/1 25/51/1 26/52/1
f  26/33/1 27/34/1 28/35/1 29/36/1
f  30/117/1 31/118/1 32/119/1 33/120/1
f  34/113/1 35/114/1 36/115/1 37/116/1
f  29/125/1 38/126/1 39/127/1 40/128/1
f  41/121/1 42/122/1 43/123/1 44/124/1
f  15/57/3 14/58/3 35/59/3 34/60/3
f  2/61/3 7/62/3 27/63/3 25/64/3
f  11/77/3 10/78/3 31/79/3 30/80/3
f  4/101/3 3/102/3 9/103/3 8/104/3
f  33/97/3 32/98/3 24/99/3 23/100/3
f  37/69/4 36/70/4 13/71/4 12/72/4
f  38/65/4 28/66/4 6/67/4 18/68/4
f  44/73/4 43/74/4 20/75/4 19/76/4
f  22/109/4 21/110/4 17/111/4 16/112/4
f  40/105/4 39/106/4 42/107/4 41/108/4
f  4/1/5 23/2/5 40/3/5 16/4/5
f  11/45/5 30/46/5 33/47/5 8/48/5
f  22/37/5 41/38/5 44/39/5 19/40/5
f  37/5/6 12/6/6 2/7/6 25/8/6
f  24/13/6 3/14/6 15/15/6 34/16/6
f  35/9/6 14/10/6 13/11/6 36/12/6
f  27/21/6 7/22/6 6/23/6 28/24/6
f  38/17/6 18/18/6 17/19/6 39/20/6
f  31/41/6 10/42/6 9/43/6 32/44/6
f  42/25/6 21/26/6 20/27/6 43/28/6
