# This file was created with Minddesk Qubicle 2.0
# Get Qubicle at www.minddesk.com

mtllib statueoftherunawayclient.mtl

vn 0.0 0.0 1.0
vn 0.0 0.0 -1.0
vn -1.0 0.0 0.0
vn 1.0 0.0 0.0
vn 0.0 1.0 0.0
vn 0.0 -1.0 0.0

v 4.50000 3.00000 -9.00000
v 4.50000 -10.00000 -9.00000
v -4.50000 -10.00000 -9.00000
v -4.50000 3.00000 -9.00000
v -2.50000 10.00000 -8.00000
v -2.50000 3.00000 -8.00000
v -3.50000 3.00000 -8.00000
v -3.50000 10.00000 -8.00000
v -2.50000 8.00000 -5.00000
v -2.50000 3.00000 -5.00000
v -3.50000 3.00000 -5.00000
v -3.50000 8.00000 -5.00000
v -2.50000 8.00000 -2.00000
v -2.50000 3.00000 -2.00000
v -3.50000 3.00000 -2.00000
v -3.50000 8.00000 -2.00000
v 0.50000 9.00000 -8.00000
v 0.50000 3.00000 -8.00000
v -0.50000 3.00000 -8.00000
v -0.50000 9.00000 -8.00000
v 0.50000 9.00000 -2.00000
v 0.50000 3.00000 -2.00000
v -0.50000 3.00000 -2.00000
v -0.50000 9.00000 -2.00000
v 3.50000 10.00000 -8.00000
v 3.50000 3.00000 -8.00000
v 2.50000 3.00000 -8.00000
v 2.50000 10.00000 -8.00000
v 3.50000 8.00000 -5.00000
v 3.50000 3.00000 -5.00000
v 2.50000 3.00000 -5.00000
v 2.50000 8.00000 -5.00000
v 3.50000 8.00000 -2.00000
v 3.50000 3.00000 -2.00000
v 2.50000 3.00000 -2.00000
v 2.50000 8.00000 -2.00000
v -0.50000 8.00000 -8.00000
v -2.50000 8.00000 -8.00000
v -2.50000 9.00000 -8.00000
v -0.50000 8.00000 -2.00000
v -2.50000 9.00000 -2.00000
v 2.50000 9.00000 -8.00000
v 2.50000 8.00000 -8.00000
v 0.50000 8.00000 -8.00000
v 2.50000 9.00000 -2.00000
v 0.50000 8.00000 -2.00000
v -3.50000 -4.00000 -2.00000
v -3.50000 -5.00000 -2.00000
v -4.50000 -5.00000 -2.00000
v -4.50000 -4.00000 -2.00000
v -3.50000 -2.00000 -1.00000
v -3.50000 -3.00000 -1.00000
v -4.50000 -3.00000 -1.00000
v -4.50000 -2.00000 -1.00000
v -3.50000 0.00000 -2.00000
v -3.50000 -1.00000 -2.00000
v -4.50000 -1.00000 -2.00000
v -4.50000 0.00000 -2.00000
v -3.50000 2.00000 -1.00000
v -3.50000 1.00000 -1.00000
v -4.50000 1.00000 -1.00000
v -4.50000 2.00000 -1.00000
v -2.50000 10.00000 -2.00000
v -3.50000 9.00000 -2.00000
v -3.50000 10.00000 -2.00000
v 3.50000 10.00000 -2.00000
v 3.50000 9.00000 -2.00000
v 2.50000 10.00000 -2.00000
v -4.50000 3.00000 0.00000
v -4.50000 -10.00000 0.00000
v 4.50000 -10.00000 0.00000
v 4.50000 3.00000 0.00000
v -3.50000 8.00000 -7.00000
v -3.50000 3.00000 -7.00000
v -2.50000 3.00000 -7.00000
v -2.50000 8.00000 -7.00000
v -3.50000 8.00000 -4.00000
v -3.50000 3.00000 -4.00000
v -2.50000 3.00000 -4.00000
v -2.50000 8.00000 -4.00000
v -3.50000 10.00000 -1.00000
v -3.50000 3.00000 -1.00000
v -2.50000 3.00000 -1.00000
v -2.50000 10.00000 -1.00000
v -0.50000 9.00000 -7.00000
v -0.50000 3.00000 -7.00000
v 0.50000 3.00000 -7.00000
v 0.50000 9.00000 -7.00000
v -0.50000 9.00000 -1.00000
v -0.50000 3.00000 -1.00000
v 0.50000 3.00000 -1.00000
v 0.50000 9.00000 -1.00000
v 2.50000 8.00000 -7.00000
v 2.50000 3.00000 -7.00000
v 3.50000 3.00000 -7.00000
v 3.50000 8.00000 -7.00000
v 2.50000 8.00000 -4.00000
v 2.50000 3.00000 -4.00000
v 3.50000 3.00000 -4.00000
v 3.50000 8.00000 -4.00000
v 2.50000 10.00000 -1.00000
v 2.50000 3.00000 -1.00000
v 3.50000 3.00000 -1.00000
v 3.50000 10.00000 -1.00000
v -2.50000 9.00000 -7.00000
v -0.50000 8.00000 -7.00000
v -2.50000 9.00000 -1.00000
v -2.50000 8.00000 -1.00000
v -0.50000 8.00000 -1.00000
v 0.50000 8.00000 -7.00000
v 2.50000 9.00000 -7.00000
v 0.50000 8.00000 -1.00000
v 2.50000 8.00000 -1.00000
v 2.50000 9.00000 -1.00000
v -4.50000 -4.00000 -7.00000
v -4.50000 -5.00000 -7.00000
v -3.50000 -5.00000 -7.00000
v -3.50000 -4.00000 -7.00000
v -4.50000 -2.00000 -8.00000
v -4.50000 -3.00000 -8.00000
v -3.50000 -3.00000 -8.00000
v -3.50000 -2.00000 -8.00000
v -4.50000 0.00000 -7.00000
v -4.50000 -1.00000 -7.00000
v -3.50000 -1.00000 -7.00000
v -3.50000 0.00000 -7.00000
v -4.50000 2.00000 -8.00000
v -4.50000 1.00000 -8.00000
v -3.50000 1.00000 -8.00000
v -3.50000 2.00000 -8.00000
v -3.50000 10.00000 -7.00000
v -3.50000 9.00000 -7.00000
v -2.50000 10.00000 -7.00000
v 2.50000 10.00000 -7.00000
v 3.50000 9.00000 -7.00000
v 3.50000 10.00000 -7.00000
v -4.50000 -5.00000 -9.00000
v -4.50000 -10.00000 -1.00000
v -4.50000 -5.00000 -1.00000
v -4.50000 -2.00000 0.00000
v -4.50000 -3.00000 -7.00000
v -4.50000 -3.00000 -2.00000
v -4.50000 -1.00000 -8.00000
v -4.50000 -1.00000 0.00000
v -4.50000 1.00000 -7.00000
v -4.50000 0.00000 -1.00000
v -4.50000 3.00000 -8.00000
v -4.50000 2.00000 0.00000
v -3.50000 9.00000 -5.00000
v -3.50000 9.00000 -4.00000
v 2.50000 9.00000 -5.00000
v 2.50000 9.00000 -4.00000
v -4.50000 -3.00000 -9.00000
v -4.50000 1.00000 -9.00000
v -4.50000 -1.00000 -9.00000
v -4.50000 0.00000 0.00000
v -2.50000 9.00000 -4.00000
v -2.50000 9.00000 -5.00000
v 3.50000 9.00000 -4.00000
v 3.50000 9.00000 -5.00000
v -4.50000 3.00000 -1.00000
v -3.50000 3.00000 -9.00000
v -1.50000 3.00000 -9.00000
v -1.50000 3.00000 -1.00000
v -0.50000 3.00000 -9.00000
v 1.50000 3.00000 -9.00000
v 1.50000 3.00000 -4.00000
v 2.50000 3.00000 -9.00000
v -1.50000 3.00000 -2.00000
v -1.50000 3.00000 -4.00000
v -1.50000 3.00000 -8.00000
v -0.50000 3.00000 -3.00000
v 0.50000 3.00000 -3.00000
v 0.50000 3.00000 -4.00000
v 1.50000 3.00000 -8.00000
v 4.50000 3.00000 -2.00000
v 4.50000 3.00000 -4.00000
v 4.50000 3.00000 -8.00000
v -2.50000 3.00000 0.00000
v -1.50000 3.00000 0.00000
v 0.50000 3.00000 0.00000
v 1.50000 3.00000 -2.00000
v 1.50000 3.00000 -3.00000
v 2.50000 3.00000 -3.00000
v 1.50000 3.00000 0.00000
v 1.50000 3.00000 -1.00000
v 3.50000 3.00000 0.00000

vt 0.01563 0.21875
vt 0.01563 0.01563
vt 0.15625 0.01563
vt 0.15625 0.21875
vt 0.18750 0.21875
vt 0.18750 0.01563
vt 0.32813 0.01563
vt 0.32813 0.21875
vt 0.35938 0.21875
vt 0.35938 0.01563
vt 0.50000 0.01563
vt 0.50000 0.21875
vt 0.53125 0.15625
vt 0.53125 0.01563
vt 0.67188 0.01563
vt 0.67188 0.15625
vt 0.70313 0.14063
vt 0.70313 0.01563
vt 0.71875 0.01563
vt 0.71875 0.14063
vt 0.75000 0.14063
vt 0.75000 0.01563
vt 0.76563 0.01563
vt 0.76563 0.14063
vt 0.79688 0.14063
vt 0.79688 0.01563
vt 0.81250 0.01563
vt 0.81250 0.14063
vt 0.84375 0.12500
vt 0.84375 0.01563
vt 0.85938 0.01563
vt 0.85938 0.12500
vt 0.89063 0.12500
vt 0.89063 0.01563
vt 0.90625 0.01563
vt 0.90625 0.12500
vt 0.93750 0.12500
vt 0.93750 0.01563
vt 0.95313 0.01563
vt 0.95313 0.12500
vt 0.01563 0.35938
vt 0.01563 0.25000
vt 0.03125 0.25000
vt 0.03125 0.35938
vt 0.06250 0.35938
vt 0.06250 0.25000
vt 0.07813 0.25000
vt 0.07813 0.35938
vt 0.10938 0.35938
vt 0.10938 0.25000
vt 0.12500 0.25000
vt 0.12500 0.35938
vt 0.15625 0.35938
vt 0.15625 0.25000
vt 0.17188 0.25000
vt 0.17188 0.35938
vt 0.20313 0.35938
vt 0.20313 0.25000
vt 0.21875 0.25000
vt 0.21875 0.35938
vt 0.25000 0.35938
vt 0.25000 0.25000
vt 0.26563 0.25000
vt 0.26563 0.35938
vt 0.29688 0.35938
vt 0.29688 0.25000
vt 0.31250 0.25000
vt 0.31250 0.35938
vt 0.34375 0.35938
vt 0.34375 0.25000
vt 0.35938 0.25000
vt 0.35938 0.35938
vt 0.39063 0.35938
vt 0.39063 0.25000
vt 0.40625 0.25000
vt 0.40625 0.35938
vt 0.43750 0.34375
vt 0.43750 0.25000
vt 0.45313 0.25000
vt 0.45313 0.34375
vt 0.48438 0.34375
vt 0.48438 0.25000
vt 0.50000 0.25000
vt 0.50000 0.34375
vt 0.53125 0.34375
vt 0.53125 0.25000
vt 0.54688 0.25000
vt 0.54688 0.34375
vt 0.57813 0.34375
vt 0.57813 0.25000
vt 0.59375 0.25000
vt 0.59375 0.34375
vt 0.62500 0.34375
vt 0.62500 0.25000
vt 0.64063 0.25000
vt 0.64063 0.34375
vt 0.67188 0.34375
vt 0.67188 0.25000
vt 0.68750 0.25000
vt 0.68750 0.34375
vt 0.71875 0.34375
vt 0.71875 0.25000
vt 0.73438 0.25000
vt 0.73438 0.34375
vt 0.76563 0.34375
vt 0.76563 0.25000
vt 0.78125 0.25000
vt 0.78125 0.34375
vt 0.81250 0.32813
vt 0.81250 0.25000
vt 0.93750 0.25000
vt 0.93750 0.32813
vt 0.96875 0.32813
vt 0.96875 0.25000
vt 0.98438 0.25000
vt 0.98438 0.32813
vt 0.01563 0.46875
vt 0.01563 0.39063
vt 0.03125 0.39063
vt 0.03125 0.46875
vt 0.06250 0.46875
vt 0.06250 0.39063
vt 0.07813 0.39063
vt 0.07813 0.46875
vt 0.10938 0.46875
vt 0.10938 0.39063
vt 0.12500 0.39063
vt 0.12500 0.46875
vt 0.15625 0.46875
vt 0.15625 0.39063
vt 0.17188 0.39063
vt 0.17188 0.46875
vt 0.20313 0.46875
vt 0.20313 0.39063
vt 0.21875 0.39063
vt 0.21875 0.46875
vt 0.25000 0.46875
vt 0.25000 0.39063
vt 0.26563 0.39063
vt 0.26563 0.46875
vt 0.29688 0.46875
vt 0.29688 0.39063
vt 0.31250 0.39063
vt 0.31250 0.46875
vt 0.34375 0.46875
vt 0.34375 0.39063
vt 0.35938 0.39063
vt 0.35938 0.46875
vt 0.39063 0.46875
vt 0.39063 0.39063
vt 0.40625 0.39063
vt 0.40625 0.46875
vt 0.43750 0.46875
vt 0.43750 0.39063
vt 0.45313 0.39063
vt 0.45313 0.46875
vt 0.48438 0.46875
vt 0.48438 0.39063
vt 0.50000 0.39063
vt 0.50000 0.46875
vt 0.53125 0.46875
vt 0.53125 0.39063
vt 0.54688 0.39063
vt 0.54688 0.46875
vt 0.57813 0.46875
vt 0.57813 0.39063
vt 0.59375 0.39063
vt 0.59375 0.46875
vt 0.62500 0.46875
vt 0.62500 0.39063
vt 0.64063 0.39063
vt 0.64063 0.46875
vt 0.67188 0.46875
vt 0.67188 0.39063
vt 0.68750 0.39063
vt 0.68750 0.46875
vt 0.71875 0.46875
vt 0.71875 0.39063
vt 0.73438 0.39063
vt 0.73438 0.46875
vt 0.76563 0.46875
vt 0.76563 0.39063
vt 0.78125 0.39063
vt 0.78125 0.46875
vt 0.81250 0.46875
vt 0.81250 0.39063
vt 0.82813 0.39063
vt 0.82813 0.46875
vt 0.85938 0.46875
vt 0.85938 0.39063
vt 0.87500 0.39063
vt 0.87500 0.46875
vt 0.90625 0.46875
vt 0.90625 0.39063
vt 0.92188 0.39063
vt 0.92188 0.46875
vt 0.95313 0.46875
vt 0.95313 0.39063
vt 0.96875 0.39063
vt 0.96875 0.46875
vt 0.01563 0.57813
vt 0.01563 0.50000
vt 0.03125 0.50000
vt 0.03125 0.57813
vt 0.06250 0.56250
vt 0.06250 0.50000
vt 0.07813 0.50000
vt 0.07813 0.56250
vt 0.10938 0.56250
vt 0.10938 0.50000
vt 0.12500 0.50000
vt 0.12500 0.56250
vt 0.15625 0.56250
vt 0.15625 0.50000
vt 0.17188 0.50000
vt 0.17188 0.56250
vt 0.20313 0.56250
vt 0.20313 0.50000
vt 0.21875 0.50000
vt 0.21875 0.56250
vt 0.53125 0.21875
vt 0.53125 0.18750
vt 0.56250 0.18750
vt 0.56250 0.21875
vt 0.59375 0.21875
vt 0.59375 0.18750
vt 0.62500 0.18750
vt 0.62500 0.21875
vt 0.65625 0.21875
vt 0.65625 0.18750
vt 0.68750 0.18750
vt 0.68750 0.21875
vt 0.71875 0.21875
vt 0.71875 0.18750
vt 0.75000 0.18750
vt 0.75000 0.21875
vt 0.78125 0.21875
vt 0.78125 0.18750
vt 0.79688 0.18750
vt 0.79688 0.21875
vt 0.82813 0.21875
vt 0.82813 0.18750
vt 0.84375 0.18750
vt 0.84375 0.21875
vt 0.87500 0.21875
vt 0.87500 0.18750
vt 0.89063 0.18750
vt 0.89063 0.21875
vt 0.92188 0.21875
vt 0.92188 0.18750
vt 0.93750 0.18750
vt 0.93750 0.21875
vt 0.96875 0.21875
vt 0.96875 0.18750
vt 0.98438 0.18750
vt 0.98438 0.21875
vt 0.25000 0.53125
vt 0.25000 0.50000
vt 0.26563 0.50000
vt 0.26563 0.53125
vt 0.29688 0.53125
vt 0.29688 0.50000
vt 0.31250 0.50000
vt 0.31250 0.53125
vt 0.34375 0.53125
vt 0.34375 0.50000
vt 0.35938 0.50000
vt 0.35938 0.53125
vt 0.39063 0.53125
vt 0.39063 0.50000
vt 0.40625 0.50000
vt 0.40625 0.53125
vt 0.43750 0.53125
vt 0.43750 0.50000
vt 0.45313 0.50000
vt 0.45313 0.53125
vt 0.48438 0.53125
vt 0.48438 0.50000
vt 0.50000 0.50000
vt 0.50000 0.53125
vt 0.53125 0.53125
vt 0.53125 0.50000
vt 0.54688 0.50000
vt 0.54688 0.53125
vt 0.57813 0.53125
vt 0.57813 0.50000
vt 0.59375 0.50000
vt 0.59375 0.53125
vt 0.62500 0.53125
vt 0.62500 0.50000
vt 0.64063 0.50000
vt 0.64063 0.53125
vt 0.67188 0.51563
vt 0.67188 0.50000
vt 0.79688 0.50000
vt 0.79688 0.51563
vt 0.82813 0.51563
vt 0.82813 0.50000
vt 0.95313 0.50000
vt 0.95313 0.51563
vt 0.01563 0.62500
vt 0.01563 0.60938
vt 0.12500 0.60938
vt 0.12500 0.62500
vt 0.15625 0.62500
vt 0.15625 0.60938
vt 0.26563 0.60938
vt 0.26563 0.62500
vt 0.29688 0.62500
vt 0.29688 0.60938
vt 0.39063 0.60938
vt 0.39063 0.62500
vt 0.42188 0.62500
vt 0.42188 0.60938
vt 0.50000 0.60938
vt 0.50000 0.62500
vt 0.53125 0.62500
vt 0.53125 0.60938
vt 0.60938 0.60938
vt 0.60938 0.62500
vt 0.64063 0.62500
vt 0.64063 0.60938
vt 0.71875 0.60938
vt 0.71875 0.62500
vt 0.75000 0.62500
vt 0.75000 0.60938
vt 0.82813 0.60938
vt 0.82813 0.62500
vt 0.85938 0.62500
vt 0.85938 0.60938
vt 0.93750 0.60938
vt 0.93750 0.62500
vt 0.01563 0.67188
vt 0.01563 0.65625
vt 0.04688 0.65625
vt 0.04688 0.67188
vt 0.07813 0.67188
vt 0.07813 0.65625
vt 0.10938 0.65625
vt 0.10938 0.67188
vt 0.14063 0.67188
vt 0.14063 0.65625
vt 0.17188 0.65625
vt 0.17188 0.67188
vt 0.20313 0.67188
vt 0.20313 0.65625
vt 0.23438 0.65625
vt 0.23438 0.67188
vt 0.26563 0.67188
vt 0.26563 0.65625
vt 0.29688 0.65625
vt 0.29688 0.67188
vt 0.32813 0.67188
vt 0.32813 0.65625
vt 0.35938 0.65625
vt 0.35938 0.67188
vt 0.39063 0.67188
vt 0.39063 0.65625
vt 0.42188 0.65625
vt 0.42188 0.67188
vt 0.45313 0.67188
vt 0.45313 0.65625
vt 0.48438 0.65625
vt 0.48438 0.67188
vt 0.51563 0.67188
vt 0.51563 0.65625
vt 0.54688 0.65625
vt 0.54688 0.67188
vt 0.57813 0.67188
vt 0.57813 0.65625
vt 0.60938 0.65625
vt 0.60938 0.67188
vt 0.64063 0.67188
vt 0.64063 0.65625
vt 0.67188 0.65625
vt 0.67188 0.67188
vt 0.70313 0.67188
vt 0.70313 0.65625
vt 0.73438 0.65625
vt 0.73438 0.67188
vt 0.76563 0.67188
vt 0.76563 0.65625
vt 0.79688 0.65625
vt 0.79688 0.67188
vt 0.82813 0.67188
vt 0.82813 0.65625
vt 0.85938 0.65625
vt 0.85938 0.67188
vt 0.89063 0.67188
vt 0.89063 0.65625
vt 0.92188 0.65625
vt 0.92188 0.67188
vt 0.95313 0.67188
vt 0.95313 0.65625
vt 0.98438 0.65625
vt 0.98438 0.67188
vt 0.01563 0.71875
vt 0.01563 0.70313
vt 0.04688 0.70313
vt 0.04688 0.71875
vt 0.07813 0.71875
vt 0.07813 0.70313
vt 0.10938 0.70313
vt 0.10938 0.71875
vt 0.14063 0.71875
vt 0.14063 0.70313
vt 0.17188 0.70313
vt 0.17188 0.71875
vt 0.20313 0.71875
vt 0.20313 0.70313
vt 0.23438 0.70313
vt 0.23438 0.71875
vt 0.26563 0.71875
vt 0.26563 0.70313
vt 0.29688 0.70313
vt 0.29688 0.71875
vt 0.32813 0.71875
vt 0.32813 0.70313
vt 0.35938 0.70313
vt 0.35938 0.71875
vt 0.39063 0.71875
vt 0.39063 0.70313
vt 0.42188 0.70313
vt 0.42188 0.71875
vt 0.45313 0.71875
vt 0.45313 0.70313
vt 0.48438 0.70313
vt 0.48438 0.71875
vt 0.51563 0.71875
vt 0.51563 0.70313
vt 0.54688 0.70313
vt 0.54688 0.71875
vt 0.57813 0.71875
vt 0.57813 0.70313
vt 0.60938 0.70313
vt 0.60938 0.71875
vt 0.64063 0.71875
vt 0.64063 0.70313
vt 0.67188 0.70313
vt 0.67188 0.71875
vt 0.70313 0.71875
vt 0.70313 0.70313
vt 0.73438 0.70313
vt 0.73438 0.71875
vt 0.76563 0.71875
vt 0.76563 0.70313
vt 0.79688 0.70313
vt 0.79688 0.71875
vt 0.96875 0.62500
vt 0.96875 0.60938
vt 0.98438 0.60938
vt 0.98438 0.62500
vt 0.82813 0.71875
vt 0.82813 0.70313
vt 0.84375 0.70313
vt 0.84375 0.71875
vt 0.87500 0.71875
vt 0.87500 0.70313
vt 0.89063 0.70313
vt 0.89063 0.71875
vt 0.92188 0.71875
vt 0.92188 0.70313
vt 0.93750 0.70313
vt 0.93750 0.71875
vt 0.96875 0.71875
vt 0.96875 0.70313
vt 0.98438 0.70313
vt 0.98438 0.71875
vt 0.01563 0.76563
vt 0.01563 0.75000
vt 0.03125 0.75000
vt 0.03125 0.76563
vt 0.06250 0.76563
vt 0.06250 0.75000
vt 0.07813 0.75000
vt 0.07813 0.76563
vt 0.10938 0.76563
vt 0.10938 0.75000
vt 0.12500 0.75000
vt 0.12500 0.76563
vt 0.15625 0.76563
vt 0.15625 0.75000
vt 0.17188 0.75000
vt 0.17188 0.76563
vt 0.20313 0.76563
vt 0.20313 0.75000
vt 0.21875 0.75000
vt 0.21875 0.76563
vt 0.25000 0.76563
vt 0.25000 0.75000
vt 0.26563 0.75000
vt 0.26563 0.76563
vt 0.29688 0.76563
vt 0.29688 0.75000
vt 0.31250 0.75000
vt 0.31250 0.76563
vt 0.34375 0.76563
vt 0.34375 0.75000
vt 0.35938 0.75000
vt 0.35938 0.76563
vt 0.39063 0.76563
vt 0.39063 0.75000
vt 0.40625 0.75000
vt 0.40625 0.76563
vt 0.43750 0.76563
vt 0.43750 0.75000
vt 0.45313 0.75000
vt 0.45313 0.76563
vt 0.48438 0.76563
vt 0.48438 0.75000
vt 0.50000 0.75000
vt 0.50000 0.76563
vt 0.53125 0.76563
vt 0.53125 0.75000
vt 0.54688 0.75000
vt 0.54688 0.76563
vt 0.57813 0.76563
vt 0.57813 0.75000
vt 0.59375 0.75000
vt 0.59375 0.76563
vt 0.62500 0.76563
vt 0.62500 0.75000
vt 0.64063 0.75000
vt 0.64063 0.76563
vt 0.67188 0.76563
vt 0.67188 0.75000
vt 0.68750 0.75000
vt 0.68750 0.76563

g Box_71
usemtl statueoftherunawayclient_Material
f  1/1/2 2/2/2 3/3/2 4/4/2
f  5/57/2 6/58/2 7/59/2 8/60/2
f  9/201/2 10/202/2 11/203/2 12/204/2
f  13/165/2 14/166/2 15/167/2 16/168/2
f  17/89/2 18/90/2 19/91/2 20/92/2
f  21/93/2 22/94/2 23/95/2 24/96/2
f  25/41/2 26/42/2 27/43/2 28/44/2
f  29/177/2 30/178/2 31/179/2 32/180/2
f  33/181/2 34/182/2 35/183/2 36/184/2
f  20/337/2 37/338/2 38/339/2 39/340/2
f  24/333/2 40/334/2 13/335/2 41/336/2
f  42/345/2 43/346/2 44/347/2 17/348/2
f  45/341/2 36/342/2 46/343/2 21/344/2
f  47/509/2 48/510/2 49/511/2 50/512/2
f  51/517/2 52/518/2 53/519/2 54/520/2
f  55/525/2 56/526/2 57/527/2 58/528/2
f  59/521/2 60/522/2 61/523/2 62/524/2
f  63/505/2 41/506/2 64/507/2 65/508/2
f  66/489/2 67/490/2 45/491/2 68/492/2
f  69/9/1 70/10/1 71/11/1 72/12/1
f  73/169/1 74/170/1 75/171/1 76/172/1
f  77/173/1 78/174/1 79/175/1 80/176/1
f  81/65/1 82/66/1 83/67/1 84/68/1
f  85/81/1 86/82/1 87/83/1 88/84/1
f  89/85/1 90/86/1 91/87/1 92/88/1
f  93/141/1 94/142/1 95/143/1 96/144/1
f  97/145/1 98/146/1 99/147/1 100/148/1
f  101/33/1 102/34/1 103/35/1 104/36/1
f  105/357/1 76/358/1 106/359/1 85/360/1
f  107/361/1 108/362/1 109/363/1 89/364/1
f  88/349/1 110/350/1 93/351/1 111/352/1
f  92/353/1 112/354/1 113/355/1 114/356/1
f  115/513/1 116/514/1 117/515/1 118/516/1
f  119/481/1 120/482/1 121/483/1 122/484/1
f  123/457/1 124/458/1 125/459/1 126/460/1
f  127/461/1 128/462/1 129/463/1 130/464/1
f  131/449/1 132/450/1 105/451/1 133/452/1
f  134/469/1 111/470/1 135/471/1 136/472/1
f  137/109/3 3/110/3 138/111/3 139/112/3
f  54/17/3 138/18/3 70/19/3 140/20/3
f  141/321/3 115/322/3 50/323/3 142/324/3
f  143/293/3 119/294/3 140/295/3 144/296/3
f  145/309/3 123/310/3 146/311/3 61/312/3
f  147/297/3 127/298/3 148/299/3 69/300/3
f  118/329/3 117/330/3 48/331/3 47/332/3
f  122/305/3 121/306/3 52/307/3 51/308/3
f  126/325/3 125/326/3 56/327/3 55/328/3
f  130/301/3 129/302/3 60/303/3 59/304/3
f  8/53/3 7/54/3 74/55/3 131/56/3
f  149/97/3 11/98/3 78/99/3 150/100/3
f  65/45/3 15/46/3 82/47/3 81/48/3
f  37/133/3 19/134/3 86/135/3 106/136/3
f  40/113/3 23/114/3 90/115/3 109/116/3
f  43/121/3 27/122/3 94/123/3 93/124/3
f  151/101/3 31/102/3 98/103/3 152/104/3
f  36/157/3 35/158/3 102/159/3 113/160/3
f  153/221/3 137/222/3 116/223/3 141/224/3
f  154/233/3 155/234/3 124/235/3 145/236/3
f  142/261/3 49/262/3 139/263/3 53/264/3
f  155/249/3 153/250/3 120/251/3 143/252/3
f  58/437/3 57/438/3 144/439/3 156/440/3
f  62/241/3 146/242/3 156/243/3 148/244/3
f  4/245/3 154/246/3 128/247/3 147/248/3
f  132/445/3 73/446/3 12/447/3 149/448/3
f  150/425/3 77/426/3 16/427/3 64/428/3
f  111/433/3 93/434/3 32/435/3 151/436/3
f  152/429/3 97/430/3 36/431/3 45/432/3
f  28/485/3 42/486/3 111/487/3 134/488/3
f  68/497/3 45/498/3 114/499/3 101/500/3
f  72/5/4 71/6/4 2/7/4 1/8/4
f  76/149/4 75/150/4 6/151/4 38/152/4
f  157/105/4 79/106/4 10/107/4 158/108/4
f  108/161/4 83/162/4 14/163/4 13/164/4
f  110/129/4 87/130/4 18/131/4 44/132/4
f  112/153/4 91/154/4 22/155/4 46/156/4
f  136/29/4 95/30/4 26/31/4 25/32/4
f  159/77/4 99/78/4 30/79/4 160/80/4
f  104/37/4 103/38/4 34/39/4 66/40/4
f  158/441/4 9/442/4 76/443/4 105/444/4
f  41/421/4 13/422/4 80/423/4 157/424/4
f  160/381/4 29/382/4 96/383/4 135/384/4
f  67/385/4 33/386/4 100/387/4 159/388/4
f  133/501/4 105/502/4 39/503/4 5/504/4
f  84/493/4 107/494/4 41/495/4 63/496/4
f  116/137/5 49/138/5 48/139/5 117/140/5
f  120/61/5 53/62/5 52/63/5 121/64/5
f  124/117/5 57/118/5 56/119/5 125/120/5
f  128/49/5 61/50/5 60/51/5 129/52/5
f  4/21/5 161/22/5 82/23/5 162/24/5
f  132/125/5 64/126/5 41/127/5 105/128/5
f  39/317/5 105/318/5 111/319/5 42/320/5
f  41/313/5 107/314/5 114/315/5 45/316/5
f  163/25/5 164/26/5 90/27/5 165/28/5
f  166/197/5 167/198/5 98/199/5 168/200/5
f  111/193/5 45/194/5 67/195/5 135/196/5
f  78/229/5 15/230/5 169/231/5 170/232/5
f  6/217/5 79/218/5 170/219/5 171/220/5
f  86/213/5 172/214/5 173/215/5 87/216/5
f  18/205/5 174/206/5 167/207/5 175/208/5
f  98/225/5 35/226/5 176/227/5 177/228/5
f  26/209/5 99/210/5 177/211/5 178/212/5
f  161/389/5 69/390/5 179/391/5 83/392/5
f  162/377/5 7/378/5 171/379/5 163/380/5
f  74/281/5 11/282/5 10/283/5 75/284/5
f  14/285/5 179/286/5 180/287/5 169/288/5
f  164/365/5 180/366/5 181/367/5 91/368/5
f  165/369/5 19/370/5 175/371/5 166/372/5
f  172/373/5 23/374/5 182/375/5 183/376/5
f  174/409/5 173/410/5 184/411/5 98/412/5
f  22/277/5 181/278/5 185/279/5 182/280/5
f  183/269/5 186/270/5 102/271/5 184/272/5
f  186/413/5 185/414/5 187/415/5 103/416/5
f  168/417/5 27/418/5 178/419/5 1/420/5
f  94/273/5 31/274/5 30/275/5 95/276/5
f  34/237/5 187/238/5 72/239/5 176/240/5
f  8/453/5 131/454/5 133/455/5 5/456/5
f  65/473/5 81/474/5 84/475/5 63/476/5
f  28/477/5 134/478/5 136/479/5 25/480/5
f  68/465/5 101/466/5 104/467/5 66/468/5
f  70/13/6 3/14/6 2/15/6 71/16/6
f  50/185/6 115/186/6 118/187/6 47/188/6
f  54/69/6 119/70/6 122/71/6 51/72/6
f  58/189/6 123/190/6 126/191/6 55/192/6
f  62/73/6 127/74/6 130/75/6 59/76/6
f  12/265/6 73/266/6 76/267/6 9/268/6
f  16/253/6 77/254/6 80/255/6 13/256/6
f  76/405/6 38/406/6 37/407/6 106/408/6
f  108/393/6 13/394/6 40/395/6 109/396/6
f  110/397/6 44/398/6 43/399/6 93/400/6
f  112/401/6 46/402/6 36/403/6 113/404/6
f  32/257/6 93/258/6 96/259/6 29/260/6
f  36/289/6 97/290/6 100/291/6 33/292/6
