# This file was created with Minddesk Qubicle 2.0
# Get Qubicle at www.minddesk.com

mtllib steetlight.mtl

vn 0.0 0.0 1.0
vn 0.0 0.0 -1.0
vn -1.0 0.0 0.0
vn 1.0 0.0 0.0
vn 0.0 1.0 0.0
vn 0.0 -1.0 0.0

v 6.50000 16.00000 -2.00000
v 6.50000 -18.00000 -2.00000
v 5.50000 -18.00000 -2.00000
v 5.50000 16.00000 -2.00000
v -3.50000 18.00000 -3.00000
v -3.50000 15.00000 -3.00000
v -5.50000 15.00000 -3.00000
v -5.50000 18.00000 -3.00000
v 6.50000 17.00000 -2.00000
v -1.50000 16.00000 -2.00000
v -1.50000 17.00000 -2.00000
v -1.50000 18.00000 -3.00000
v -1.50000 16.00000 -3.00000
v -3.50000 16.00000 -3.00000
v -5.50000 16.00000 -3.00000
v -6.50000 16.00000 -3.00000
v -6.50000 18.00000 -3.00000
v 5.50000 15.00000 -2.00000
v 3.50000 15.00000 -2.00000
v 3.50000 16.00000 -2.00000
v -5.50000 16.00000 -2.00000
v -5.50000 15.00000 -2.00000
v -6.50000 15.00000 -2.00000
v -6.50000 16.00000 -2.00000
v -2.50000 16.00000 -2.00000
v -2.50000 15.00000 -2.00000
v -3.50000 15.00000 -2.00000
v -3.50000 16.00000 -2.00000
v 6.50000 18.00000 -2.00000
v 5.50000 17.00000 -2.00000
v 5.50000 18.00000 -2.00000
v 5.50000 16.00000 -1.00000
v 5.50000 -18.00000 -1.00000
v 6.50000 -18.00000 -1.00000
v 6.50000 16.00000 -1.00000
v -5.50000 18.00000 0.00000
v -5.50000 15.00000 0.00000
v -3.50000 15.00000 0.00000
v -3.50000 18.00000 0.00000
v -1.50000 17.00000 -1.00000
v -1.50000 16.00000 -1.00000
v 6.50000 17.00000 -1.00000
v -3.50000 16.00000 0.00000
v -1.50000 16.00000 0.00000
v -1.50000 18.00000 0.00000
v -6.50000 18.00000 0.00000
v -6.50000 16.00000 0.00000
v -5.50000 16.00000 0.00000
v 3.50000 16.00000 -1.00000
v 3.50000 15.00000 -1.00000
v 5.50000 15.00000 -1.00000
v -6.50000 16.00000 -1.00000
v -6.50000 15.00000 -1.00000
v -5.50000 15.00000 -1.00000
v -5.50000 16.00000 -1.00000
v -3.50000 16.00000 -1.00000
v -3.50000 15.00000 -1.00000
v -2.50000 15.00000 -1.00000
v -2.50000 16.00000 -1.00000
v 5.50000 18.00000 -1.00000
v 5.50000 17.00000 -1.00000
v 6.50000 18.00000 -1.00000
v -6.50000 18.00000 -2.00000
v -6.50000 18.00000 -1.00000
v -1.50000 18.00000 -2.00000
v -1.50000 18.00000 -1.00000

vt 0.03125 0.57813
vt 0.03125 0.01563
vt 0.06250 0.01563
vt 0.06250 0.57813
vt 0.12500 0.54688
vt 0.12500 0.01563
vt 0.15625 0.01563
vt 0.15625 0.54688
vt 0.21875 0.54688
vt 0.21875 0.01563
vt 0.25000 0.01563
vt 0.25000 0.54688
vt 0.31250 0.53125
vt 0.31250 0.01563
vt 0.34375 0.01563
vt 0.34375 0.53125
vt 0.40625 0.06250
vt 0.40625 0.01563
vt 0.56250 0.01563
vt 0.56250 0.06250
vt 0.62500 0.06250
vt 0.62500 0.01563
vt 0.68750 0.01563
vt 0.68750 0.06250
vt 0.75000 0.06250
vt 0.75000 0.01563
vt 0.81250 0.01563
vt 0.81250 0.06250
vt 0.87500 0.06250
vt 0.87500 0.01563
vt 0.90625 0.01563
vt 0.90625 0.06250
vt 0.40625 0.12500
vt 0.40625 0.09375
vt 0.46875 0.09375
vt 0.46875 0.12500
vt 0.53125 0.12500
vt 0.53125 0.09375
vt 0.59375 0.09375
vt 0.59375 0.12500
vt 0.65625 0.12500
vt 0.65625 0.09375
vt 0.68750 0.09375
vt 0.68750 0.12500
vt 0.75000 0.12500
vt 0.75000 0.09375
vt 0.78125 0.09375
vt 0.78125 0.12500
vt 0.84375 0.12500
vt 0.84375 0.09375
vt 0.87500 0.09375
vt 0.87500 0.12500
vt 0.93750 0.12500
vt 0.93750 0.09375
vt 0.96875 0.09375
vt 0.96875 0.12500
vt 0.40625 0.18750
vt 0.40625 0.15625
vt 0.43750 0.15625
vt 0.43750 0.18750
vt 0.50000 0.18750
vt 0.50000 0.15625
vt 0.53125 0.15625
vt 0.53125 0.18750
vt 0.59375 0.17188
vt 0.59375 0.15625
vt 0.84375 0.15625
vt 0.84375 0.17188
vt 0.40625 0.23438
vt 0.40625 0.21875
vt 0.65625 0.21875
vt 0.65625 0.23438
vt 0.71875 0.23438
vt 0.71875 0.21875
vt 0.93750 0.21875
vt 0.93750 0.23438
vt 0.40625 0.28125
vt 0.40625 0.26563
vt 0.59375 0.26563
vt 0.59375 0.28125
vt 0.65625 0.28125
vt 0.65625 0.26563
vt 0.78125 0.26563
vt 0.78125 0.28125
vt 0.90625 0.17188
vt 0.90625 0.15625
vt 0.96875 0.15625
vt 0.96875 0.17188
vt 0.84375 0.28125
vt 0.84375 0.26563
vt 0.90625 0.26563
vt 0.90625 0.28125
vt 0.40625 0.32813
vt 0.40625 0.31250
vt 0.46875 0.31250
vt 0.46875 0.32813
vt 0.53125 0.32813
vt 0.53125 0.31250
vt 0.59375 0.31250
vt 0.59375 0.32813
vt 0.65625 0.32813
vt 0.65625 0.31250
vt 0.71875 0.31250
vt 0.71875 0.32813
vt 0.78125 0.32813
vt 0.78125 0.31250
vt 0.84375 0.31250
vt 0.84375 0.32813
vt 0.90625 0.32813
vt 0.90625 0.31250
vt 0.96875 0.31250
vt 0.96875 0.32813
vt 0.40625 0.37500
vt 0.40625 0.35938
vt 0.43750 0.35938
vt 0.43750 0.37500
vt 0.50000 0.37500
vt 0.50000 0.35938
vt 0.53125 0.35938
vt 0.53125 0.37500
vt 0.59375 0.37500
vt 0.59375 0.35938
vt 0.62500 0.35938
vt 0.62500 0.37500
vt 0.68750 0.37500
vt 0.68750 0.35938
vt 0.71875 0.35938
vt 0.71875 0.37500
vt 0.78125 0.37500
vt 0.78125 0.35938
vt 0.81250 0.35938
vt 0.81250 0.37500
vt 0.87500 0.37500
vt 0.87500 0.35938
vt 0.90625 0.35938
vt 0.90625 0.37500
vt 0.40625 0.42188
vt 0.40625 0.40625
vt 0.43750 0.40625
vt 0.43750 0.42188
vt 0.50000 0.42188
vt 0.50000 0.40625
vt 0.53125 0.40625
vt 0.53125 0.42188
vt 0.59375 0.42188
vt 0.59375 0.40625
vt 0.62500 0.40625
vt 0.62500 0.42188
vt 0.68750 0.42188
vt 0.68750 0.40625
vt 0.71875 0.40625
vt 0.71875 0.42188
vt 0.78125 0.42188
vt 0.78125 0.40625
vt 0.81250 0.40625
vt 0.81250 0.42188
vt 0.87500 0.42188
vt 0.87500 0.40625
vt 0.90625 0.40625
vt 0.90625 0.42188
vt 0.40625 0.46875
vt 0.40625 0.45313
vt 0.43750 0.45313
vt 0.43750 0.46875
vt 0.50000 0.46875
vt 0.50000 0.45313
vt 0.53125 0.45313
vt 0.53125 0.46875
vt 0.59375 0.46875
vt 0.59375 0.45313
vt 0.62500 0.45313
vt 0.62500 0.46875
vt 0.68750 0.46875
vt 0.68750 0.45313
vt 0.71875 0.45313
vt 0.71875 0.46875
vt 0.78125 0.46875
vt 0.78125 0.45313
vt 0.81250 0.45313
vt 0.81250 0.46875
vt 0.87500 0.46875
vt 0.87500 0.45313
vt 0.90625 0.45313
vt 0.90625 0.46875

g Box_99
usemtl steetlight_Material
f  1/5/2 2/6/2 3/7/2 4/8/2
f  5/25/2 6/26/2 7/27/2 8/28/2
f  9/65/2 1/66/2 10/67/2 11/68/2
f  12/33/2 13/34/2 14/35/2 5/36/2
f  8/61/2 15/62/2 16/63/2 17/64/2
f  4/105/2 18/106/2 19/107/2 20/108/2
f  21/113/2 22/114/2 23/115/2 24/116/2
f  25/117/2 26/118/2 27/119/2 28/120/2
f  29/121/2 9/122/2 30/123/2 31/124/2
f  32/9/1 33/10/1 34/11/1 35/12/1
f  36/21/1 37/22/1 38/23/1 39/24/1
f  40/69/1 41/70/1 35/71/1 42/72/1
f  39/37/1 43/38/1 44/39/1 45/40/1
f  46/41/1 47/42/1 48/43/1 36/44/1
f  49/101/1 50/102/1 51/103/1 32/104/1
f  52/165/1 53/166/1 54/167/1 55/168/1
f  56/161/1 57/162/1 58/163/1 59/164/1
f  60/157/1 61/158/1 42/159/1 62/160/1
f  18/13/3 3/14/3 33/15/3 51/16/3
f  63/29/3 23/30/3 53/31/3 64/32/3
f  17/53/3 16/54/3 24/55/3 63/56/3
f  64/45/3 52/46/3 47/47/3 46/48/3
f  15/169/3 7/170/3 22/171/3 21/172/3
f  55/181/3 54/182/3 37/183/3 48/184/3
f  20/177/3 19/178/3 50/179/3 49/180/3
f  31/173/3 30/174/3 61/175/3 60/176/3
f  62/1/4 34/2/4 2/3/4 29/4/4
f  65/57/4 10/58/4 13/59/4 12/60/4
f  45/49/4 44/50/4 41/51/4 66/52/4
f  28/153/4 27/154/4 6/155/4 14/156/4
f  43/133/4 38/134/4 57/135/4 56/136/4
f  59/129/4 58/130/4 26/131/4 25/132/4
f  66/125/4 40/126/4 11/127/4 65/128/4
f  17/17/5 46/18/5 45/19/5 12/20/5
f  11/73/5 40/74/5 61/75/5 30/76/5
f  31/137/5 60/138/5 62/139/5 29/140/5
f  59/77/6 25/78/6 20/79/6 49/80/6
f  53/81/6 23/82/6 26/83/6 58/84/6
f  22/109/6 7/110/6 6/111/6 27/112/6
f  37/97/6 54/98/6 57/99/6 38/100/6
f  28/85/6 14/86/6 13/87/6 10/88/6
f  43/89/6 56/90/6 41/91/6 44/92/6
f  50/93/6 19/94/6 18/95/6 51/96/6
f  24/149/6 16/150/6 15/151/6 21/152/6
f  47/145/6 52/146/6 55/147/6 48/148/6
f  33/141/6 3/142/6 2/143/6 34/144/6
