# This file was created with Minddesk Qubicle 2.0
# Get Qubicle at www.minddesk.com

mtllib swings.mtl

vn 0.0 0.0 1.0
vn 0.0 0.0 -1.0
vn -1.0 0.0 0.0
vn 1.0 0.0 0.0
vn 0.0 1.0 0.0
vn 0.0 -1.0 0.0

v 18.00000 15.00000 -6.00000
v 18.00000 14.00000 -6.00000
v -18.00000 14.00000 -6.00000
v -18.00000 15.00000 -6.00000
v -18.00000 13.00000 -6.00000
v -18.00000 -5.00000 -6.00000
v -19.00000 -5.00000 -6.00000
v -19.00000 13.00000 -6.00000
v -11.00000 14.00000 -6.00000
v -11.00000 -10.00000 -6.00000
v -12.00000 -10.00000 -6.00000
v -12.00000 14.00000 -6.00000
v -5.00000 14.00000 -6.00000
v -5.00000 -10.00000 -6.00000
v -6.00000 -10.00000 -6.00000
v -6.00000 14.00000 -6.00000
v 6.00000 14.00000 -6.00000
v 6.00000 -10.00000 -6.00000
v 5.00000 -10.00000 -6.00000
v 5.00000 14.00000 -6.00000
v 12.00000 14.00000 -6.00000
v 12.00000 -10.00000 -6.00000
v 11.00000 -10.00000 -6.00000
v 11.00000 14.00000 -6.00000
v 19.00000 13.00000 -6.00000
v 19.00000 -5.00000 -6.00000
v 18.00000 -5.00000 -6.00000
v 18.00000 13.00000 -6.00000
v -18.00000 -6.00000 -6.00000
v -18.00000 -15.00000 -6.00000
v -19.00000 -15.00000 -6.00000
v -19.00000 -6.00000 -6.00000
v -18.00000 -6.00000 -1.00000
v -18.00000 -15.00000 -1.00000
v -19.00000 -15.00000 -1.00000
v -19.00000 -6.00000 -1.00000
v -18.00000 -5.00000 -11.00000
v -18.00000 -14.00000 -11.00000
v -19.00000 -14.00000 -11.00000
v -19.00000 -5.00000 -11.00000
v 19.00000 -6.00000 -6.00000
v 19.00000 -15.00000 -6.00000
v 18.00000 -15.00000 -6.00000
v 18.00000 -6.00000 -6.00000
v 19.00000 -6.00000 -1.00000
v 19.00000 -15.00000 -1.00000
v 18.00000 -15.00000 -1.00000
v 18.00000 -6.00000 -1.00000
v 19.00000 -5.00000 -11.00000
v 19.00000 -14.00000 -11.00000
v 18.00000 -14.00000 -11.00000
v 18.00000 -5.00000 -11.00000
v -5.00000 -10.00000 -7.00000
v -5.00000 -11.00000 -7.00000
v -12.00000 -11.00000 -7.00000
v -12.00000 -10.00000 -7.00000
v 12.00000 -10.00000 -7.00000
v 12.00000 -11.00000 -7.00000
v 5.00000 -11.00000 -7.00000
v 5.00000 -10.00000 -7.00000
v -17.00000 14.00000 -6.00000
v -17.00000 13.00000 -6.00000
v -19.00000 14.00000 -6.00000
v 19.00000 14.00000 -6.00000
v 17.00000 13.00000 -6.00000
v 17.00000 14.00000 -6.00000
v -18.00000 15.00000 -5.00000
v -18.00000 14.00000 -5.00000
v 18.00000 14.00000 -5.00000
v 18.00000 15.00000 -5.00000
v -19.00000 13.00000 -5.00000
v -19.00000 -5.00000 -5.00000
v -18.00000 -5.00000 -5.00000
v -18.00000 13.00000 -5.00000
v -12.00000 14.00000 -5.00000
v -12.00000 -10.00000 -5.00000
v -11.00000 -10.00000 -5.00000
v -11.00000 14.00000 -5.00000
v -6.00000 14.00000 -5.00000
v -6.00000 -10.00000 -5.00000
v -5.00000 -10.00000 -5.00000
v -5.00000 14.00000 -5.00000
v 5.00000 14.00000 -5.00000
v 5.00000 -10.00000 -5.00000
v 6.00000 -10.00000 -5.00000
v 6.00000 14.00000 -5.00000
v 11.00000 14.00000 -5.00000
v 11.00000 -10.00000 -5.00000
v 12.00000 -10.00000 -5.00000
v 12.00000 14.00000 -5.00000
v 18.00000 13.00000 -5.00000
v 18.00000 -5.00000 -5.00000
v 19.00000 -5.00000 -5.00000
v 19.00000 13.00000 -5.00000
v -19.00000 -6.00000 -5.00000
v -19.00000 -15.00000 -5.00000
v -18.00000 -15.00000 -5.00000
v -18.00000 -6.00000 -5.00000
v -19.00000 -5.00000 0.00000
v -19.00000 -15.00000 0.00000
v -18.00000 -15.00000 0.00000
v -18.00000 -5.00000 0.00000
v 18.00000 -6.00000 -5.00000
v 18.00000 -15.00000 -5.00000
v 19.00000 -15.00000 -5.00000
v 19.00000 -6.00000 -5.00000
v 18.00000 -5.00000 0.00000
v 18.00000 -15.00000 0.00000
v 19.00000 -15.00000 0.00000
v 19.00000 -5.00000 0.00000
v -19.00000 -6.00000 -10.00000
v -19.00000 -14.00000 -10.00000
v -18.00000 -14.00000 -10.00000
v -18.00000 -6.00000 -10.00000
v -12.00000 -10.00000 -4.00000
v -12.00000 -11.00000 -4.00000
v -5.00000 -11.00000 -4.00000
v -5.00000 -10.00000 -4.00000
v 5.00000 -10.00000 -4.00000
v 5.00000 -11.00000 -4.00000
v 12.00000 -11.00000 -4.00000
v 12.00000 -10.00000 -4.00000
v 18.00000 -6.00000 -10.00000
v 18.00000 -14.00000 -10.00000
v 19.00000 -14.00000 -10.00000
v 19.00000 -6.00000 -10.00000
v -19.00000 14.00000 -5.00000
v -17.00000 13.00000 -5.00000
v -17.00000 14.00000 -5.00000
v 17.00000 14.00000 -5.00000
v 17.00000 13.00000 -5.00000
v 19.00000 14.00000 -5.00000
v -19.00000 -5.00000 -1.00000
v 18.00000 -5.00000 -1.00000
v -19.00000 -6.00000 -11.00000
v 18.00000 -6.00000 -11.00000
v -18.00000 -5.00000 -1.00000
v 19.00000 -5.00000 -1.00000
v -18.00000 -6.00000 -11.00000
v 19.00000 -6.00000 -11.00000

vt 0.00781 0.46875
vt 0.00781 0.01563
vt 0.01563 0.01563
vt 0.01563 0.46875
vt 0.03125 0.46875
vt 0.03125 0.01563
vt 0.03906 0.01563
vt 0.03906 0.46875
vt 0.05469 0.45313
vt 0.05469 0.01563
vt 0.06250 0.01563
vt 0.06250 0.45313
vt 0.07813 0.45313
vt 0.07813 0.01563
vt 0.08594 0.01563
vt 0.08594 0.45313
vt 0.10156 0.39063
vt 0.10156 0.01563
vt 0.10938 0.01563
vt 0.10938 0.39063
vt 0.12500 0.39063
vt 0.12500 0.01563
vt 0.13281 0.01563
vt 0.13281 0.39063
vt 0.14844 0.39063
vt 0.14844 0.01563
vt 0.15625 0.01563
vt 0.15625 0.39063
vt 0.17188 0.39063
vt 0.17188 0.01563
vt 0.17969 0.01563
vt 0.17969 0.39063
vt 0.19531 0.39063
vt 0.19531 0.01563
vt 0.20313 0.01563
vt 0.20313 0.39063
vt 0.21875 0.39063
vt 0.21875 0.01563
vt 0.22656 0.01563
vt 0.22656 0.39063
vt 0.24219 0.39063
vt 0.24219 0.01563
vt 0.25000 0.01563
vt 0.25000 0.39063
vt 0.26563 0.39063
vt 0.26563 0.01563
vt 0.27344 0.01563
vt 0.27344 0.39063
vt 0.28906 0.39063
vt 0.28906 0.01563
vt 0.29688 0.01563
vt 0.29688 0.39063
vt 0.31250 0.39063
vt 0.31250 0.01563
vt 0.32031 0.01563
vt 0.32031 0.39063
vt 0.33594 0.39063
vt 0.33594 0.01563
vt 0.34375 0.01563
vt 0.34375 0.39063
vt 0.35938 0.39063
vt 0.35938 0.01563
vt 0.36719 0.01563
vt 0.36719 0.39063
vt 0.38281 0.39063
vt 0.38281 0.01563
vt 0.39063 0.01563
vt 0.39063 0.39063
vt 0.40625 0.39063
vt 0.40625 0.01563
vt 0.41406 0.01563
vt 0.41406 0.39063
vt 0.42969 0.39063
vt 0.42969 0.01563
vt 0.43750 0.01563
vt 0.43750 0.39063
vt 0.45313 0.39063
vt 0.45313 0.01563
vt 0.46094 0.01563
vt 0.46094 0.39063
vt 0.47656 0.29688
vt 0.47656 0.01563
vt 0.48438 0.01563
vt 0.48438 0.29688
vt 0.50000 0.29688
vt 0.50000 0.01563
vt 0.50781 0.01563
vt 0.50781 0.29688
vt 0.52344 0.29688
vt 0.52344 0.01563
vt 0.53125 0.01563
vt 0.53125 0.29688
vt 0.54688 0.29688
vt 0.54688 0.01563
vt 0.55469 0.01563
vt 0.55469 0.29688
vt 0.57031 0.17188
vt 0.57031 0.01563
vt 0.57813 0.01563
vt 0.57813 0.17188
vt 0.59375 0.17188
vt 0.59375 0.01563
vt 0.60156 0.01563
vt 0.60156 0.17188
vt 0.61719 0.17188
vt 0.61719 0.01563
vt 0.62500 0.01563
vt 0.62500 0.17188
vt 0.64063 0.17188
vt 0.64063 0.01563
vt 0.64844 0.01563
vt 0.64844 0.17188
vt 0.66406 0.17188
vt 0.66406 0.01563
vt 0.67188 0.01563
vt 0.67188 0.17188
vt 0.68750 0.17188
vt 0.68750 0.01563
vt 0.69531 0.01563
vt 0.69531 0.17188
vt 0.71094 0.15625
vt 0.71094 0.01563
vt 0.71875 0.01563
vt 0.71875 0.15625
vt 0.73438 0.15625
vt 0.73438 0.01563
vt 0.74219 0.01563
vt 0.74219 0.15625
vt 0.75781 0.15625
vt 0.75781 0.01563
vt 0.76563 0.01563
vt 0.76563 0.15625
vt 0.78125 0.15625
vt 0.78125 0.01563
vt 0.78906 0.01563
vt 0.78906 0.15625
vt 0.80469 0.15625
vt 0.80469 0.01563
vt 0.81250 0.01563
vt 0.81250 0.15625
vt 0.82813 0.15625
vt 0.82813 0.01563
vt 0.83594 0.01563
vt 0.83594 0.15625
vt 0.85156 0.15625
vt 0.85156 0.01563
vt 0.85938 0.01563
vt 0.85938 0.15625
vt 0.87500 0.15625
vt 0.87500 0.01563
vt 0.88281 0.01563
vt 0.88281 0.15625
vt 0.89844 0.14063
vt 0.89844 0.01563
vt 0.90625 0.01563
vt 0.90625 0.14063
vt 0.92188 0.14063
vt 0.92188 0.01563
vt 0.92969 0.01563
vt 0.92969 0.14063
vt 0.94531 0.14063
vt 0.94531 0.01563
vt 0.95313 0.01563
vt 0.95313 0.14063
vt 0.96875 0.14063
vt 0.96875 0.01563
vt 0.97656 0.01563
vt 0.97656 0.14063
vt 0.00781 0.62500
vt 0.00781 0.50000
vt 0.01563 0.50000
vt 0.01563 0.62500
vt 0.03125 0.62500
vt 0.03125 0.50000
vt 0.03906 0.50000
vt 0.03906 0.62500
vt 0.57031 0.28125
vt 0.57031 0.20313
vt 0.57813 0.20313
vt 0.57813 0.28125
vt 0.59375 0.28125
vt 0.59375 0.20313
vt 0.60156 0.20313
vt 0.60156 0.28125
vt 0.61719 0.28125
vt 0.61719 0.20313
vt 0.62500 0.20313
vt 0.62500 0.28125
vt 0.64063 0.28125
vt 0.64063 0.20313
vt 0.64844 0.20313
vt 0.64844 0.28125
vt 0.66406 0.26563
vt 0.66406 0.20313
vt 0.67188 0.20313
vt 0.67188 0.26563
vt 0.68750 0.26563
vt 0.68750 0.20313
vt 0.69531 0.20313
vt 0.69531 0.26563
vt 0.71094 0.26563
vt 0.71094 0.20313
vt 0.71875 0.20313
vt 0.71875 0.26563
vt 0.73438 0.26563
vt 0.73438 0.20313
vt 0.74219 0.20313
vt 0.74219 0.26563
vt 0.75781 0.25000
vt 0.75781 0.20313
vt 0.81250 0.20313
vt 0.81250 0.25000
vt 0.82813 0.25000
vt 0.82813 0.20313
vt 0.88281 0.20313
vt 0.88281 0.25000
vt 0.47656 0.34375
vt 0.47656 0.32813
vt 0.75781 0.32813
vt 0.75781 0.34375
vt 0.47656 0.39063
vt 0.47656 0.37500
vt 0.75781 0.37500
vt 0.75781 0.39063
vt 0.10156 0.43750
vt 0.10156 0.42188
vt 0.38281 0.42188
vt 0.38281 0.43750
vt 0.89844 0.21875
vt 0.89844 0.20313
vt 0.97656 0.20313
vt 0.97656 0.21875
vt 0.77344 0.34375
vt 0.77344 0.32813
vt 0.82813 0.32813
vt 0.82813 0.34375
vt 0.84375 0.34375
vt 0.84375 0.32813
vt 0.89844 0.32813
vt 0.89844 0.34375
vt 0.91406 0.34375
vt 0.91406 0.32813
vt 0.96875 0.32813
vt 0.96875 0.34375
vt 0.77344 0.39063
vt 0.77344 0.37500
vt 0.82813 0.37500
vt 0.82813 0.39063
vt 0.84375 0.39063
vt 0.84375 0.37500
vt 0.89844 0.37500
vt 0.89844 0.39063
vt 0.91406 0.39063
vt 0.91406 0.37500
vt 0.96875 0.37500
vt 0.96875 0.39063
vt 0.39844 0.43750
vt 0.39844 0.42188
vt 0.45313 0.42188
vt 0.45313 0.43750
vt 0.46875 0.43750
vt 0.46875 0.42188
vt 0.52344 0.42188
vt 0.52344 0.43750
vt 0.53906 0.43750
vt 0.53906 0.42188
vt 0.57813 0.42188
vt 0.57813 0.43750
vt 0.59375 0.43750
vt 0.59375 0.42188
vt 0.63281 0.42188
vt 0.63281 0.43750
vt 0.64844 0.43750
vt 0.64844 0.42188
vt 0.68750 0.42188
vt 0.68750 0.43750
vt 0.70313 0.43750
vt 0.70313 0.42188
vt 0.74219 0.42188
vt 0.74219 0.43750
vt 0.75781 0.43750
vt 0.75781 0.42188
vt 0.79688 0.42188
vt 0.79688 0.43750
vt 0.81250 0.43750
vt 0.81250 0.42188
vt 0.85156 0.42188
vt 0.85156 0.43750
vt 0.86719 0.43750
vt 0.86719 0.42188
vt 0.90625 0.42188
vt 0.90625 0.43750
vt 0.92188 0.43750
vt 0.92188 0.42188
vt 0.96094 0.42188
vt 0.96094 0.43750
vt 0.05469 0.51563
vt 0.05469 0.50000
vt 0.09375 0.50000
vt 0.09375 0.51563
vt 0.10938 0.51563
vt 0.10938 0.50000
vt 0.14844 0.50000
vt 0.14844 0.51563
vt 0.16406 0.51563
vt 0.16406 0.50000
vt 0.19531 0.50000
vt 0.19531 0.51563
vt 0.21094 0.51563
vt 0.21094 0.50000
vt 0.24219 0.50000
vt 0.24219 0.51563
vt 0.25781 0.51563
vt 0.25781 0.50000
vt 0.28906 0.50000
vt 0.28906 0.51563
vt 0.30469 0.51563
vt 0.30469 0.50000
vt 0.33594 0.50000
vt 0.33594 0.51563
vt 0.35156 0.51563
vt 0.35156 0.50000
vt 0.37500 0.50000
vt 0.37500 0.51563
vt 0.39063 0.51563
vt 0.39063 0.50000
vt 0.41406 0.50000
vt 0.41406 0.51563
vt 0.42969 0.51563
vt 0.42969 0.50000
vt 0.45313 0.50000
vt 0.45313 0.51563
vt 0.46875 0.51563
vt 0.46875 0.50000
vt 0.49219 0.50000
vt 0.49219 0.51563
vt 0.97656 0.43750
vt 0.97656 0.42188
vt 0.99219 0.42188
vt 0.99219 0.43750
vt 0.50781 0.51563
vt 0.50781 0.50000
vt 0.52344 0.50000
vt 0.52344 0.51563
vt 0.53906 0.51563
vt 0.53906 0.50000
vt 0.55469 0.50000
vt 0.55469 0.51563
vt 0.57031 0.51563
vt 0.57031 0.50000
vt 0.58594 0.50000
vt 0.58594 0.51563
vt 0.98438 0.34375
vt 0.98438 0.32813
vt 0.99219 0.32813
vt 0.99219 0.34375
vt 0.98438 0.39063
vt 0.98438 0.37500
vt 0.99219 0.37500
vt 0.99219 0.39063
vt 0.60156 0.51563
vt 0.60156 0.50000
vt 0.60938 0.50000
vt 0.60938 0.51563
vt 0.62500 0.51563
vt 0.62500 0.50000
vt 0.63281 0.50000
vt 0.63281 0.51563
vt 0.64844 0.51563
vt 0.64844 0.50000
vt 0.65625 0.50000
vt 0.65625 0.51563
vt 0.67188 0.51563
vt 0.67188 0.50000
vt 0.67969 0.50000
vt 0.67969 0.51563
vt 0.69531 0.51563
vt 0.69531 0.50000
vt 0.70313 0.50000
vt 0.70313 0.51563
vt 0.71875 0.51563
vt 0.71875 0.50000
vt 0.72656 0.50000
vt 0.72656 0.51563
vt 0.74219 0.51563
vt 0.74219 0.50000
vt 0.75000 0.50000
vt 0.75000 0.51563
vt 0.76563 0.51563
vt 0.76563 0.50000
vt 0.77344 0.50000
vt 0.77344 0.51563
vt 0.78906 0.51563
vt 0.78906 0.50000
vt 0.79688 0.50000
vt 0.79688 0.51563
vt 0.81250 0.51563
vt 0.81250 0.50000
vt 0.82031 0.50000
vt 0.82031 0.51563
vt 0.83594 0.51563
vt 0.83594 0.50000
vt 0.84375 0.50000
vt 0.84375 0.51563
vt 0.85938 0.51563
vt 0.85938 0.50000
vt 0.86719 0.50000
vt 0.86719 0.51563

g Box_43
usemtl swings_Material
f  1/217/2 2/218/2 3/219/2 4/220/2
f  5/81/2 6/82/2 7/83/2 8/84/2
f  9/73/2 10/74/2 11/75/2 12/76/2
f  13/77/2 14/78/2 15/79/2 16/80/2
f  17/65/2 18/66/2 19/67/2 20/68/2
f  21/69/2 22/70/2 23/71/2 24/72/2
f  25/93/2 26/94/2 27/95/2 28/96/2
f  29/125/2 30/126/2 31/127/2 32/128/2
f  33/133/2 34/134/2 35/135/2 36/136/2
f  37/141/2 38/142/2 39/143/2 40/144/2
f  41/129/2 42/130/2 43/131/2 44/132/2
f  45/121/2 46/122/2 47/123/2 48/124/2
f  49/149/2 50/150/2 51/151/2 52/152/2
f  53/237/2 54/238/2 55/239/2 56/240/2
f  57/233/2 58/234/2 59/235/2 60/236/2
f  61/337/2 62/338/2 8/339/2 63/340/2
f  64/349/2 25/350/2 65/351/2 66/352/2
f  67/225/1 68/226/1 69/227/1 70/228/1
f  71/89/1 72/90/1 73/91/1 74/92/1
f  75/45/1 76/46/1 77/47/1 78/48/1
f  79/41/1 80/42/1 81/43/1 82/44/1
f  83/37/1 84/38/1 85/39/1 86/40/1
f  87/49/1 88/50/1 89/51/1 90/52/1
f  91/85/1 92/86/1 93/87/1 94/88/1
f  95/145/1 96/146/1 97/147/1 98/148/1
f  99/97/1 100/98/1 101/99/1 102/100/1
f  103/137/1 104/138/1 105/139/1 106/140/1
f  107/117/1 108/118/1 109/119/1 110/120/1
f  111/169/1 112/170/1 113/171/1 114/172/1
f  115/241/1 116/242/1 117/243/1 118/244/1
f  119/245/1 120/246/1 121/247/1 122/248/1
f  123/157/1 124/158/1 125/159/1 126/160/1
f  127/341/1 71/342/1 128/343/1 129/344/1
f  130/345/1 131/346/1 94/347/1 132/348/1
f  63/5/3 31/6/3 96/7/3 127/8/3
f  12/61/3 11/62/3 76/63/3 75/64/3
f  16/57/3 15/58/3 80/59/3 79/60/3
f  20/53/3 19/54/3 84/55/3 83/56/3
f  24/17/3 23/18/3 88/19/3 87/20/3
f  28/13/3 43/14/3 104/15/3 91/16/3
f  133/101/3 35/102/3 100/103/3 99/104/3
f  134/105/3 47/106/3 108/107/3 107/108/3
f  135/153/3 39/154/3 112/155/3 111/156/3
f  40/289/3 135/290/3 32/291/3 7/292/3
f  136/161/3 51/162/3 124/163/3 123/164/3
f  52/285/3 136/286/3 44/287/3 27/288/3
f  72/317/3 95/318/3 36/319/3 133/320/3
f  56/329/3 55/330/3 116/331/3 115/332/3
f  60/333/3 59/334/3 120/335/3 119/336/3
f  92/305/3 103/306/3 48/307/3 134/308/3
f  4/389/3 3/390/3 68/391/3 67/392/3
f  66/385/3 65/386/3 131/387/3 130/388/3
f  74/9/4 97/10/4 30/11/4 5/12/4
f  78/21/4 77/22/4 10/23/4 9/24/4
f  82/33/4 81/34/4 14/35/4 13/36/4
f  86/29/4 85/30/4 18/31/4 17/32/4
f  90/25/4 89/26/4 22/27/4 21/28/4
f  132/1/4 105/2/4 42/3/4 64/4/4
f  102/109/4 101/110/4 34/111/4 137/112/4
f  110/113/4 109/114/4 46/115/4 138/116/4
f  114/165/4 113/166/4 38/167/4 139/168/4
f  6/265/4 29/266/4 139/267/4 37/268/4
f  126/173/4 125/174/4 50/175/4 140/176/4
f  26/273/4 41/274/4 140/275/4 49/276/4
f  137/309/4 33/310/4 98/311/4 73/312/4
f  118/321/4 117/322/4 54/323/4 53/324/4
f  122/325/4 121/326/4 58/327/4 57/328/4
f  138/313/4 45/314/4 106/315/4 93/316/4
f  129/381/4 128/382/4 62/383/4 61/384/4
f  70/393/4 69/394/4 2/395/4 1/396/4
f  4/221/5 67/222/5 70/223/5 1/224/5
f  40/181/5 7/182/5 6/183/5 37/184/5
f  72/177/5 99/178/5 102/179/5 73/180/5
f  56/257/5 11/258/5 14/259/5 53/260/5
f  76/261/5 115/262/5 118/263/5 81/264/5
f  10/281/5 77/282/5 80/283/5 15/284/5
f  60/249/5 19/250/5 22/251/5 57/252/5
f  84/253/5 119/254/5 122/255/5 89/256/5
f  18/277/5 85/278/5 88/279/5 23/280/5
f  52/185/5 27/186/5 26/187/5 49/188/5
f  92/189/5 107/190/5 110/191/5 93/192/5
f  63/405/5 127/406/5 68/407/5 3/408/5
f  2/401/5 69/402/5 132/403/5 64/404/5
f  116/209/6 55/210/6 54/211/6 117/212/6
f  120/213/6 59/214/6 58/215/6 121/216/6
f  82/229/6 13/230/6 20/231/6 83/232/6
f  129/269/6 61/270/6 12/271/6 75/272/6
f  78/297/6 9/298/6 16/299/6 79/300/6
f  86/301/6 17/302/6 24/303/6 87/304/6
f  90/293/6 21/294/6 66/295/6 130/296/6
f  32/205/6 111/206/6 114/207/6 29/208/6
f  36/197/6 95/198/6 98/199/6 33/200/6
f  44/193/6 123/194/6 126/195/6 41/196/6
f  48/201/6 103/202/6 106/203/6 45/204/6
f  96/397/6 31/398/6 30/399/6 97/400/6
f  100/361/6 35/362/6 34/363/6 101/364/6
f  112/357/6 39/358/6 38/359/6 113/360/6
f  74/353/6 5/354/6 62/355/6 128/356/6
f  131/365/6 65/366/6 28/367/6 91/368/6
f  104/377/6 43/378/6 42/379/6 105/380/6
f  108/373/6 47/374/6 46/375/6 109/376/6
f  124/369/6 51/370/6 50/371/6 125/372/6
